<?xml version="1.0" encoding="utf-8"?>
<svg viewBox="0 0 179 43" xmlns="http://www.w3.org/2000/svg">
  <path fill="#EA4335" d="M 80.984 22.961 C 80.984 28.334 76.781 32.292 71.623 32.292 C 66.464 32.292 62.261 28.334 62.261 22.961 C 62.261 17.55 66.464 13.628 71.623 13.628 C 76.781 13.628 80.984 17.55 80.984 22.961 Z M 76.886 22.961 C 76.886 19.602 74.45 17.305 71.623 17.305 C 68.796 17.305 66.36 19.602 66.36 22.961 C 66.36 26.284 68.796 28.616 71.623 28.616 C 74.45 28.616 76.886 26.28 76.886 22.961 Z" style=""/>
  <path fill="#FBBC05" d="M 101.179 22.961 C 101.179 28.334 96.976 32.292 91.818 32.292 C 86.661 32.292 82.456 28.334 82.456 22.961 C 82.456 17.554 86.661 13.628 91.818 13.628 C 96.976 13.628 101.179 17.55 101.179 22.961 Z M 97.082 22.961 C 97.082 19.602 94.646 17.305 91.818 17.305 C 88.991 17.305 86.554 19.602 86.554 22.961 C 86.554 26.284 88.991 28.616 91.818 28.616 C 94.646 28.616 97.082 26.28 97.082 22.961 Z" style=""/>
  <path fill="#4285F4" d="M 120.535 14.192 L 120.535 30.947 C 120.535 37.838 116.47 40.653 111.665 40.653 C 107.142 40.653 104.419 37.628 103.393 35.153 L 106.961 33.668 C 107.597 35.187 109.152 36.98 111.66 36.98 C 114.736 36.98 116.643 35.083 116.643 31.509 L 116.643 30.168 L 116.498 30.168 C 115.581 31.3 113.815 32.289 111.585 32.289 C 106.919 32.289 102.645 28.224 102.645 22.995 C 102.645 17.727 106.919 13.628 111.585 13.628 C 113.81 13.628 115.578 14.617 116.498 15.716 L 116.643 15.716 L 116.643 14.196 L 120.535 14.196 Z M 116.933 22.995 C 116.933 19.708 114.74 17.305 111.951 17.305 C 109.124 17.305 106.755 19.708 106.755 22.995 C 106.755 26.246 109.124 28.616 111.951 28.616 C 114.74 28.616 116.933 26.246 116.933 22.995 Z" style=""/>
  <path fill="#34A853" d="M 126.95 4.372 L 126.95 31.721 L 122.954 31.721 L 122.954 4.372 L 126.95 4.372 Z" style=""/>
  <path fill="#EA4335" d="M 142.526 26.032 L 145.707 28.153 C 144.68 29.672 142.206 32.289 137.932 32.289 C 132.63 32.289 128.672 28.19 128.672 22.957 C 128.672 17.406 132.664 13.624 137.473 13.624 C 142.316 13.624 144.685 17.478 145.46 19.562 L 145.884 20.621 L 133.409 25.789 C 134.364 27.66 135.849 28.616 137.932 28.616 C 140.018 28.616 141.466 27.589 142.526 26.032 Z M 132.735 22.675 L 141.075 19.212 C 140.616 18.047 139.235 17.235 137.612 17.235 C 135.53 17.235 132.63 19.072 132.735 22.675 Z" style=""/>
  <path fill="#4285F4" d="M 47.132 20.533 L 47.132 16.574 L 60.474 16.574 C 60.604 17.264 60.671 18.08 60.671 18.964 C 60.671 21.934 59.859 25.608 57.242 28.224 C 54.697 30.875 51.444 32.289 47.135 32.289 C 39.15 32.289 32.435 25.783 32.435 17.798 C 32.435 9.812 39.15 3.308 47.135 3.308 C 51.554 3.308 54.701 5.041 57.065 7.3 L 54.272 10.094 C 52.576 8.504 50.278 7.266 47.132 7.266 C 41.3 7.266 36.74 11.967 36.74 17.798 C 36.74 23.629 41.3 28.329 47.132 28.329 C 50.914 28.329 53.068 26.81 54.448 25.43 C 55.568 24.311 56.303 22.712 56.593 20.528 L 47.132 20.533 Z" style=""/>
</svg>