<svg id="Capa_1" enable-background="new 0 0 512 512" height="512" viewBox="0 0 512 512" width="512" xmlns="http://www.w3.org/2000/svg"><g><path fill="#fff" stroke="#fff" d="m256 116c5.523 0 10-4.477 10-10v-40c0-5.523-4.477-10-10-10s-10 4.477-10 10v40c0 5.523 4.477 10 10 10z"/><path fill="#fff" stroke="#fff" d="m266 446v-40c0-5.523-4.477-10-10-10s-10 4.477-10 10v40c0 5.523 4.477 10 10 10s10-4.477 10-10z"/><path fill="#fff" stroke="#fff" d="m187.6 68.063c-5.19 1.889-7.866 7.627-5.977 12.817l13.68 37.59c1.883 5.173 7.61 7.872 12.817 5.977 5.19-1.889 7.866-7.627 5.977-12.817l-13.68-37.59c-1.889-5.189-7.628-7.867-12.817-5.977z"/><path fill="#fff" stroke="#fff" d="m324.4 443.937c5.19-1.889 7.866-7.627 5.977-12.817l-13.68-37.59c-1.889-5.19-7.629-7.866-12.817-5.977-5.19 1.889-7.866 7.627-5.977 12.817l13.68 37.59c1.883 5.173 7.61 7.872 12.817 5.977z"/><path fill="#fff" stroke="#fff" d="m311.583 74.04-13.68 37.59c-1.889 5.19.787 10.928 5.977 12.817 5.199 1.893 10.932-.797 12.817-5.977l13.68-37.59c1.889-5.19-.787-10.928-5.977-12.817-5.191-1.889-10.928.787-12.817 5.977z"/><path fill="#fff" stroke="#fff" d="m200.417 437.96 13.68-37.59c1.889-5.19-.787-10.928-5.977-12.817-5.191-1.891-10.928.788-12.817 5.977l-13.68 37.59c-1.889 5.19.787 10.928 5.977 12.817 5.199 1.893 10.932-.797 12.817-5.977z"/><path fill="#fff" stroke="#fff" d="m502 196h-55.995c-6.27-8.36-13.767-15.648-22.347-21.712-4.512-3.188-10.75-2.116-13.938 2.394s-2.116 10.75 2.394 13.938c8.061 5.698 14.929 12.744 20.415 20.941 1.856 2.774 4.974 4.439 8.311 4.439h51.16v80h-51.16c-3.337 0-6.455 1.665-8.311 4.439-14.9 22.267-39.771 35.561-66.529 35.561h-21.72c1.11-3.13 1.72-6.494 1.72-10 0-7.678-2.902-14.688-7.663-20 4.761-5.312 7.663-12.322 7.663-20 0-10.661-5.595-20.035-13.998-25.357 3.407-3.539 6.295-7.575 8.549-11.99 12.811 16.614 32.895 27.347 55.449 27.347 5.523 0 10-4.477 10-10s-4.477-10-10-10c-27.57 0-50-22.43-50-50 0-5.523-4.477-10-10-10s-10 4.477-10 10v20c0 13.038-8.359 24.159-20 28.287v-48.287c0-15.345 11.529-27.933 26.238-29.767 5.48-.684 9.369-5.68 8.686-11.161-.684-5.48-5.681-9.372-11.161-8.686-13.42 1.673-25.659 8.87-33.754 19.614h-20.009c-7.678 0-14.688 2.902-20 7.663-5.312-4.761-12.322-7.663-20-7.663h-20.02c-9.377-12.457-24.201-20-39.98-20h-30c-31.628 0-61.144 14.855-80.004 40h-55.996c-5.523 0-10 4.477-10 10v100c0 5.523 4.477 10 10 10h55.996c18.86 25.145 48.376 40 80.004 40h70c16.542 0 30-13.458 30-30 0-3.904-.758-7.633-2.121-11.057 4.562-1.244 8.695-3.536 12.121-6.606 3.425 3.07 7.558 5.363 12.121 6.606-1.363 3.424-2.121 7.153-2.121 11.057 0 16.542 13.458 30 30 30h70c31.628 0 61.144-14.855 80.004-40h55.996c5.523 0 10-4.477 10-10v-100c0-5.523-4.477-10-10-10zm-226 60c-5.514 0-10-4.486-10-10s4.486-10 10-10h10v20zm-50 0v-20h10c5.514 0 10 4.486 10 10s-4.486 10-10 10zm50-60.01h11.017c-.669 3.29-1.017 6.64-1.017 10.01v10h-10c-5.514 0-10-4.486-10-10s4.486-10 10-10.01zm-30 10.01c0 5.514-4.486 10-10 10h-10v-10c0-3.37-.348-6.72-1.017-10h11.017c5.514 0 10 4.486 10 10zm-166.529 94.439c-1.856-2.774-4.973-4.439-8.311-4.439h-51.16v-80h51.16c3.337 0 6.455-1.665 8.311-4.439 14.9-22.267 39.771-35.561 66.529-35.561h30c10.678 0 20.638 5.751 25.989 14.999 2.624 4.546 4.011 9.733 4.011 15.001v48.287c-11.641-4.127-20-15.249-20-28.287v-20c0-5.523-4.477-10-10-10s-10 4.477-10 10c0 27.57-22.43 50-50 50-5.523 0-10 4.477-10 10s4.477 10 10 10c22.554 0 42.638-10.733 55.448-27.347 2.254 4.415 5.143 8.451 8.549 11.99-8.402 5.322-13.997 14.696-13.997 25.357 0 7.678 2.902 14.688 7.663 20-4.761 5.312-7.663 12.322-7.663 20 0 3.506.61 6.87 1.72 10h-21.72c-26.758 0-51.629-13.294-66.529-35.561zm136.529 35.561h-20c-5.514 0-10-4.486-10-10s4.486-10 10-10h20c5.514 0 10 4.486 10 10s-4.486 10-10 10zm20-40h-40c-5.514 0-10-4.486-10-10s4.486-10 10-10h40c5.514 0 10 4.486 10 10s-4.486 10-10 10zm40-20h40c5.514 0 10 4.486 10 10s-4.486 10-10 10h-40c-5.514 0-10-4.486-10-10s4.486-10 10-10zm10 50c0-5.514 4.486-10 10-10h20c5.514 0 10 4.486 10 10s-4.486 10-10 10h-20c-5.514 0-10-4.486-10-10z"/><circle fill="#fff" stroke="#fff" cx="376" cy="166" r="10"/></g></svg>