<?xml version="1.0" encoding="utf-8"?>
<!-- Generator: Adobe Illustrator 23.0.1, SVG Export Plug-In . SVG Version: 6.00 Build 0)  -->
<svg version="1.1" id="Layer_1" xmlns="http://www.w3.org/2000/svg" xmlns:xlink="http://www.w3.org/1999/xlink" x="0px" y="0px"
	 viewBox="0 0 2475 1650" style="enable-background:new 0 0 2475 1650;" xml:space="preserve">
<style type="text/css">
	.st0{fill:#EBF3FA;}
	.st1{fill:#84CE9D;}
	.st2{fill:#FFFFFF;}
	.st3{fill:#F9F8DA;}
	.st4{fill:#EAE8C3;}
	.st5{fill:#2B478B;}
	.st6{fill:#4B9BEA;}
	.st7{fill:#DEE1CC;}
	.st8{fill:#42B093;}
	.st9{fill:#4BAE9A;}
	.st10{fill:#38958C;}
	.st11{fill:#142833;}
	.st12{fill:#E0684E;}
	.st13{fill:#EF9976;}
	.st14{fill:#164756;}
	.st15{fill:#1D4962;}
	.st16{fill:#102631;}
	.st17{fill:#EA5F5A;}
	.st18{fill:#E98969;}
	.st19{fill:#F2A88D;}
	.st20{fill:#194455;}
	.st21{fill:#CD39EF;}
	.st22{fill:#1E495A;}
	.st23{fill:#DB7B61;}
	.st24{fill:#35484F;}
	.st25{fill:#FFBE49;}
	.st26{fill:#F39C81;}
	.st27{fill:#5FBBA4;}
</style>
<g>
	<path class="st0" d="M2040.3,940.5c-52.7-63.3-113.4-124.6-192.9-155.5c-90.2-35-197.1-27.6-280.8-74.5
		C1471,657,1432.1,549.2,1378,458.5c-108.6-181.9-310.2-317.4-532.8-341C676.4,100.5,507.5,147.6,376.7,248v1086.7
		c0,48.5,42.3,87.7,94.5,87.7H2007c52.3-67.4,88.5-144.5,106-226c9-42,13.5-85.7,2.9-127.5C2103.8,1021.1,2072.7,979.4,2040.3,940.5
		z"/>
	<path class="st1" d="M1715.8,1374.6c-12.3-23.8-16.3-50.4-28.5-74.5c-2.6-5.9-6.8-11.2-12.2-15.1c-9.4-5.9-21.7-4.6-33.1-5
		c-30.1-1.9-56.9-18.3-70.6-43.3c-25-46.8,0.7-114.2-42.2-148c-24.8-20.2-62.5-18-84.3,5c-16.5,17.4-19.6,42.6-7.7,63
		c6.7,12.1,17.9,21.4,26.2,32.5c13.7,18.7,19,41.7,14.5,63.9c-5,23.7-20.8,48.4-9.9,70.3c13.1,26.6,56.8,30.3,70,56.6
		c14.2,28.5-15.2,67.6,7,91.3c6,5.7,13.3,10,21.4,12.8c34.4,13.9,79.7,21.1,105.4-4.3c7.4-7.4,12.3-16.9,20.6-23.5
		c20.9-16.9,73.2,2.9,78.6-15.7S1723.7,1390.1,1715.8,1374.6z"/>
	<path class="st2" d="M1017.4,429c9.8-46.4-22.7-91.5-72.8-100.7c-20.7-3.8-42.1-0.9-60.8,8.2c-25-60.5-60.2-127.6-127.4-145.4
		c-48.3-12.9-103.2,5.8-135.3,41.4c-25,27.8-37.3,63.6-34.4,99.7c-21.7-12.3-45.9-25.2-71.3-22.1c-36.6,4.1-61.1,46.7-44.5,77.2
		c-13.3-7-29.9-5.4-41.4,3.9c-10.9,9.2-8.3,22.6-2.2,35.3c172.2,0,345.7,2.5,518.3,2.5C949.9,429,1017,431,1017.4,429z"/>
	<path class="st0" d="M2086.7,419.5c-3.4-25.8-22.9-47.4-49.7-54.9c-26.8-7.4-56.2-2.3-81.2,9.5c-11.2-49.9-37-100-83.7-126.9
		c-46.7-26.9-116.8-21.7-147.3,20.7c-9.6-27-52-33.4-76.8-16.7c-24.8,16.6-33.7,47.5-33.4,75.9c-19-11.6-43.5-11.6-62.5,0
		c-24,14.3-48.2,58.6-28,83.5c17.4,21.6,59.8,11.7,84,10.1c62.5-3.8,125.8-1.4,188.3-1.4L2086.7,419.5z"/>
	<rect x="755.6" y="328.3" class="st3" width="1079.8" height="558.2"/>
	<rect x="781.4" y="366.1" class="st4" width="1028.2" height="78.6"/>
	<ellipse class="st5" cx="817.8" cy="402.2" rx="13" ry="12.1"/>
	<ellipse class="st2" cx="860.3" cy="402.2" rx="13" ry="12.1"/>
	<ellipse class="st6" cx="902.7" cy="402.2" rx="13" ry="12.1"/>
	<rect x="794.9" y="481.2" class="st7" width="466.2" height="206.8"/>
	<rect x="1300" y="481.2" class="st4" width="233.1" height="206.8"/>
	<rect x="1562.9" y="481.2" class="st7" width="233.1" height="206.8"/>
	<rect x="794.9" y="734" class="st4" width="1001.1" height="9"/>
	<rect x="794.9" y="766.1" class="st7" width="1001.1" height="9"/>
	<rect x="794.9" y="798.2" class="st4" width="1001.1" height="9"/>
	<path class="st8" d="M471.2,1422.5h908.4c-6.5-41-20.5-80.6-41.5-117.1c-31-52.3-81.5-96.3-142.9-113.4c-97-27-211.9,24.6-249,112
		c-8.9-94.3-22.3-194.4-86.9-267.8c-48.4-55.5-121.7-89-197.4-100.2s-153.8-1.4-227.1,19.5c-20.1,5.5-39.6,12.7-58.3,21.6v357.6
		c0,48.5,42.3,87.8,94.5,87.8C471,1422.5,471.1,1422.5,471.2,1422.5z"/>
	<path class="st9" d="M1776.6,1297.5c11.9-10.1,25.8-18.6,36.3-30.3c21.1-23,25.7-54.9,34.8-84c9.1-29,27.9-60,59.8-66
		c27.2-5,58.4,8.9,80.5-6.2c7.5-5.8,13.3-13.2,16.9-21.6c15.4-29.9,23.4-62.7,38.9-92.6c15.6-29.8,41.7-57.8,76.6-64.2
		c41.9-7.8,82.8,17.3,91.2,56.3c4.4,20.3-0.8,41.3-14.3,57.7c-11.2,13.8-27.2,23.2-41.9,33.8c-33.2,24.2-62.1,61.3-53.7,99.7
		c7.2,33,40.9,62.4,30.8,94.8c-11.7,37.2-66.9,39.8-101.6,61.4c-48.3,30.3-53.6,97.5-98.4,132c-40.3,31-138.8,35.7-176.5-1.5
		C1711.4,1423,1733.9,1334.2,1776.6,1297.5z"/>
	<path class="st10" d="M1065,1390.5c5-41.5,48.9-75.6,43.2-117c-4.9-35.3-43.1-56.8-66.5-85.1c-46-55.5-24.9-147.3,41.3-180.7
		c11.4-5.7,23.8-10.1,33.8-17.5c51.2-38.8,3.7-121,34.6-175.3c19.6-34.3,65.4-47.4,102.3-29.3c22.2,10.9,37.1,31.3,39.9,54.5
		c4.7,41.1-29.5,81.8-17.4,121.6c17.7,58.1,117.6,67.1,133.2,125.6c12.3,46.5-38.6,93.4-23.7,139.3c3.9,12.1,12.1,22.5,18.8,33.5
		c60.2,98.8-8.1,209.3-114.9,245.5C1213.7,1531.2,1054.1,1482.5,1065,1390.5z"/>
	<path class="st11" d="M1590.1,1287.7c-2,15.5-0.7,31.2-2.3,46.7c-3.8,35.3-22.5,69.8-14.4,104.5h113.8c-0.7-7.7,1.5-15.4,6.3-21.8
		c3-4,7.1-7.4,9.8-11.5c1.5-2.6,2.8-5.2,3.9-8l27.4-68.5c4.6,3.9,7.3,9.4,7.4,15.1c0.1,5.7-0.6,11.5-1.8,17.1
		c-3.6,25.6-4.4,51.5-2.5,77.3h5.4h91.3c5.8-39.8,24.4-76.5,36.2-115.2c10.9-35.3,14.6-72.2,10.9-108.8c0-2-0.7-3.9-2.1-5.5
		c-1.6-1.1-3.5-1.7-5.4-1.8c-66.4-8.4-134.4-17.3-201.4-8.6c-20.5,2.6-47.3,6.1-59.3,23.6C1601,1240.1,1592.8,1267.2,1590.1,1287.7z
		"/>
	<path class="st12" d="M1599.2,991.1c-1.2,10.1-6,21.1-0.8,30.3c6.6,11.3,25.6,13.3,30.1,25.2c0.6,2.7,1.5,5.4,2.6,8
		c1.4,2.5,4.9,4.3,7.4,2.8c1.1-0.8,1.9-1.8,2.4-2.9c10.9-20.9,10.5-45.4,9.3-68.3c-0.4-8.3-1.4-17.6-8.1-23.2
		c-7.5-6.3-30.2-10.9-39.5-6.8c-4.5,2.1-6.8,6.8-5.4,11.3C1599,975.2,1599.7,983.1,1599.2,991.1z"/>
	<path class="st12" d="M1910.8,1029.7c0.5,6.1,1.7,13.2,7.4,16.1c7.1,3.6,15.4-1.7,22.9-4.5c7.4-2.8,15.7-3.3,23.4-1.3
		c2.1,0.8,4.5,1,6.7,0.5c2.8-1.1,0-4.4,0-7.3c2.4-20.6,3.7-41.7-3.4-61.4c-0.9-2.9-2.4-5.7-4.4-8.1c-5.4-4.6-12.9-6.4-20.1-5
		c-10.9,1.1-33.1,7.5-36.9,18.5c-2.2,6.3,1.5,18.5,2,25.2L1910.8,1029.7z"/>
	<path class="st13" d="M1461,904.5c-8.1-1-16.2-1.1-24.3-0.5c-4.1,0.3-8.1,0.7-12.2,1.1c-2.9,0.3-7,0-7.9,3.1c-1.7,5.9,8,4.5,11.5,5
		c4.5,1,8.8,2.5,12.9,4.4c-1.6-0.8-8.4,1.4-10.4,1.7c-3.6,0.5-7.4,1-11.3,1.4c-7.8,0.8-15.7,1.2-23.6,1.4c-7.9,0.1-15.5,0-22.8-0.5
		c-2.1,0-20.8-5.3-19.6-0.7c0.3,0.7,0.8,1.3,1.5,1.7c10.3,6.8,21.6,12.1,33.6,15.7c14.8,4.9,30.3,7.7,46.1,8.2
		c17.3,0.6,35.5-1.4,51,5.7c17.2,8,26.6,25.2,36.2,40.6c18.3,29.4,41.1,56,67.8,79.2c5.5,5.8,12.9,9.7,21,11.2
		c12,1,22.8-8.8,25.2-19.7c1.7-11.2-1.1-22.5-7.9-31.9c-18.7-29.5-52.7-46-81.5-65.9S1499.8,909.6,1461,904.5z"/>
	<path class="st14" d="M1629.5,820.6c-6.6,3.2-12.6,7.5-17.5,12.7c-4.5,6.1-7.6,12.9-9.1,20.2c-8.5,29.4-15.2,59.2-20.1,89.2
		c-0.9,5.4-1.5,11.7,2.5,15.8c3.2,2.7,7.3,4.3,11.6,4.7l29.8,5.6c3.4,0.4,6.7,1.6,9.5,3.6c2.6,2.8,4.1,6.4,4.3,10.1
		c6.4,40.3-10.9,80.4-13.8,121c-1.6,22.1,1,44.8-5.9,66c-4.7,14.3-13.7,27.6-14.6,42.6c-0.4,2.8,0.2,5.5,1.5,8c1.7,2.2,4,3.9,6.6,5
		c18.7,9.4,38.6,16.7,59.2,21.7c13,3.2,29.2,4.7,38-5l1.5,16.4c53.1,3.8,106.3-4.1,155.4-23.2c6.9-1.8,12.7-6.1,16.3-11.8
		c1.2-3.2,1.7-6.7,1.5-10.1l0.8-179c-0.6-21.8,0.9-43.5,4.7-65c6.7,0.3,1.7,13.7,8.2,15.1c1.2,0.2,2.4,0.1,3.5-0.3l71-16.2
		c-0.8-4.4-2.4-8.7-4.6-12.7c-15.9-36.2,3.9-80.7-16.6-115.1c-23.7-39.5-86-41.5-120.2-73.8c-3.9-4.4-8.4-8.2-13.5-11.3
		c-9.2-4.7-20.4-2.9-30.7-0.9c-24.9,4.2-49.1,11.6-71.9,21.9C1687.3,790.1,1658.1,804.8,1629.5,820.6z"/>
	<path class="st12" d="M1721,772.3c-0.9,1.5-1.2,3.3-1,5c0.6,1.6,1.7,3,3.2,4c12,10.1,25,20.7,41,22.6c21.3,2.6,41.1-11,55.2-26.1
		c3.2-3,5.5-6.6,6.9-10.5c1.3-4.1-0.4-8.5-4.1-11c-1.6-0.6-3.1-1.4-4.5-2.4c-0.9-1.2-1.3-2.6-1.2-4.1l-4.4-54.9
		c-7.3,0-13.2,5-19.2,8.7c-16.3,10.1-37.1,11.3-54.3,20.2C1720.4,733.3,1728,755.5,1721,772.3z"/>
	<path class="st13" d="M1689,624.2c2,11.4,8,22.6,6.1,34.1c-1.2,7.6-6,14.6-6.6,22.3c-0.5,7.7,6.6,16.8,14.4,14.2
		c4.4,18.7,15.6,35.5,31.6,47.7c5.6,4.6,12.3,7.9,19.5,9.8c19.9,4.5,40.5-8.4,50.1-25.2c9.6-16.8,10.9-36.5,11.8-55.5l8-1
		c5.5-7,3.8-16.8-3.7-21.9c-1.6-1.1-3.4-1.9-5.3-2.4c0.2-12.4-1.8-24.7-5.8-36.5c-4.1-11.9-13.6-21.6-25.9-26.6
		c-8.5-2.5-17.6-3.2-26.5-1.9C1731.5,583.8,1683.3,591.5,1689,624.2z"/>
	<path class="st15" d="M1692.5,670.4c1.2,0.8,2.7,1.7,4,1.2c1-0.5,1.7-1.4,2-2.4c5.3-12.6,6.2-26.3,2.7-39.4
		c-2.4-8.8-5.9-20.2,1.8-25.2c3.1-1.8,6.7-2.8,10.3-2.8c13.7-0.9,27.9,1,40.8-3.1c6.2-2,12-5,18.3-7c6.3-2.2,13.3-1.3,18.7,2.5
		c3.2,3.4,5.3,7.5,6.1,11.9l12.7,44.8c0.7,2.4,3.1,5.3,5.1,3.8c-1.8-8.9,6.4-16.6,9.1-25.2c1.1-4.4,1.4-8.9,0.7-13.3
		c-3.5-28.6-27.2-55-57.9-59.8c-9.9-1.2-19.9-1.2-29.8,0c-14.1,1.3-29.1,3.7-39.7,12.6c-8.7,8.4-14.4,19.1-16.3,30.7
		c-3.1,13.9-4.1,28.1-2.9,42.3C1679.7,655.4,1680.6,662.3,1692.5,670.4z"/>
	<path class="st13" d="M1922.3,1163.8c5.9,37.9,12.3,78.7-6.4,112.8c-4.6,8.3-10.5,16-15,24.4c-11.3,21.1-12.5,45.4-13.5,69.1
		c4.7,2.4,10.9-1.6,12.5-6.3c1.2-4.9,1.6-9.9,1.4-14.9c-0.1-5.1,3-9.8,7.9-12c1.2-0.5,2.6-0.5,3.8,0c1.4,1,2.2,2.5,2.3,4.1
		c3.6,19.4-6.5,38.8-25.2,48.3c-2.1,1.6,1.7,4,4.4,3.8c20.5-1.7,39-12,50.1-28.1c10.8-16.1,14.8-35.3,11.1-54
		c-1.9-10.1-5.8-20.9-1.6-30.3c1.5-3.3,3.8-6.2,5.4-9.4c2.4-5.7,3.8-11.8,4.1-17.9c3.9-34.3,13.3-67.9,18.1-102.1
		c4.9-34.2,7.9-70-5.9-102c-2.4-5.7-4.1-11.7-5.1-17.7c-1.3-6.6-4-12.9-8-18.5c-3.8-4.6-9.7-7.3-15.9-7.4c-38.6-3-34.2,37-33.6,60.9
		C1914.3,1099.3,1917.3,1131.7,1922.3,1163.8z"/>
	<path class="st16" d="M815.1,1436.7c2.9,1.8,6.4,2.6,9.8,2.2h109.7c-2.1-18.4-3.3-38,5.4-54.7c1.8-3,3.3-6.2,4.5-9.4
		c2.3-7.5,0-16.9,6-22.3c2.9,3.5,4.4,7.9,4.3,12.3c1.9,21.6,0.9,43.4-3,64.8c-0.8,3.1-0.6,6.3,0.7,9.3H1072
		c3.1-19.2,4-38.7,7.1-57.9c8.7-54.4,17.4-109.3,12.2-164c0-1.9-0.6-3.7-1.6-5.3c-2.9-3.7-9-2.4-13.7-1c-19,5.6-39.2,6.1-59,6.9
		c-36.8,1.6-73.6,4.6-110.2,8.3c-17.9,1.8-35.8,3.8-53.7,5.8c-10.9,1.3-36.3-0.6-43.5,8.9c-7.2,9.5-2.4,31.1-2.6,41.3
		c-0.3,17.5-0.2,35,0.3,52.5c0.5,17.5,1.5,35,2.8,52.4C810.6,1393.9,809.3,1433.2,815.1,1436.7z"/>
	<path class="st17" d="M760.2,798.3c-6.8,3.1-13.1,7.1-18.7,11.8c-6.7,6.9-12.1,14.7-15.9,23.3l-42.8,82.5
		c-4.5,4.5-4.2,11.5,0.7,15.7c2.1,1.8,4.8,2.8,7.7,2.9l50.5,15.1c5,2,10.5,2.7,15.9,2.2c5.6-0.7,9.6-5.3,9.3-10.5
		c7.1,26.5-3.7,55.1,4.2,81.4c8.6,28.7,38.9,53,32.9,82.3c-2.4,8-5.4,15.9-8.9,23.6c-9,26.4,2.3,54.9,1.2,82.6
		c-0.5,13.2-3.4,27.7,4.7,38.6c5.7,7.6,15.6,11.4,25,14.6c56.9,19.4,121.1,31.4,177.3,10.1c18-7.4,35-16.5,50.9-27.3
		c21.7-13.7,45-31.1,47-55.5c1-12.4-3.9-24.4-6-36.6c-2.7-15.7-0.8-31.8-1.4-47.7c-1.2-31.6-12.2-62.1-20.4-92.8
		c-8.1-30.7-13.3-63.5-3-93.7c2.4,5.4,6.8,9.8,12.4,12.4c24.4-13.6,46-31,63.9-51.6c2.4-2.2,3.8-5.1,4.1-8.2c-0.3-2.6-1.4-5-3.2-7
		l-14.8-20.2c-6.8-9.4-13.7-18.8-21.7-27.5c-20.2-22.7-46-40.6-75.2-52.1c-8.8-3.4-17.9-6.3-27.2-8.7c-45.6-12-88.8-9.4-135-3.4
		C833.9,760.4,795.8,780.3,760.2,798.3z"/>
	<path class="st18" d="M854.3,773.5c13.4,10.1,27.6,19.3,42.4,27.5c6.7,3.7,14.7,7.3,22,4.7c4.8-2.2,8.8-5.7,11.3-10.1
		c5.5-7.7,10.5-15.7,14.8-24c2.4-4,3.9-8.3,4.5-12.9c0.1-4.4-0.7-8.7-2.2-12.9l-9-30.7c-0.1-2.5-2.4-4.4-5.1-4.3c-0.1,0-0.2,0-0.3,0
		c-18.7-0.9-61.1-10.1-73.9,7.6C852.1,727.8,846.6,767.7,854.3,773.5z"/>
	<path class="st19" d="M838.4,659.3c0.4,3.5-0.4,7-2.2,10.1c-1.5,1.5-3.2,2.9-4.9,4.2c-5.4,5.6-4.8,14.1,1.1,19.1
		c0.8,0.6,1.6,1.2,2.5,1.7c3.1,1.4,7,1.8,9.1,4.3s1.5,7.5,1.2,11.3c-1.2,15.4,12.7,27.9,25.5,37.8c8.3,6.4,17.4,13.1,28.2,13.5
		c14.9,0.5,26.7-11.2,36.2-21.9c7.3-7.3,13.3-15.6,17.9-24.7c4.1-11,6-22.6,5.7-34.3l2.2-57.7c0.3-8.4,0.4-17.5-5-24.3
		c-3.7-4.1-8.6-7.3-14-9.1c-24.2-9.4-59.8-8.1-80.8,8.2C844.9,610.4,838.8,640.8,838.4,659.3z"/>
	<path class="st20" d="M809.7,684.7c-6.3-10.1-19.7-16.1-24.2-27.1c-2.7-6.5-1.8-13.7-3.4-20.5c-2.9-12.6-14-25.2-8.5-37
		c2.7-5.8,8.8-9.6,13.1-14.5c4-5.7,7.6-11.6,10.9-17.6c9.2-13.7,25-22,40.1-29.8c6.6-3.9,14-6.7,21.7-8.1c6-0.1,12-0.6,18-1.3
		c11.3-2.6,20-12.8,31.6-12.8c11.6,0.1,20.9,11.6,32.6,15.9c8.4,3.1,18.7,2.5,25,8.3c6.4,5.8,5.8,16,10.9,23.3
		c7.9,11.9,29.4,15.1,31,29c1,8.1-6,15.1-7.3,23.3c-1.9,12.1,8.9,25.2,2.2,35.8c-2,3.1-5.4,5.4-7,8.7c-3,5.7-0.4,12.7-1.7,18.9
		c-2.9,13.4-21.2,17.3-35.9,18.5l2.5-52.3c0.6-5.3,0.1-10.7-1.4-15.9c-3.5-7.3-9.2-13.6-16.3-18.2c-7.9-6.2-16.8-12.6-27.2-12.3
		c-5.9,0.7-11.7,2-17.2,3.9c-8.7,2.1-18,1.9-26.3,5s-15.2,12.2-11.4,19.7c1.7,2.2,3,4.7,3.9,7.4c0.7,5.9-7.3,8.8-12.2,12.6
		c-8.4,6.5-2.3,26.4-0.5,38.8c-7.2-4.1-12.2-14.1-19.2-10.6c-14.9,17.7,18.1,15.1,12.9,31.4C839.9,725.4,812.5,689.8,809.7,684.7z"
		/>
	<path class="st21" d="M634.6,1033.2c18.1-1.9,35-17.1,53.2-17.7c18.2-0.6,37.5-5,49.7-17.4c6.9-8.1,12-17.3,15.2-27.1
		c4.1-8.5,6.3-17.6,6.5-26.9c-0.4-8.1-40.8-15.1-47.4-15.7c-14.9-1.5-24.1,0-35.1,9.3C652.9,957.7,632.2,996.4,634.6,1033.2z"/>
	<path class="st19" d="M1175.2,941.8c10.2-15.9,26.8-28.8,31.7-46.7c1.7-8.3,2.4-16.8,2.1-25.2c1.4-54.4,28.1-105.9,61.1-150.7
		c0.7-1.2,1.8-2.1,3.1-2.5c3.4-0.7,4.8,4,4.3,7.2c-2.2,13.5-9.8,25.7-17.1,37.7c-2.4,4-4.7,9.4-1.4,12.9c5.4,5.9,18-2.9,24.2,2.6
		c5.4,4.6-0.7,13.8,3.6,19.2c1.4,1.4,2.9,2.7,4.6,3.8c4.4,4.4,7.1,10,7.8,15.9c0.7,2.4,1,5,0.7,7.5c-1.6,7.7-11.8,10.4-20.2,11.5
		c1.3,9.6-2.8,19.1-10.9,25.2c-4.9,3.6-11.3,5.9-14.5,11c-2.5,5.6-3,11.8-1.4,17.6c6.4,43.6-0.9,88-21.1,127.8
		c-1.2,2.9-3.1,5.6-5.4,7.9c-16.3,13.7-43.9-1-52.5-15.1C1161.6,988.1,1162.2,962.6,1175.2,941.8z"/>
	<g id="SvgjsG1681">
		<path class="st2" d="M892,925.8c-1.3,0.2-2.7-0.3-3.5-1.3l-23.3-31l-6.8,24.2c-0.3,1.3-1.4,2.2-2.7,2.4c-0.5,0.1-1,0.1-1.5,0
			c-1.3-0.3-2.4-1.3-2.6-2.6c-0.1-0.5-0.1-0.9,0-1.4l8.7-31c0.3-1.2,1.4-2.2,2.8-2.4c1.4-0.2,2.7,0.3,3.5,1.4l27.6,36.7
			c0.3,0.4,0.4,0.8,0.5,1.3c0.3,1.3-0.2,2.6-1.4,3.3c-0.4,0.3-0.9,0.5-1.4,0.6L892,925.8z M852.2,932.3c-0.9,0.2-1.9,0-2.6-0.6
			c-1.6-1-2-3.1-0.9-4.5l0,0c1.1-1.5,3.3-1.8,4.9-0.8c1.6,1,2,3.1,0.9,4.5l0,0C854,931.6,853.1,932.1,852.2,932.3z M905.9,923.5
			c-1.9,0.2-3.6-1-3.9-2.7l0,0c-0.7-2.9-0.7-5.9,0-8.9c0.6-2.2,1.7-4.3,3.2-6.1c1.4-1.6,3.1-2.9,4.9-4c1.8-1,3.6-1.9,5.4-2.8
			c2.6-1,5-2.5,7.1-4.3c1.5-1.9,2-4.3,1.4-6.6c-0.3-2.8-2.3-5.2-5.1-6.4c-2.2-0.9-4.5-1.1-6.8-0.7c-2.3,0.4-4.5,1.4-6.2,2.9
			c-2.2,2-3,4.8-2.3,7.6c0.6,1.7-0.5,3.6-2.3,4.1s-3.8-0.4-4.4-2.2c-0.1-0.3-0.1-0.5-0.2-0.8c-0.7-2.9-0.3-6,0.9-8.7
			c1.2-2.5,3.1-4.6,5.4-6.2c4.7-3.1,10.7-4.1,16.3-2.7c2.8,0.7,5.4,2.1,7.4,4c2.2,2.2,3.7,4.9,4.1,7.9c1.1,4.2,0,8.7-3,12.1
			c-1.2,1.3-2.7,2.4-4.2,3.3c-1.6,0.9-3.2,1.7-4.8,2.5c-2.1,0.9-4,2-5.9,3.2c-1.6,1.1-2.9,2.6-3.6,4.3c-0.7,2.4-0.7,4.9,0,7.3
			c0.2,1.8-1.1,3.4-3.1,3.7c-0.1,0-0.1,0-0.2,0V923.5z M933.1,919c-1.9,0.3-3.7-0.9-4.1-2.6l0,0c-0.2-0.9,0-1.8,0.5-2.5
			c1.1-1.5,3.3-1.8,4.9-0.8l0,0c0.8,0.5,1.3,1.3,1.5,2.1C936.2,917,935,918.7,933.1,919L933.1,919z M962,914.2
			c-1.8,0.3-3.6,0.4-5.4,0.4c-4.2,0-8.2-1.3-11.6-3.5c-0.7-0.5-1.2-1.2-1.3-2v-0.8c0-0.7,0.3-1.3,0.8-1.8c0.6-0.7,1.4-1.1,2.3-1.3
			h0.8c0.7,0,1.4,0.3,1.9,0.8c2.2,1.4,4.9,2.1,7.6,2.1c1.3,0,2.5,0,3.8-0.3c1.6-0.3,3.2-0.8,4.7-1.5c3-1.1,4.7-4,4.1-6.9
			c-0.3-1.5-1.4-2.8-2.9-3.3c-2.9-0.9-6-1.4-9.1-1.5c-2,0-4.1-0.2-6.1-0.6c-6.3-0.1-11.7-4.3-12.9-10.1c-0.9-4,0.4-8.1,3.5-11
			c3.1-2.8,7.1-4.5,11.4-5c0.9-0.1,1.9,0.1,2.7,0.6c0.8,0.5,1.3,1.3,1.4,2.1c0.2,0.8-0.1,1.7-0.6,2.4c-0.5,0.7-1.4,1.2-2.3,1.3h-0.4
			c-2.2,0.4-4.3,1.2-6.1,2.4c-1.8,1.1-2.8,3-2.8,5v0.9c0.3,1.8,1.6,3.3,3.4,3.9c3,0.9,6.2,1.5,9.4,1.5c2,0,3.9,0.2,5.8,0.6
			c6,0,11.2,4,12.4,9.5c0,0.5,0,1,0,1.5c0.3,5.2-2.8,10.1-7.9,12.4c-2.1,1-4.4,1.8-6.8,2.2L962,914.2z M968.3,876.6
			c-1.9-0.1-3.4-1.7-3.3-3.5c0.1-1.2,0.9-2.3,2.2-2.8c0.9-0.2,1.9,0,2.7,0.5c1.6,1,2,3.1,0.9,4.5c-0.6,0.6-1.4,1-2.3,1.1
			L968.3,876.6z M1005.9,906.9c-1.4,0.2-2.8-0.4-3.5-1.5l-17.6-26c-0.2-0.4-0.4-0.8-0.5-1.2c-0.1-0.4-0.1-0.8,0-1.2
			c0.2-0.9,0.8-1.6,1.6-2.1c0.4-0.2,0.8-0.4,1.3-0.5c1.4-0.3,2.8,0.3,3.5,1.5l12.9,19.2l8-35c0.2-1.3,1.4-2.4,2.8-2.5
			c0.4-0.1,0.9-0.1,1.4,0c1.4,0.2,2.5,1.3,2.7,2.6c0.1,0.4,0.1,0.8,0,1.3l-9.8,42.9C1008.4,905.6,1007.3,906.6,1005.9,906.9
			L1005.9,906.9z M980.8,869.7c-0.9,0.2-1.9,0-2.7-0.5c-1.6-1-2-3.1-0.9-4.5c0.5-0.7,1.4-1.2,2.3-1.4c1.9-0.3,3.8,0.9,4.1,2.6
			C984,867.8,982.7,869.5,980.8,869.7L980.8,869.7L980.8,869.7z"/>
	</g>
	<path class="st19" d="M721.1,985.4c10.8-0.2,21.6-1.4,32.2-3.5c12.9-3.4,24-11,35.4-17.5c41.3-23.6,90-34.7,129.5-60.9
		c9.3-6.2,18-13.1,27.8-18.5c11.7-5.9,24.1-10.7,36.8-14.3c2.8,2.9,2.8,7.2,0,10.1c-2.9,2.7-6.3,4.8-10.2,6.1
		c-11.8,5.6-21.9,13.9-29.4,24.1c-2.4,2.7-3.8,6.1-4,9.6c-0.1,3.6,2.9,6.7,6.8,7.1c5.2,0.2,9.9,3,12.3,7.3c2.3,4.3,3.7,8.9,4.1,13.6
		c1.5,6.5,1.2,13.3-1,19.6c-2.4,6.5-9.4,10.4-16.7,9.5l-1.4-7.8l-10.9,7.1c-4.2,3.1-9.1,5.2-14.3,6.2c-5.5,0.8-10.7-2.3-12.2-7.3
		c-0.8-4.2-6.8-5.7-11.2-4.5c-4.5,1.3-8,4.3-12.4,5.6c-12,3.8-26-5.4-37.5-0.4c-3.8,1.9-7.1,4.6-9.7,7.8
		c-20.9,22.1-42.4,43.5-64.8,64.4c-15,14.1-32.1,28.6-53.2,30.9c-10.9,1.2-23.3-1-32.9,4.3c-7.1,3.9-13.1,11.7-21.2,10.1
		c-4.6-1.4-8.5-4.4-10.9-8.3c-12.6-15.9-23.9-48.4-13.3-68.1C650.9,995.4,697.3,987.3,721.1,985.4z"/>
	<path class="st18" d="M1134,989.8c19.2,18.8,45.7,34.1,73.4,31.2c1-22.1,0.1-44.2-2.9-66.2c-0.5-6.2-2.2-12.2-5-17.8
		c-3.7-5.4-8.2-10.3-13.6-14.4c-11.9-10.2-22.6-21.5-31.9-33.8c-2.4-4-5.8-7.5-9.9-10.1c-9.5-5-20.9,1.1-29.7,7
		c-15,10.1-39.7,28.8-28.5,48C1097.1,952.7,1117.7,973.8,1134,989.8z"/>
	<path class="st22" d="M673.5,747.7c-5.4,6.4-13.2,10.1-19.2,15.9c-8.4,8-12.2,19.3-10,30.3c0.4,2.2,1.2,4.2,2.5,6.1
		c4.1,5.6,12.5,6.5,19.8,6.7c14.3,0.3,28.6-0.4,42.9-1.9c1.3,0,2.6-0.5,3.5-1.4c0.4-0.8,0.6-1.6,0.5-2.5c-1-8.2-3.8-16-8.3-23.1
		c-3.3-6.8-7.3-13.2-12.1-19.2c-3.3-3.8-7.2-7.2-10.9-10.7C678.4,744.2,677.3,743.1,673.5,747.7z"/>
	<path class="st23" d="M616.3,1212.5c35.1,3.9,71.5-8.1,99.8-36.9c1.7-1.6,3-3.5,3.6-5.7c0.4-2.5,0.1-5.1-0.8-7.6
		c-7-21.7-25-32-41.7-37.9c-34.3-12.3-71.8-14.8-107.7-7c-17.4,3.8-62.7,26.2-38,56.1C551.7,1198.1,590.2,1209.6,616.3,1212.5z"/>
	<path class="st24" d="M684.4,1166.1c18.1-0.6,36.2-1.7,54.3-3.6c5.7-1.2,11.6-0.6,16.8,1.8c7.1,4.4,7.3,13.8,7.4,21.7
		c0.3,47.7,23.3,93.5,23.5,141.2c0,37.5-13.6,73.7-18.4,110.9c-1.8,0.5-3.6,0.8-5.4,0.9H637.6c-1.5-14.3-0.8-28.8,2.3-42.9
		c2.6-9.2,4.4-18.5,5.4-27.9c0.9-9.5-2.5-19-9.5-26c-2.9-2.6-7.8-4.5-10.9-2.1c-1.4,1.4-2.4,3.1-2.7,5c-3.3,13.4-4.3,27.1-3,40.8
		c0.9,18,3.8,35.8,8.7,53.2H476.4c-1.5-36.5-16-71.5-18.1-108c-1-29.3,3.8-58.4,14.3-86c7.9-22.4,16.7-54.6,33.7-72.8
		c15.8-16.9,50.5-7.7,71.3-6.9C613.2,1166.8,648.8,1167.3,684.4,1166.1z"/>
	<path class="st25" d="M470.5,851.4c-11.3,5.6-22.8,12.4-28.6,22.9c-5.9,10.6-5.1,22.5-4.3,34.1c1.1,17.1,2.3,34.2,3.5,51.3
		c0.5,15.2,2.6,30.3,6.5,45c7.2,24.1,23.4,46.3,24,71.3c-0.6,7.7-0.6,15.4,0,23c0.8,7.8,6.3,14.6,14.3,17.3c4.6,1.1,9.6,0,14.1,1.6
		c8.6,2.6,12.1,12.5,11.4,20.9c-0.7,8.4-4.8,25-5,33.4c21.5-21,246.1,1.9,280.3,20.7l-3.8-46c-0.7-8.4-1.7-17.4-7.8-23.5
		c-3.2-3.1-7.7-5.6-8.5-10.1c-1.5-7.1,7.9-11.5,15.5-13.4l39.3-9.5c3.7-0.6,7.1-2.1,10-4.2c2-2,3.5-4.4,4.3-7.1
		c12.8-33.2-3.4-69.1-12.8-103.3c-13.6-49.2-13.5-102.3-37.6-147.9c-3.3-6.2-5.4-16.6-12.8-17.7c-11.4-1-22.7-2.6-33.9-4.7
		c-36.2-7.4-74.3,1.6-111.4,2.4c-25.8,0.6-49.2,8.1-74,13.9C524.4,828.4,496.6,838.4,470.5,851.4z"/>
	<path class="st23" d="M550.4,821.5c38,23.2,84.2,31.8,128.9,24c12.7-2.5,25.1-5.9,37.3-10.1c19.8-6.1,21.9-16.5,39.3-27.2
		c-32.4-6.5-48.9-6.9-82-5.2c-8.1,0.4-17.6,0.5-22.5-5.5c-2.8-4.6-4-9.9-3.7-15.1c-1.5-18.1-38-73.2-60.6-47.7
		c-9.6,10.7-3.3,32-6.8,44.9C576.1,796.3,565.4,811.2,550.4,821.5z"/>
	<path class="st26" d="M552.1,689.4c-4.9,7.7-2.7,17.7,5.1,22.9c3.7,2.3,8.5,3.5,10.9,6.9s1.7,9.1,1.8,13.9
		c0.4,16.8,17.2,28.8,32.6,37.6c7.9,4.9,16.5,8.6,25.6,10.9c9.3,2.3,19.3,0.7,27.2-4.4c4-3.2,7.3-7.1,9.7-11.4
		c22.3-36.3,24-80,25-121.8c0.5-5.3-0.1-10.7-1.9-15.8c-4.2-10.1-16.3-15.1-27.2-17.6c-17.3-4.6-35.8-4.4-53,0.7
		c-17.3,5.3-30.8,17.9-36.6,33.9c-4.6,14.7,0,30.5-4.7,45.1C562.1,688.9,557,688.5,552.1,689.4z"/>
	<path class="st22" d="M592.8,629.5c-11.2,13-18,28.8-19.3,45.4c0.1,4-1,7.9-3,11.4c-1.3,2.1-1,4.2-3.6,3.8
		c-10.9-1.6-12.5,1.9-11.7,11.5c0.7,8.3,9.3,10.4,12.6,15.1c13,16.7,19.3,37.1,18,57.7c-1.4,21.4-14,40.3-22.7,60.5
		c-8.7,20.2-13.4,44.1,0,61.6c-6.3-1.9-10.3-7.8-9.5-13.9c-9.8,19.2,10.9,40.3,11.7,61.4c0.8,19.4-15,38.2-9.3,56.9
		c-12.4-5.5-20.2-17.1-20.2-29.8c-14.5-0.3-27.6-8.4-33.5-20.7c-3.3-8.2-2.1-17.3-2.8-26.1c-0.7-8.8-4.1-18.5-12.7-22.2
		c-2.3-0.7-4.4-1.7-6.5-2.8c-3.7-3.6-4.6-8.9-2.3-13.4c2.3-4.4,4.1-8.9,5.4-13.6c0.2-4.2-0.3-8.4-1.3-12.5
		c-2.3-15.1,3.3-29.8,8.7-44l-10,13.7c6.8-10.5,1.5-24.1,3.2-36.4c2.1-16.1,16.3-29,19.1-44.9c1.9-10.4-1.1-21-3.1-31.4
		c-5-26.7-1.1-57.4,20.9-75.1c5.7-3.8,11-8,15.9-12.7c6.7-7.9,8-18.6,13.2-27.4c9.1-15.4,28.8-22.8,47.6-25.2
		c15.9-2.5,32.2-0.5,46.8,5.7c13.3,6.3,26.5,20.2,25.2,34.8c-15.1,3.7-24.4-4.4-38-5.5S601.7,620,592.8,629.5z"/>
	<path class="st22" d="M685.6,652.4c-0.5,22.6-2.8,45.1-7.1,67.4l-4.3,26.6c-1.2,11.8-4.5,23.4-9.7,34.3c-3.6,6.6-8.7,12.9-9.2,20.2
		l51.3,3.3c2.3,0,4.6,0.4,6.8,1.3c1.1,0.5,2.2,1.3,3.4,1c0.8-0.3,1.5-0.9,1.8-1.7c5.4-9.7-2-21.2-3.9-32.1s1.5-21.1,0.3-31.7
		c-1.2-10.5-7.8-22-6.4-33.2l6.7,14.9c-0.3-11-6.5-21-8.5-31.9c-0.8-5.3-1.1-10.6-0.8-15.9l0.4-30.5c0.6-7.9-0.4-15.9-2.9-23.5
		c-3.2-7.4-9.3-13.4-17-16.8c-5.4-2.4-20.9-6.3-23.4,1.8c-2.2,7,10.2,13.2,14,17.3C684.7,631.2,685.6,642.3,685.6,652.4z"/>
	<path class="st26" d="M694.2,1015.4c4.8-0.1,9.5-1,14-2.7c3.8-1.8,7.2-4.2,10.1-7c7.8-6.8,15.2-14,22.2-21.6
		c6.1-6.6,12.2-15.1,9-23.4c-1.3-2.2-2.1-4.6-2.6-7c0.6-3.5,2.9-6.5,6.2-8.2c12.5-8.7,26-16.2,40.2-22.3c1.8,2.5,1.8,5.8,0,8.3
		c-1.8,2.4-4.1,4.5-6.8,6.1l-14,9.5c-3.7,2.5-7.8,5.8-7.4,10.1c1,3.9,4.7,6.8,9,7c4.2,0.1,8.4-0.3,12.5-1.2
		c16.8-1.7,33,6.3,40.8,20.2c-0.9,3.1-5.9,2-8.9,0.3c-10.4-6.1-22.5-11.5-34.5-9.3c-2.6,0.5-5.4,2.8-4,4.7c1.8,0.4,3.6,0.6,5.4,0.6
		c1.8,0.3,3.6,0.7,5.4,1.2c4.4,2.1,8.7,4.4,12.7,7.2c5.6,3,10.3,7.3,13.7,12.5c2.1,2.2,4,4.6,5.4,7.2c0.7,1.6,1.3,3.3,1.7,5
		c0.4,1.7,0.4,2.4-1.6,2.7c-1.4,0.1-2.8,0-4.1-0.4c-2.6-0.8-5-2.1-7.1-3.8c-3.3-3.4-7.5-5.7-12.3-6.9c3.3,2.3,6.3,4.8,9.2,7.5
		c1.1,1.1,10.9,8,5.4,9.1c-2.5,0.2-5,0-7.4-0.9c-3.2-0.9-6.2-2.3-9-4c-5.3-3.8-11-7-17-9.7c-2.9-1-6-1.4-9.1-1.1
		c-16.3,2.2-21.2,26.2-37.5,27.6c-3,0-6-0.4-9-0.4c-4.7,0.2-9.4,1.2-13.9,2.8c-25.5,7.1-51.5,12.9-77.7,17.4
		c-4,1.1-8.3,0.5-11.6-1.8c-10.9-5.5-24.2-11.2-33-19.7c-12.2-11.8,11.2-11.6,19.1-11.6C636.9,1019,665.6,1017.7,694.2,1015.4z"/>
	<path class="st8" d="M988.9,1454.9c-53.8-105-52.8-227.1,2.8-331.4c73.1,35,114.8,112.7,118.7,189c2.8,55.5-12.1,110.6-34.8,161.7
		C1045.5,1542.2,1017.3,1508.8,988.9,1454.9z"/>
	<path class="st27" d="M1063.1,1361.4c13.5-54.4,27.8-110.5,63.4-155.5c22.8-28.7,53.2-51.4,83.2-73.7l97.5-72.3
		c13.4,87.2,3.3,178.5-37.2,258.1c-30.8,61.5-80.2,113.4-142.1,149.4c-24,13.7-62,41-82.4,15.1
		C1027.8,1459.6,1057.2,1385.6,1063.1,1361.4z"/>
	<path class="st27" d="M514.3,1488.2c-53.3-25.8-108.2-52.8-146.1-96.3c-24.2-27.7-40.1-60.5-55.8-93.3L261.7,1193
		c94.2,10.1,186.9,42.1,259.7,98.6c56.2,43.2,97.9,100.5,119.9,165.1c8.2,25.2,27.2,66.1-5.4,77.7
		C607.7,1544.8,538,1499.6,514.3,1488.2z"/>
	<path class="st1" d="M533.5,1472.2c-32.2-31.8-65.2-64.8-81-105.9c-10.2-26.2-12.7-54.4-15.2-82.1c-2.8-30.1-5.4-60.1-7.9-90.2
		c66.7,29.9,126.1,75.6,164.1,134.8c29.4,45.4,44.1,97.6,42.3,150.6c-0.9,20.2,1.6,55.2-25.4,56.1
		C586.9,1536.3,547.8,1486.3,533.5,1472.2z"/>
	<g id="SvgjsG1681-2">
		<path class="st2" d="M1720.2,934c-1.4,0-2.6-0.7-3.2-1.9l-17.1-34.2l-11.3,22.9c-0.5,1.2-1.8,1.9-3.2,1.9c-0.5,0-1-0.1-1.5-0.4
			c-1.3-0.5-2.1-1.6-2.1-2.9c0-0.5,0.1-1,0.4-1.4l14.4-29.1c0.5-1.2,1.8-1.9,3.2-1.9c1.4,0,2.6,0.8,3.2,1.9l20.3,40.3
			c0.2,0.5,0.3,0.9,0.3,1.4c0.1,1.3-0.7,2.5-2,3c-0.5,0.2-1,0.3-1.5,0.3L1720.2,934z M1679.7,934c-0.9,0-1.8-0.3-2.5-1
			c-1.3-1.3-1.3-3.3,0-4.6l0,0c1.4-1.2,3.6-1.2,4.9,0c1.3,1.3,1.3,3.3,0,4.6l0,0C1681.5,933.6,1680.6,934,1679.7,934L1679.7,934z
			 M1734.1,934c-2,0-3.5-1.5-3.5-3.3l0,0c-0.1-3,0.4-6,1.6-8.7c1-2.1,2.4-4,4.3-5.4c1.6-1.3,3.5-2.4,5.4-3.2
			c1.9-0.7,3.8-1.3,5.8-1.9c2.8-0.6,5.4-1.6,7.8-3.1c1.8-1.6,2.8-3.9,2.6-6.2c0.2-2.8-1.2-5.5-3.7-7.1c-1.9-1.2-4.2-1.8-6.6-1.8
			c-2.4,0-4.7,0.6-6.6,1.8c-2.5,1.6-3.9,4.3-3.7,7.1c0.2,1.8-1.1,3.4-3.1,3.7c-1.9,0.2-3.7-1.1-3.9-2.8c0-0.3,0-0.5,0-0.8
			c-0.1-3,0.8-6,2.6-8.5c1.7-2.2,3.9-3.9,6.5-5c5.2-2.3,11.3-2.3,16.6,0c2.6,1.1,4.9,2.9,6.5,5c1.8,2.5,2.7,5.5,2.6,8.5
			c0.3,4.4-1.8,8.6-5.4,11.3c-1.5,1.1-3.1,1.9-4.8,2.6c-1.8,0.6-3.6,1.2-5.4,1.7c-2.2,0.6-4.3,1.3-6.4,2.2c-1.8,0.8-3.3,2-4.4,3.6
			c-1.2,2.2-1.7,4.7-1.6,7.2c0,1.6-1.1,2.9-2.7,3.3H1734.1z M1761.8,934c-2,0-3.5-1.5-3.5-3.3l0,0c0-0.9,0.4-1.7,1-2.3
			c1.4-1.2,3.6-1.2,4.9,0l0,0c0.7,0.6,1,1.4,1,2.3C1765.2,932.5,1763.7,934,1761.8,934L1761.8,934z M1791.2,934
			c-1.8,0-3.6-0.2-5.4-0.5c-4.1-0.7-7.9-2.6-10.9-5.3c-0.6-0.6-0.9-1.3-0.9-2.1v-0.8c0.1-0.7,0.5-1.2,1.1-1.7
			c0.7-0.6,1.6-0.9,2.5-0.9h0.8c0.7,0.1,1.3,0.5,1.7,1.1c1.9,1.7,4.4,2.9,7.1,3.3c1.2,0.2,2.5,0.4,3.7,0.4c1.7,0,3.3-0.2,4.9-0.7
			c3.2-0.5,5.5-3.1,5.4-6.1c0-1.5-0.9-3-2.3-3.7c-2.7-1.4-5.6-2.3-8.6-2.9c-2-0.5-3.9-1-5.9-1.6c-6.3-1.1-10.8-6.2-10.9-12.1
			c-0.1-4,1.9-7.8,5.4-10.1c3.6-2.2,7.8-3.3,12.1-3.2c0.9,0,1.8,0.4,2.5,1.1c0.7,0.6,1,1.5,1,2.3c0,0.9-0.4,1.7-1,2.3
			c-0.7,0.6-1.6,0.9-2.5,0.9h-0.4c-2.2,0-4.4,0.5-6.5,1.4c-2,0.9-3.4,2.6-3.7,4.7v0.9c-0.1,1.8,0.9,3.5,2.6,4.4c2.8,1.4,5.8,2.4,9,3
			c1.9,0.4,3.7,0.9,5.4,1.5c7,2.2,10.5,5.9,10.5,11.4c0,0.5,0,1,0,1.5c-0.7,5.2-4.7,9.5-10.1,10.9c-2.3,0.7-4.7,1-7.1,1L1791.2,934z
			 M1804.4,898c-1.9-0.2-3.3-1.9-3.1-3.7c0.2-1.5,1.5-2.7,3.1-2.8c0.9,0,1.8,0.3,2.5,0.9c1.4,1.3,1.4,3.4,0,4.6c0,0,0,0,0,0
			c-0.6,0.6-1.4,0.9-2.3,1H1804.4z M1835.7,934c-1.4,0-2.7-0.8-3.2-2l-12.4-28.5c-0.1-0.4-0.1-0.8,0-1.3c-0.1-0.4-0.1-0.8,0-1.2
			c0.4-0.8,1.1-1.5,2-1.8c0.4-0.1,0.9-0.1,1.4,0c1.4,0,2.7,0.8,3.2,2l9.1,21l14.5-33.2c0.5-1.3,1.8-2.1,3.3-2c0.5,0,0.9,0.1,1.4,0.3
			c1.3,0.5,2.2,1.7,2.2,3c0,0.4-0.1,0.9-0.3,1.3l-17.7,40.6c-0.6,1.2-1.9,2-3.3,2V934z M1818,893.3c-0.9,0-1.8-0.3-2.5-1
			c-1.3-1.3-1.3-3.3,0-4.6c0.6-0.6,1.6-1,2.5-1c1.9,0,3.5,1.5,3.5,3.3C1821.6,891.9,1820,893.3,1818,893.3z"/>
	</g>
	<g id="SvgjsG1681-3">
		<path class="st2" d="M611.6,977.4c-1.4,0.1-2.7-0.5-3.4-1.6l-20.8-32.5l-8.7,23.6c-0.4,1.2-1.6,2.1-2.9,2.2c-0.5,0.1-1,0.1-1.5,0
			c-1.3-0.4-2.2-1.5-2.3-2.7c-0.1-0.5-0.1-0.9,0-1.4l11.2-30.3c0.4-1.2,1.6-2.1,2.9-2.2c1.4-0.1,2.7,0.5,3.4,1.6l24.6,38.2
			c0.2,0.4,0.4,0.9,0.4,1.4c0.2,1.3-0.5,2.6-1.7,3.2c-0.4,0.2-0.9,0.4-1.5,0.5L611.6,977.4z M571.3,981.2c-0.9,0.1-1.8-0.2-2.6-0.7
			c-1.5-1.1-1.7-3.2-0.5-4.6l0,0c1.2-1.4,3.4-1.6,4.9-0.5c1.5,1.1,1.7,3.2,0.5,4.6l0,0C573.2,980.7,572.3,981.1,571.3,981.2
			L571.3,981.2z M625.7,976.1c-1.9,0.2-3.7-1.1-3.9-2.9l0,0c-0.5-3-0.2-6,0.7-8.9c0.7-2.2,2-4.1,3.6-5.8c1.6-1.5,3.4-2.7,5.4-3.7
			c1.8-0.9,3.6-1.7,5.4-2.4c2.7-0.8,5.2-2.1,7.4-3.8c1.7-1.8,2.4-4.2,1.8-6.5c-0.1-2.8-1.8-5.3-4.5-6.7c-2.1-1-4.4-1.4-6.7-1.2
			c-2.4,0.2-4.6,1-6.4,2.4c-2.3,1.8-3.4,4.6-2.9,7.4c-0.1,1.8-1.7,3.2-3.7,3.1c-1.6-0.1-2.9-1.1-3.3-2.5c-0.4-3,0.1-6,1.6-8.7
			c1.4-2.4,3.4-4.4,5.9-5.7c4.9-2.7,10.9-3.3,16.3-1.6c2.7,0.9,5.2,2.5,7.1,4.5c2,2.3,3.3,5.2,3.5,8.2c0.8,4.3-0.7,8.7-4,11.8
			c-1.3,1.2-2.9,2.2-4.5,3c-1.6,0.8-3.3,1.5-5,2.1c-2.1,0.8-4.2,1.7-6.1,2.8c-1.7,1-3.1,2.4-4,4c-0.9,2.3-1.2,4.8-0.8,7.3
			C628.9,974.3,627.6,976,625.7,976.1c0,0.1,0,0.1-0.1,0.1L625.7,976.1z M653.2,973.5c-1.9,0.2-3.7-1.1-3.9-2.9l0,0
			c-0.1-0.9,0.2-1.7,0.8-2.4c1.2-1.4,3.4-1.6,4.9-0.5l0,0c0.7,0.5,1.2,1.3,1.3,2.2C656.5,971.7,655.1,973.3,653.2,973.5L653.2,973.5
			z M682.4,970.7c-1.8,0.2-3.6,0.2-5.4,0c-4.2-0.3-8.1-1.8-11.4-4.3c-0.6-0.5-1-1.2-1.1-2v-0.8c0.1-0.7,0.4-1.3,0.9-1.8
			c0.6-0.6,1.5-1,2.4-1.1h0.6c0.7,0.1,1.4,0.4,1.8,0.9c2.1,1.5,4.7,2.5,7.4,2.6c1.3,0.1,2.5,0.1,3.8,0c1.7-0.2,3.3-0.6,4.8-1.2
			c3.1-0.9,5-3.6,4.7-6.6c-0.2-1.5-1.2-2.8-2.7-3.5c-2.9-1.1-5.9-1.8-9-2.1c-2-0.3-4-0.6-6-1c-6.3-0.5-11.4-5.1-12.1-11
			c-0.6-4,1-8.1,4.3-10.8c3.3-2.6,7.4-4.1,11.7-4.3c0.9,0,1.9,0.2,2.6,0.8c0.7,0.5,1.2,1.4,1.2,2.2c0.1,0.8-0.2,1.7-0.8,2.3
			c-0.6,0.7-1.5,1.1-2.4,1.2h-0.4c-2.2,0.2-4.4,0.9-6.3,2c-1.9,1.1-3.1,3-3.2,5v0.9c0.2,1.8,1.3,3.4,3,4.1c2.9,1.2,6.1,1.9,9.2,2.2
			c2,0.3,3.9,0.6,5.8,1c7.2,1.5,11.1,4.8,11.7,10.1c0,0.5,0,1,0,1.5c-0.1,5.2-3.6,9.9-8.9,11.8c-2.2,0.9-4.6,1.5-7,1.7L682.4,970.7z
			 M691.7,933.7c-1.9-0.1-3.5-1.6-3.4-3.4c0.1-1.5,1.2-2.7,2.7-3c0.9-0.1,1.9,0.1,2.6,0.7c1.5,1.1,1.8,3.2,0.5,4.6
			C693.5,933.2,692.6,933.6,691.7,933.7z M726.8,966.5c-1.4,0.1-2.8-0.6-3.4-1.7l-15.5-27.2c-0.2-0.4-0.3-0.8-0.4-1.3
			c-0.1-0.4-0.1-0.8,0-1.2c0.3-0.9,0.9-1.6,1.7-2c0.4-0.2,0.9-0.3,1.3-0.4c1.4-0.2,2.8,0.5,3.4,1.7l11.4,20.2l10.9-34.4
			c0.3-1.3,1.5-2.3,3-2.3c0.4-0.1,0.9-0.1,1.4,0c1.4,0.3,2.4,1.4,2.5,2.7c0.1,0.4,0.1,0.8,0,1.3l-13.1,42.1c-0.4,1.3-1.6,2.2-3,2.3
			L726.8,966.5z M704.7,927.7c-0.9,0.1-1.9-0.1-2.6-0.7c-1.5-1.1-1.7-3.2-0.5-4.6c0.6-0.7,1.4-1.1,2.4-1.2c1.9,0,3.6,1.4,3.6,3.2
			C707.7,926,706.4,927.4,704.7,927.7L704.7,927.7z"/>
	</g>
</g>
</svg>
