<?xml version="1.0" encoding="utf-8"?>
<!-- Generator: Adobe Illustrator 23.0.1, SVG Export Plug-In . SVG Version: 6.00 Build 0)  -->
<svg version="1.1" id="Layer_1" xmlns="http://www.w3.org/2000/svg" xmlns:xlink="http://www.w3.org/1999/xlink" x="0px" y="0px"
	 viewBox="0 0 2475 1650" style="enable-background:new 0 0 2475 1650;" xml:space="preserve">
<style type="text/css">
	.st0{fill:#EBF3FA;}
	.st1{fill:#A4C8FC;}
	.st2{fill:#FFB93E;}
	.st3{fill:#FFA412;}
	.st4{fill:#B4C9F7;}
	.st5{fill:#9BB8EA;}
	.st6{fill:#2E3552;}
	.st7{fill:#EA8E50;}
	.st8{fill:#1E3D70;}
	.st9{fill:#233862;}
	.st10{fill:#E2810E;}
	.st11{fill:#2B478B;}
	.st12{fill:#FFB07B;}
	.st13{fill:#D2E3FC;}
	.st14{fill:#FFB27D;}
	.st15{fill:#ED975D;}
	.st16{fill:#FFFFFF;}
	.st17{fill:#EBF3FF;}
	.st18{fill:#F99746;}
	.st19{fill:#ED7D2B;}
	.st20{fill:#739AF0;}
	.st21{fill:#618DD8;}
	.st22{fill:#2C3A64;}
	.st23{fill:#ED985F;}
	.st24{fill:#C94C43;}
	.st25{fill:#B23B38;}
	.st26{fill:#AFCDFB;}
	.st27{fill:#DFEDFB;}
	.st28{fill:#CDE3FD;}
</style>
<path class="st0" d="M223.2,1381.9c0,0-284.4-271-48.1-564.3c209.6-260.3,454.1-242.4,633.4-136.9c76.4,45,296.5,5.6,484-259.3
	C1548,60.4,2434,279.4,2272.4,835c-78.2,268.9,237.9,278.6,76.9,547.4L223.2,1381.9z"/>
<path class="st1" d="M1491.3,1268.3c0-0.2,0.9-17.7-8-21.7l0.7-0.5c4.1,1.3,8.6,5.5,10.4,11.5c1.4,4.4,0.3,5.3,0.3,5.5
	L1491.3,1268.3z"/>
<path class="st1" d="M1432.3,1222.9c0,0,3,22.6,17.5,29.1s34.9-5.3,34.9-5.3s-3-22.6-17.5-29.1S1432.3,1222.9,1432.3,1222.9z"/>
<path class="st1" d="M1489.8,1301c-0.2-0.9-3.3-21.5,4.8-44.4c7.9-22.1,3.5-40.8,3.5-40.9h5.8c0.2,0.8,0.6,19.1-5.6,44.3
	c-5.6,22.6,4.8,41.1,2.6,41.1L1489.8,1301z"/>
<path class="st1" d="M1502,1240.2c0-0.2,2.8-15.2,10.3-16.9l0,0c-4.2,0.7-7.9,3.3-10,6.9c-1.8,3.1-1.1,4-1.1,4.1L1502,1240.2z"/>
<path class="st1" d="M1525.9,1241.7c-11.2-2.2-17.4-17.1-17.4-17.1s11.8-11.5,23-9.4c11.2,2.1,17.4,17.1,17.4,17.1
	S1537.1,1243.9,1525.9,1241.7z"/>
<ellipse class="st2" cx="1495.7" cy="1167.8" rx="58.7" ry="55.7"/>
<path class="st3" d="M1517.8,1205.2c-24.6,15.3-57.5,8.9-73.7-14.4c-16.2-23.3-9.4-54.6,15.2-70c24.6-15.3,57.5-8.9,73.7,14.4
	c7.8,11.2,10.5,24.9,7.7,38C1537.8,1186.3,1529.6,1197.9,1517.8,1205.2z M1461,1123.3c-23.1,14.4-29.5,43.9-14.3,65.9
	c15.2,21.9,46.3,28,69.4,13.6c23.1-14.4,29.5-43.9,14.3-65.9l0,0C1515.1,1114.9,1484,1108.9,1461,1123.3L1461,1123.3z"/>
<path class="st3" d="M1499.8,1175c-0.1-0.9-0.5-1.9-1-2.8c-0.5-0.8-1.2-1.5-2-2.1c-1-0.6-2-1.1-3.1-1.5c-1.5-0.5-3-0.8-4.5-1.1
	c-2.8-0.5-5.5-1.1-8.3-1.9c-2.4-0.6-4.6-1.6-6.7-2.8c-1.9-1.1-3.5-2.5-4.8-4.2c-2.5-3.8-3.4-8.3-2.5-12.6c0.4-1.9,1.3-3.7,2.6-5.3
	c1.4-1.6,3-3,4.9-4.1c2.1-1.2,4.4-2.1,6.8-2.6l-1.5-8.3l7-1l1.6,8.4c2.4-0.1,4.8,0.3,7.2,0.9c4.3,1.2,8,4.1,10.2,7.9
	c1.2,2.2,2,4.4,2.5,6.9l-12.6,1.8c-0.6-3.1-1.8-5.3-3.5-6.7c-1.8-1.4-4-1.9-6.2-1.5c-1.2,0.1-2.3,0.5-3.3,1
	c-0.8,0.5-1.5,1.1-2.1,1.8c-0.5,0.7-0.8,1.5-1,2.4c-0.1,0.9-0.1,1.8,0.1,2.8c0.2,0.9,0.5,1.8,0.9,2.6c0.4,0.8,1.1,1.4,1.9,2
	c1,0.6,2,1.1,3.2,1.5c1.6,0.5,3.1,0.9,4.7,1.2c3,0.6,5.8,1.3,8.3,2c2.4,0.6,4.6,1.6,6.7,2.8c4,2.3,6.7,6.2,7.4,10.6
	c0.5,2.1,0.4,4.3-0.1,6.3c-0.5,1.9-1.4,3.7-2.6,5.2c-1.4,1.6-3,3-4.9,4c-2.2,1.2-4.4,2.1-6.9,2.6l1.5,7.7l-6.9,1l-1.5-7.7
	c-2.4,0.1-4.9,0-7.3-0.5c-2.4-0.4-4.6-1.2-6.6-2.5c-2.1-1.3-3.9-3-5.2-4.9c-1.6-2.4-2.6-5-3.1-7.8l12.6-1.8c0.3,1.6,0.8,3.1,1.7,4.5
	c0.7,1.1,1.6,2,2.7,2.6c1,0.6,2.2,1,3.3,1.1c1.2,0.1,2.4,0.1,3.6,0c1.3-0.2,2.4-0.5,3.5-1c0.9-0.5,1.7-1,2.3-1.8
	c0.6-0.7,1-1.5,1.1-2.3C1500,1176.8,1500,1175.9,1499.8,1175z"/>
<polygon class="st4" points="1548.2,1295.7 1548.2,1295.7 1547,1312.7 1542.7,1375.8 1461.8,1375.8 1457.1,1313.6 1455.8,1296.4 
	1455.7,1295.7 "/>
<path class="st5" d="M1548.2,1295.7l-1.1,17c-14.5-4.6-29.8-6.9-45.1-6.8c-27.8,0-44.9,7.8-44.9,7.8l-1.3-17.1L1548.2,1295.7z"/>
<polygon class="st4" points="1551,1304.7 1452.8,1304.7 1451.6,1293.8 1552.3,1293.8 "/>
<polygon class="st4" points="1543.9,1379.2 1460.1,1379.2 1459.1,1375.4 1545,1375.4 "/>
<path class="st6" d="M74.7,1378.8H2421c1.5,0,2.7,1.2,2.7,2.6v0.9c0,1.4-1.2,2.6-2.7,2.6H74.7c-1.5,0-2.7-1.2-2.7-2.6v-0.9
	C72,1379.9,73.1,1378.8,74.7,1378.8z"/>
<path class="st7" d="M2050.3,972.9l-7.8,6c0,0-21.5-7.3-26.4,16.9c0,0-1.3,10.3,5.6,10.3s4.1-1.2,13.8-0.9s17.9-4.7,19.3-12.2
	l4.7-6.4L2050.3,972.9z"/>
<path class="st8" d="M2051.1,985.9c-6.3-6.2-5.8-10.8-5.8-10.8s72.6-56.4,79.9-61c5-3.1,58.4-48.1,83.4-75.5
	c12.4-13.6,27.8-8.3,45.3-3.6l14.4,4c17.5,4.7,22,27.9,7.7,39.2c-40.3,31.7-107.4,67.4-120,74.9c-31.2,18.6-92.2,40.8-92.2,40.8
	C2059.1,992,2054.8,989.3,2051.1,985.9z"/>
<path class="st9" d="M1968.4,1332.4c0,0-17.6,12.6-44.6,5.9c0,0-21.7-4.7-26.5,5.6c0,0,33.4,16.1,41.8,20.5
	c6.4,3.3,13,8.5,17.7,12.6c3.6,3.1,9.1,2.8,12.3-0.6c0.1-0.1,0.2-0.2,0.3-0.3c1.5-1.7,3.2-3.7,5-6.1c5.1-6.6,17.1-28,17.1-28
	L1968.4,1332.4z"/>
<ellipse class="st10" cx="2046.2" cy="874.8" rx="123.1" ry="116.9"/>
<ellipse class="st2" cx="2056.9" cy="874.8" rx="123.1" ry="116.9"/>
<path class="st3" d="M1977.6,951.5c-43.8-41.5-43.8-109,0-150.6c43.8-41.6,114.8-41.5,158.6,0c43.8,41.5,43.8,109,0,150.6
	c-21.1,20-49.5,31.2-79.3,31.2C2027.2,982.7,1998.6,971.5,1977.6,951.5z M1951.5,876.2c0,55.3,47.2,100.1,105.5,100.1
	c58.2,0,105.5-44.8,105.5-100.1s-47.2-100.1-105.5-100.1l0,0C1998.7,776.1,1951.5,820.9,1951.5,876.2L1951.5,876.2z"/>
<path class="st3" d="M2079,903.8c0-2.1-0.5-4.2-1.3-6.1c-0.8-1.7-2.1-3.3-3.6-4.5c-1.8-1.5-4-2.7-6.2-3.6c-3-1.2-6-2.2-9.1-2.9
	c-5.7-1.5-11.4-3.2-16.9-5.3c-4.7-1.8-9.1-4-13.2-6.9c-3.6-2.6-6.6-5.9-8.8-9.7c-4.2-8.3-4.8-17.9-1.7-26.7
	c1.5-3.9,3.9-7.5,6.9-10.5c3.2-3.2,7-5.8,11.2-7.7c4.8-2.2,9.8-3.6,15-4.4l-0.9-17.6l14.9-0.9l1,17.9c5,0.3,10,1.3,14.7,3.1
	c8.8,3.3,15.7,9.9,19.2,18.2c2,4.7,3.1,9.7,3.3,14.8l-27,1.7c-0.4-6.6-2.1-11.5-5.4-14.5c-3.3-3.1-7.5-4.5-12.7-4.1
	c-2.5,0.1-4.9,0.6-7.2,1.6c-1.8,0.8-3.5,2-4.9,3.4c-1.2,1.4-2.1,3.1-2.6,4.8c-0.6,1.9-0.7,3.8-0.6,5.8c0.1,1.9,0.5,3.7,1.2,5.5
	c0.7,1.7,1.9,3.2,3.4,4.3c1.9,1.5,4,2.7,6.3,3.6c3.1,1.3,6.4,2.3,9.6,3.2c6.1,1.7,11.7,3.6,16.8,5.5c4.7,1.7,9.2,4,13.2,6.9
	c3.6,2.7,6.6,6,8.8,9.8c4.2,8.3,4.9,18,1.6,26.9c-1.5,3.9-3.9,7.5-7,10.5c-3.2,3.2-7.1,5.7-11.3,7.5c-4.8,2.1-9.9,3.5-15.1,4.3
	l0.9,16.5l-14.8,0.9l-0.8-16.4c-5.2-0.2-10.3-0.9-15.2-2.3c-4.8-1.3-9.3-3.4-13.2-6.3c-4-3.1-7.3-6.8-9.5-11.2
	c-2.5-4.6-3.9-10.2-4.2-16.8l27-1.7c0,3.4,0.8,6.6,2.2,9.7c1.2,2.3,2.9,4.4,5,6c2,1.5,4.3,2.5,6.7,2.9c2.5,0.5,5,0.6,7.5,0.5
	c2.6-0.2,5.2-0.7,7.7-1.6c2-0.8,3.8-1.9,5.4-3.3c1.4-1.4,2.5-3,3.1-4.7C2078.8,907.6,2079.1,905.8,2079,903.8z"/>
<path class="st11" d="M1958,1326c0,0,10.7,23.5,35.4,19.1c0,0,50.5-39.6,85.1-80.7c11.3-13.3,20.8-26.9,26.4-39.2
	c22.9-50.5,85-125.8,124.4-163.9l-98.6-33.9c0,0-31.6,60.3-73.6,134.4C2027,1215.2,1991.2,1275.7,1958,1326z"/>
<path class="st9" d="M2057.2,1161.8l21.4,102.6c11.3-13.3,20.8-26.9,26.4-39.2c22.9-50.5,85-125.8,124.4-163.9l-98.6-33.9
	C2130.8,1027.4,2099.2,1087.7,2057.2,1161.8z"/>
<path class="st9" d="M2137.8,1345.9c0,0,1.1,18.8-22.9,21.2c0,0-13.6,0.1-13.7,12l69.5,0.2c0,0,2-4.8,2.5-15.1
	c0.4-7.9-8.1-28.6-8.1-28.6L2137.8,1345.9z"/>
<path class="st11" d="M2163.1,1027.4c0,0-43.9,45.8-71.8,128.4c-15.2,45,27.8,157.9,36.2,197.1c0,0,28.8,2.3,48.6-4.9
	c0,0,1.5-81.1-10-143.5c-6.4-35,57.9-74.8,86-138c19.1-42.9-4.2-42.2-32.7-43.2L2163.1,1027.4z"/>
<path class="st12" d="M2213.9,822.8c24.4,13.1,74.4,1,74.4,1s-20.3-22.1-11.1-57.6l-19.2,9.2l-20.6,9.9c-1.1,5.8-1.9,11.6-2.3,17.5
	c-0.2,2.9-0.5,6.1-0.6,9.7C2227.1,814.8,2220.1,818.3,2213.9,822.8z"/>
<path class="st13" d="M2124.3,1025c0,4.1,5,6,6,6.2c9.9,1.7,37.4,11.9,62.2,14.2c20.9,2.1,40.2,0.1,61.5-4c2.9-0.5,9.5-2.2,9.9-4.8
	c0.6-2.8,82.1-157.9,18.8-224.5c-1.5-1.6-14,1.2-25.5,3.8c-9.6,2.2-19.8,1.4-28.9-2.2l-10.7,5.3c-13.1,7-38.1,31.8-41.1,51.2
	c-1.5,9.9-7.4,17.2-9.1,25.9c-0.7,3.3-1.3,6.4-2,9.5c-1.3,6-2.6,11.7-4,17.1c-3.8,14.7-7.7,27.4-11.5,38.3
	c-4.1,11.6-8.2,21.2-11.8,29.4c-4.7,10.5-8.7,18.3-11.1,24.3C2125.3,1019,2124.3,1022.2,2124.3,1025z"/>
<path class="st1" d="M2127,1014.7c115.1-51.5,155-150.4,155-150.4s-93.5,32.8-116.6,41.3c-1.3,6-2.6,11.7-4,17.1
	c-3.8,14.7-7.7,27.4-11.5,38.3c-4.1,11.6-8.2,21.2-11.8,29.4C2133.4,1000.9,2129.5,1008.8,2127,1014.7z"/>
<path class="st12" d="M2059.6,984.9l-10,3.5c0,0-19.9-13.4-32.3,8.4c0,0-4.5,9.5,2.6,11.5c7.1,2,4.5,0.2,14.5,3.3
	c10,3.1,19.8,0.9,23.6-5.9l6.8-4.7L2059.6,984.9z"/>
<path class="st13" d="M2051.5,998.2c-3.7-9.1-5.4-13.3-5.4-13.3s75.2-58.2,82.8-63.2c5.2-3.4,57.1-40.3,82.5-69
	c12.6-14.3,32.4-20.8,51.5-17l15.8,3.1c19,3.8,25.2,26.7,10.4,38.8c-41.6,33.9-111.8,73.2-124.9,81.4
	c-32.5,20.3-104.4,48.8-104.4,48.8S2054.3,1005.4,2051.5,998.2z"/>
<path class="st7" d="M2235.2,803.1c24,1.3,39.7-17.6,39.7-17.6s-10.9-5.7-16.8-9.9l-20.6,9.9
	C2236.4,791.3,2235.6,797.2,2235.2,803.1z"/>
<path class="st12" d="M2224.9,779.6c0,0,36.4,24.8,52.3,3c15.9-21.8,31.3-33.3,8.8-50s-33.2-11.5-40.4-5.4
	C2238.5,733.2,2215.9,772.6,2224.9,779.6z"/>
<path class="st9" d="M2241.8,707.6c0.7-4.9,2.2-9.7,4.2-14.3c0,0,2.3,9,19.6,7.8c17.3-1.2,44.7,1.6,53.9,20.3
	c0.6,1.2,1.1,2.4,1.6,3.6c1.6-4.1,2-10.4,2-10.4c3.3,8.1,0,18.1,0,18.1l0,0c0.1,0.3,0.1,0.6,0.2,0.9c3.8,3.1,7,12.6,7,12.6
	c-1.1-2.6-4-4.4-6.4-5.4c0.1,14.6-6.1,28.8-17.1,33c-16,6.2-15.8,1.5-31.9,11.5c0,0-4.3-5-1.4-8.5c2.9-3.5,14-8.4,7.8-13.3
	s-8.5,0.6-10.8-2.8c-2.3-3.4,9.1-13.3-5.6-22.6C2250.3,728.8,2240.5,715.9,2241.8,707.6z"/>
<path class="st2" d="M674,1360.1v13.5c0,1.1-0.4,2.1-1.1,2.9c-0.8,0.9-1.9,1.6-3.1,1.9c-0.4,0.2-0.8,0.2-1.2,0.2
	c-0.4,0.1-0.7,0.1-1.1,0.1H397.7c-3.5,0-6.4-2.2-6.5-5c0-0.1,0-0.2,0-0.2v-13.5c0-0.1,0-0.2,0-0.2c0.2-2.7,3-5,6.5-5h269.8
	c0.4,0,0.7,0,1.1,0.1s0.8,0.2,1.2,0.2c1.2,0.4,2.3,1,3.1,1.9C673.6,1358,674,1359,674,1360.1z"/>
<path class="st3" d="M541.5,1378.8H397c-3,0.1-5.6-2.1-5.8-5c0-0.1,0-0.2,0-0.2v-13.5c0-0.1,0-0.2,0-0.2c0.2-2.9,2.8-5,5.8-5h126.8
	C526.5,1364.6,532.8,1373.1,541.5,1378.8z"/>
<rect x="638.1" y="1354.9" class="st3" width="3.1" height="23.9"/>
<rect x="627.7" y="1354.9" class="st3" width="3.1" height="23.9"/>
<rect x="615.3" y="1354.9" class="st3" width="3.1" height="23.9"/>
<rect x="596.2" y="1354.9" class="st3" width="3.1" height="23.9"/>
<rect x="576" y="1354.9" class="st3" width="3.1" height="23.9"/>
<rect x="545.1" y="1354.9" class="st3" width="3.1" height="23.9"/>
<rect x="516.2" y="1354.9" class="st3" width="3.1" height="23.9"/>
<rect x="490.3" y="1354.9" class="st3" width="3.1" height="23.9"/>
<rect x="648" y="1354.9" class="st3" width="3.1" height="23.9"/>
<rect x="654.5" y="1354.9" class="st3" width="3.1" height="23.9"/>
<rect x="660.8" y="1354.9" class="st3" width="3.1" height="23.9"/>
<path class="st3" d="M668.7,1355v23.7c-0.4,0.1-0.7,0.1-1.1,0.1h-2v-23.9h1.9C667.9,1354.9,668.3,1354.9,668.7,1355z"/>
<path class="st3" d="M672.9,1357.2v19.3c-0.8,0.9-1.9,1.6-3.1,1.9v-23.3C671,1355.5,672.1,1356.2,672.9,1357.2z"/>
<path class="st2" d="M645.2,1336.2v13.5c0,1.1-0.4,2.1-1.1,2.9c-0.8,0.9-1.9,1.6-3.1,1.9c-0.4,0.2-0.8,0.2-1.2,0.2
	c-0.4,0.1-0.7,0.1-1.1,0.1H368.9c-3.5,0-6.4-2.2-6.5-5c0-0.1,0-0.2,0-0.2v-13.5c0-0.1,0-0.2,0-0.2c0.2-2.7,3-5,6.5-5h269.8h0.5h0.2
	h0.2h0.2c0.4,0.1,0.8,0.2,1.2,0.2l0.2,0.1l0.2,0.1l0.3,0.2l0.2,0.1l0.2,0.1l0.3,0.2l0.3,0.2l0.2,0.2l0,0l0.2,0.2
	c0.2,0.2,0.3,0.2,0.5,0.4l0.2,0.2l0.2,0.2l0.2,0.2C644.8,1334,645.2,1335.1,645.2,1336.2z"/>
<path class="st3" d="M512.7,1354.9H368.1c-3,0.1-5.6-2.1-5.8-5c0-0.1,0-0.2,0-0.2v-13.5c0-0.1,0-0.2,0-0.2c0.2-2.9,2.8-5,5.8-5
	h126.8l0.2,0.6C497.9,1341,504.1,1349.3,512.7,1354.9z"/>
<rect x="609.2" y="1331" class="st3" width="3.1" height="23.9"/>
<rect x="598.9" y="1331" class="st3" width="3.1" height="23.9"/>
<rect x="586.5" y="1331" class="st3" width="3.1" height="23.9"/>
<rect x="567.4" y="1331" class="st3" width="3.1" height="23.9"/>
<rect x="547.2" y="1331" class="st3" width="3.1" height="23.9"/>
<rect x="516.3" y="1331" class="st3" width="3.1" height="23.9"/>
<rect x="487.3" y="1331" class="st3" width="3.1" height="23.9"/>
<rect x="461.4" y="1331" class="st3" width="3.1" height="23.9"/>
<rect x="619.1" y="1331" class="st3" width="3.1" height="23.9"/>
<rect x="625.7" y="1331" class="st3" width="3.1" height="23.9"/>
<rect x="631.9" y="1331" class="st3" width="3.1" height="23.9"/>
<path class="st3" d="M639.8,1331v23.7c-0.4,0.1-0.7,0.1-1.1,0.1h-1.9v-23.9h1.9C639,1331,639.4,1331,639.8,1331z"/>
<path class="st3" d="M644,1333.3v19.3c-0.8,0.9-1.9,1.6-3.1,1.9v-23.3C642.2,1331.7,643.3,1332.4,644,1333.3z"/>
<path class="st2" d="M659.1,1312.8v13.5c0,1.1-0.4,2.1-1.1,2.9c-0.8,0.9-1.9,1.6-3.1,1.9c-0.4,0.2-0.8,0.2-1.2,0.2
	c-0.4,0.1-0.7,0.1-1.1,0.1H382.8c-1.1,0-2-0.2-3-0.6c-1.9-0.7-3.2-2.2-3.5-4.1c0-0.1,0-0.2,0-0.2c0-0.1,0-0.2,0-0.2v-13.5
	c0-0.1,0-0.2,0-0.2c0.2-2.7,3-5,6.5-5h269.8c0.4,0,0.7,0,1.1,0.1s0.8,0.2,1.2,0.2c1.2,0.4,2.3,1,3.1,1.9
	C658.7,1310.7,659.1,1311.8,659.1,1312.8z"/>
<path class="st3" d="M526.6,1331.6H382.1c-0.9,0-1.9-0.2-2.7-0.6c-1.7-0.8-2.9-2.3-3.1-4.1c0-0.1,0-0.2,0-0.2c0-0.1,0-0.2,0-0.2
	v-13.5c0-0.1,0-0.2,0-0.2c0.2-2.9,2.8-5,5.8-5h126.8c2.6,9.4,8.6,17.7,16.9,23.3L526.6,1331.6z"/>
<rect x="623.2" y="1307.6" class="st3" width="3.1" height="23.9"/>
<rect x="612.8" y="1307.6" class="st3" width="3.1" height="23.9"/>
<rect x="600.4" y="1307.6" class="st3" width="3.1" height="23.9"/>
<rect x="581.3" y="1307.6" class="st3" width="3.1" height="23.9"/>
<rect x="561.2" y="1307.6" class="st3" width="3.1" height="23.9"/>
<rect x="530.2" y="1307.6" class="st3" width="3.1" height="23.9"/>
<rect x="501.3" y="1307.6" class="st3" width="3.1" height="23.9"/>
<rect x="475.4" y="1307.6" class="st3" width="3.1" height="23.9"/>
<rect x="633.1" y="1307.6" class="st3" width="3.1" height="23.9"/>
<rect x="639.6" y="1307.6" class="st3" width="3.1" height="23.9"/>
<rect x="645.9" y="1307.6" class="st3" width="3.1" height="23.9"/>
<path class="st3" d="M653.7,1307.7v23.7c-0.4,0.1-0.7,0.1-1.1,0.1h-1.9v-23.9h1.9C653,1307.6,653.3,1307.6,653.7,1307.7z"/>
<path class="st3" d="M658,1310v19.3c-0.8,0.9-1.9,1.6-3.1,1.9v-23.3C656.1,1308.3,657.2,1309,658,1310z"/>
<path class="st2" d="M665.6,1289v13.5c0,1.1-0.4,2.1-1.1,2.9c-0.8,0.9-1.9,1.6-3.1,1.9c-0.4,0.2-0.8,0.2-1.2,0.2
	c-0.4,0.1-0.7,0.1-1.1,0.1H389.3c-3.5,0-6.4-2.2-6.5-5c0-0.1,0-0.2,0-0.2V1289c0-0.1,0-0.2,0-0.2c0.2-2.6,2.6-4.6,5.7-4.9
	c0.2,0,0.5,0,0.8,0h269.9c0.4,0,0.7,0,1.1,0.1s0.8,0.2,1.2,0.2c1.2,0.4,2.3,1,3.1,1.9C665.2,1286.9,665.6,1287.9,665.6,1289z"/>
<path class="st3" d="M533.1,1307.6H388.5c-3,0.1-5.6-2.1-5.8-5c0-0.1,0-0.2,0-0.2V1289c0-0.1,0-0.2,0-0.2c0.2-2.6,2.4-4.7,5.1-4.9
	c0.2,0,0.5,0,0.7,0h126.8l0,0C518.1,1293.5,524.4,1302,533.1,1307.6z"/>
<rect x="629.7" y="1283.8" class="st3" width="3.1" height="23.9"/>
<rect x="619.3" y="1283.8" class="st3" width="3.1" height="23.9"/>
<rect x="606.9" y="1283.8" class="st3" width="3.1" height="23.9"/>
<rect x="587.8" y="1283.8" class="st3" width="3.1" height="23.9"/>
<rect x="567.6" y="1283.8" class="st3" width="3.1" height="23.9"/>
<rect x="536.7" y="1283.8" class="st3" width="3.1" height="23.9"/>
<rect x="507.7" y="1283.8" class="st3" width="3.1" height="23.9"/>
<rect x="481.8" y="1283.8" class="st3" width="3.1" height="23.9"/>
<rect x="639.5" y="1283.8" class="st3" width="3.1" height="23.9"/>
<rect x="646.1" y="1283.8" class="st3" width="3.1" height="23.9"/>
<rect x="652.3" y="1283.8" class="st3" width="3.1" height="23.9"/>
<path class="st3" d="M660.2,1283.8v23.7c-0.4,0.1-0.7,0.1-1.1,0.1h-1.9v-23.9h1.9C659.4,1283.8,659.8,1283.8,660.2,1283.8z"/>
<path class="st3" d="M664.4,1286v19.3c-0.8,0.9-1.9,1.6-3.1,1.9V1284C662.6,1284.4,663.7,1285.1,664.4,1286z"/>
<path class="st2" d="M645.7,1265.1v13.5c0,1.1-0.4,2.1-1.1,2.9c-0.8,0.9-1.9,1.6-3.1,1.9c-0.4,0.2-0.8,0.2-1.2,0.2l-0.4,0.1h-0.2
	H369.4c-3.5,0-6.4-2.2-6.5-5c0-0.1,0-0.2,0-0.2v-13.5c0-0.1,0-0.2,0-0.2s0-0.2,0-0.2c0.2-2.2,2.3-4,4.9-4.6h0.2
	c0.5-0.1,0.9-0.2,1.4-0.2h269.9h0.6h0.2l0,0l0.3,0.1c0.4,0.1,0.8,0.2,1.2,0.2c1.2,0.4,2.3,1,3.1,1.9
	C645.3,1262.9,645.7,1264,645.7,1265.1z"/>
<path class="st3" d="M513.3,1283.8H368.7c-3,0.1-5.6-2.1-5.8-5c0-0.1,0-0.2,0-0.2v-13.5c0-0.1,0-0.2,0-0.2c0-0.1,0-0.2,0-0.2
	c0.3-2.3,2.1-4.2,4.5-4.6l0.2-0.1c0.3-0.1,0.7-0.1,1.1-0.1h126.8c0,0.1,0,0.1,0.1,0.2C498.2,1269.7,504.5,1278.1,513.3,1283.8
	L513.3,1283.8z"/>
<rect x="609.8" y="1259.9" class="st3" width="3.1" height="23.9"/>
<rect x="599.5" y="1259.9" class="st3" width="3.1" height="23.9"/>
<rect x="587" y="1259.9" class="st3" width="3.1" height="23.9"/>
<rect x="567.9" y="1259.9" class="st3" width="3.1" height="23.9"/>
<rect x="547.8" y="1259.9" class="st3" width="3.1" height="23.9"/>
<rect x="516.8" y="1259.9" class="st3" width="3.1" height="23.9"/>
<rect x="487.9" y="1259.9" class="st3" width="3.1" height="23.9"/>
<rect x="462" y="1259.9" class="st3" width="3.1" height="23.9"/>
<rect x="619.7" y="1259.9" class="st3" width="3.1" height="23.9"/>
<rect x="626.2" y="1259.9" class="st3" width="3.1" height="23.9"/>
<rect x="632.6" y="1259.9" class="st3" width="3.1" height="23.9"/>
<path class="st3" d="M640.3,1260v23.7c-0.4,0.1-0.7,0.1-1.1,0.1h-1.9v-23.9h1.9C639.6,1259.9,639.9,1259.9,640.3,1260z"/>
<path class="st3" d="M644.6,1262.1v19.3c-0.8,0.9-1.9,1.6-3.1,1.9v-23.3C642.7,1260.6,643.8,1261.2,644.6,1262.1z"/>
<path class="st2" d="M645.2,1241.3v13.5c0,1.1-0.4,2.1-1.1,2.9c-0.8,0.9-1.9,1.6-3.1,1.9c-0.3,0.1-0.7,0.2-0.9,0.2l0,0l-0.2,0.1
	c-0.4,0.1-0.7,0.1-1.1,0.1H368.9c-0.2,0-0.6,0-0.8-0.1l-0.3-0.1c-2.9-0.4-5.2-2.4-5.4-4.9c0-0.1,0-0.2,0-0.2v-13.5
	c0-0.1,0-0.2,0-0.2c0.2-2.7,3-5,6.5-5h269.8h0.5h0.2h0.2h0.2c0.4,0.1,0.8,0.2,1.2,0.2l0.2,0.1l0.2,0.1l0.3,0.2l0.3,0.2l0.3,0.2
	l0.3,0.2l0.2,0.2l0,0l0.2,0.2c0.2,0.2,0.3,0.2,0.5,0.4l0.2,0.2l0.2,0.2l0.2,0.2C644.8,1239.1,645.2,1240.2,645.2,1241.3z"/>
<path class="st3" d="M512.7,1260H367.8h-0.4c-2.7-0.2-4.9-2.3-5.1-4.9c0-0.1,0-0.2,0-0.2v-13.5c0-0.1,0-0.2,0-0.2
	c0.2-2.9,2.8-5,5.8-5h126.8l0.2,0.6c2.8,9.4,8.9,17.6,17.3,23.2L512.7,1260z"/>
<rect x="609.2" y="1236.1" class="st3" width="3.1" height="23.9"/>
<rect x="598.9" y="1236.1" class="st3" width="3.1" height="23.9"/>
<rect x="586.5" y="1236.1" class="st3" width="3.1" height="23.9"/>
<rect x="567.4" y="1236.1" class="st3" width="3.1" height="23.9"/>
<rect x="547.2" y="1236.1" class="st3" width="3.1" height="23.9"/>
<rect x="516.3" y="1236.1" class="st3" width="3.1" height="23.9"/>
<rect x="487.3" y="1236.1" class="st3" width="3.1" height="23.9"/>
<rect x="461.4" y="1236.1" class="st3" width="3.1" height="23.9"/>
<rect x="619.1" y="1236.1" class="st3" width="3.1" height="23.9"/>
<rect x="625.7" y="1236.1" class="st3" width="3.1" height="23.9"/>
<rect x="631.9" y="1236.1" class="st3" width="3.1" height="23.9"/>
<path class="st3" d="M639.8,1236.2v23.7c-0.4,0.1-0.7,0.1-1.1,0.1h-1.9V1236h1.9C639,1236.1,639.4,1236.1,639.8,1236.2z"/>
<path class="st3" d="M644,1238.4v19.3c-0.8,0.9-1.9,1.6-3.1,1.9v-23.3C642.2,1236.8,643.3,1237.5,644,1238.4z"/>
<path class="st2" d="M659.1,1218v13.5c0,1.1-0.4,2.1-1.1,2.9c-0.8,0.9-1.9,1.6-3.1,1.9c-0.4,0.2-0.8,0.2-1.2,0.2
	c-0.4,0.1-0.7,0.1-1.1,0.1H382.8c-1.1,0-2-0.2-3-0.6c-1.9-0.7-3.2-2.2-3.5-4.1c0-0.1,0-0.2,0-0.2c0-0.1,0-0.2,0-0.2V1218
	c0-0.1,0-0.2,0-0.2c0.2-2.7,3-5,6.5-5h269.8c0.4,0,0.7,0,1.1,0.1s0.8,0.2,1.2,0.2c1.2,0.4,2.3,1,3.1,1.9
	C658.7,1215.9,659.1,1216.9,659.1,1218z"/>
<path class="st3" d="M526.6,1236.7H382.1c-0.9,0-1.9-0.2-2.7-0.6c-1.7-0.8-2.9-2.3-3.1-4.1c0-0.1,0-0.2,0-0.2c0-0.1,0-0.2,0-0.2
	V1218c0-0.1,0-0.2,0-0.2c0.2-2.9,2.8-5,5.8-5h126.8c2.6,9.4,8.6,17.7,16.9,23.3L526.6,1236.7z"/>
<rect x="623.2" y="1212.8" class="st3" width="3.1" height="23.9"/>
<rect x="612.8" y="1212.8" class="st3" width="3.1" height="23.9"/>
<rect x="600.4" y="1212.8" class="st3" width="3.1" height="23.9"/>
<rect x="581.3" y="1212.8" class="st3" width="3.1" height="23.9"/>
<rect x="561.2" y="1212.8" class="st3" width="3.1" height="23.9"/>
<rect x="530.2" y="1212.8" class="st3" width="3.1" height="23.9"/>
<rect x="501.3" y="1212.8" class="st3" width="3.1" height="23.9"/>
<rect x="475.4" y="1212.8" class="st3" width="3.1" height="23.9"/>
<rect x="633.1" y="1212.8" class="st3" width="3.1" height="23.9"/>
<rect x="639.6" y="1212.8" class="st3" width="3.1" height="23.9"/>
<rect x="645.9" y="1212.8" class="st3" width="3.1" height="23.9"/>
<path class="st3" d="M653.7,1212.8v23.7c-0.4,0.1-0.7,0.1-1.1,0.1h-1.9v-23.9h1.9C653,1212.8,653.3,1212.8,653.7,1212.8z"/>
<path class="st3" d="M658,1215.1v19.3c-0.8,0.9-1.9,1.6-3.1,1.9v-23.3C656.1,1213.5,657.2,1214.2,658,1215.1z"/>
<path class="st2" d="M681.2,1194.1v13.5c0,1.1-0.4,2.1-1.1,2.9c-0.8,0.9-1.9,1.6-3.1,1.9c-0.4,0.2-0.8,0.2-1.2,0.2
	c-0.4,0.1-0.7,0.1-1.1,0.1H404.9c-3.5,0-6.4-2.2-6.5-5c0-0.1,0-0.2,0-0.2v-13.5c0-0.1,0-0.2,0-0.2c0.2-2.6,2.6-4.6,5.7-4.9
	c0.2,0,0.5,0,0.8,0h269.9c0.4,0,0.7,0,1.1,0.1c0.4,0.1,0.8,0.2,1.2,0.2c1.2,0.4,2.3,1,3.1,1.9C680.8,1192,681.2,1193,681.2,1194.1z"
	/>
<path class="st3" d="M548.7,1212.8H404.1c-3,0.1-5.6-2.1-5.8-5c0-0.1,0-0.2,0-0.2v-13.5c0-0.1,0-0.2,0-0.2c0.2-2.6,2.4-4.7,5.1-4.9
	c0.2,0,0.5,0,0.7,0h126.8l0,0C533.7,1198.6,539.9,1207.1,548.7,1212.8z"/>
<rect x="645.2" y="1188.9" class="st3" width="3.1" height="23.9"/>
<rect x="634.9" y="1188.9" class="st3" width="3.1" height="23.9"/>
<rect x="622.4" y="1188.9" class="st3" width="3.1" height="23.9"/>
<rect x="603.4" y="1188.9" class="st3" width="3.1" height="23.9"/>
<rect x="583.2" y="1188.9" class="st3" width="3.1" height="23.9"/>
<rect x="552.3" y="1188.9" class="st3" width="3.1" height="23.9"/>
<rect x="523.3" y="1188.9" class="st3" width="3.1" height="23.9"/>
<rect x="497.4" y="1188.9" class="st3" width="3.1" height="23.9"/>
<rect x="655.1" y="1188.9" class="st3" width="3.1" height="23.9"/>
<rect x="661.7" y="1188.9" class="st3" width="3.1" height="23.9"/>
<rect x="667.9" y="1188.9" class="st3" width="3.1" height="23.9"/>
<path class="st3" d="M675.8,1189v23.7c-0.4,0.1-0.7,0.1-1.1,0.1h-1.9v-23.9h1.9C675,1188.9,675.4,1188.9,675.8,1189z"/>
<path class="st3" d="M680,1191.1v19.3c-0.8,0.9-1.9,1.6-3.1,1.9v-23.3C678.1,1189.5,679.2,1190.2,680,1191.1z"/>
<path class="st2" d="M645.7,1170.2v13.5c0,1.1-0.4,2.1-1.1,2.9c-0.8,0.9-1.9,1.6-3.1,1.9c-0.4,0.2-0.8,0.2-1.2,0.2l-0.4,0.1h-0.3
	H369.4c-3.5,0-6.4-2.2-6.5-5c0-0.1,0-0.2,0-0.2v-13.6c0-0.1,0-0.2,0-0.2c0.2-2.7,3-5,6.5-5h270.2c0.2,0,0.6,0,0.8,0.1
	c0.4,0.1,0.8,0.2,1.2,0.2c0.2,0.1,0.4,0.2,0.6,0.2l0.3,0.2l0,0l0.3,0.2h0.1l0.3,0.2c0.2,0.2,0.4,0.3,0.7,0.5l0.2,0.2l0,0l0.1,0.1
	l0,0l0.2,0.2l0.2,0.3C645.3,1168,645.7,1169,645.7,1170.2z"/>
<path class="st3" d="M513.3,1188.9H368.7c-3,0.1-5.6-2.1-5.8-5c0-0.1,0-0.2,0-0.2v-13.5c0-0.1,0-0.2,0-0.2c0.2-2.9,2.8-5,5.8-5
	h126.8c0.1,0.2,0.1,0.4,0.2,0.5C498.4,1175,504.6,1183.3,513.3,1188.9L513.3,1188.9z"/>
<rect x="609.8" y="1165" class="st3" width="3.1" height="23.9"/>
<rect x="599.5" y="1165" class="st3" width="3.1" height="23.9"/>
<rect x="587" y="1165" class="st3" width="3.1" height="23.9"/>
<rect x="567.9" y="1165" class="st3" width="3.1" height="23.9"/>
<rect x="547.8" y="1165" class="st3" width="3.1" height="23.9"/>
<rect x="516.8" y="1165" class="st3" width="3.1" height="23.9"/>
<rect x="487.9" y="1165" class="st3" width="3.1" height="23.9"/>
<rect x="462" y="1165" class="st3" width="3.1" height="23.9"/>
<rect x="619.7" y="1165" class="st3" width="3.1" height="23.9"/>
<rect x="626.2" y="1165" class="st3" width="3.1" height="23.9"/>
<rect x="632.6" y="1165" class="st3" width="3.1" height="23.9"/>
<path class="st3" d="M640.3,1165.1v23.7c-0.4,0.1-0.7,0.1-1.1,0.1h-1.9v-23.9h1.9C639.6,1165,639.9,1165,640.3,1165.1z"/>
<path class="st3" d="M644.6,1167.3v19.3c-0.8,0.9-1.9,1.6-3.1,1.9v-23.3C642.8,1165.6,643.9,1166.3,644.6,1167.3z"/>
<path class="st2" d="M665.6,1146.8v13.5c0,1.1-0.4,2.1-1.1,2.9c-0.8,0.9-1.9,1.6-3.1,1.9c-0.4,0.2-0.8,0.2-1.2,0.2
	c-0.4,0.1-0.7,0.1-1.1,0.1H389.3c-1,0-2-0.2-2.9-0.5c-1.9-0.7-3.3-2.2-3.6-4.2c0-0.1,0-0.2,0-0.2s0-0.2,0-0.2v-13.4
	c0-0.1,0-0.2,0-0.2c0.2-2.6,2.6-4.6,5.7-4.9c0.2,0,0.5,0,0.8,0H659c0.4,0,0.7,0,1.1,0.1s0.8,0.2,1.2,0.2c1.2,0.4,2.3,1,3.1,1.9
	C665.2,1144.8,665.6,1145.8,665.6,1146.8z"/>
<path class="st3" d="M533.1,1165.6H388.5c-0.9,0-1.8-0.2-2.6-0.5c-1.8-0.8-2.9-2.3-3.2-4.2c0-0.1,0-0.2,0-0.2s0-0.2,0-0.2v-13.5
	c0-0.1,0-0.2,0-0.2c0.2-2.6,2.4-4.7,5.1-4.9c0.2,0,0.5,0,0.7,0h126.8l0,0c2.6,9.4,8.6,17.7,16.9,23.3L533.1,1165.6z"/>
<rect x="629.7" y="1141.6" class="st3" width="3.1" height="23.9"/>
<rect x="619.3" y="1141.6" class="st3" width="3.1" height="23.9"/>
<rect x="606.9" y="1141.6" class="st3" width="3.1" height="23.9"/>
<rect x="587.8" y="1141.6" class="st3" width="3.1" height="23.9"/>
<rect x="567.6" y="1141.6" class="st3" width="3.1" height="23.9"/>
<rect x="536.7" y="1141.6" class="st3" width="3.1" height="23.9"/>
<rect x="507.7" y="1141.6" class="st3" width="3.1" height="23.9"/>
<rect x="481.8" y="1141.6" class="st3" width="3.1" height="23.9"/>
<rect x="639.5" y="1141.6" class="st3" width="3.1" height="23.9"/>
<rect x="646.1" y="1141.6" class="st3" width="3.1" height="23.9"/>
<rect x="652.3" y="1141.6" class="st3" width="3.1" height="23.9"/>
<path class="st3" d="M660.2,1141.7v23.8c-0.4,0.1-0.7,0.1-1.1,0.1h-1.9v-23.9h1.9C659.4,1141.6,659.8,1141.7,660.2,1141.7z"/>
<path class="st3" d="M664.4,1143.9v19.3c-0.8,0.9-1.9,1.6-3.1,1.9V1142C662.5,1142.3,663.6,1143,664.4,1143.9z"/>
<path class="st2" d="M674,1122.9v13.5c0,1.1-0.4,2.1-1.1,2.9c-0.8,0.9-1.9,1.6-3.1,1.9c-0.4,0.2-0.8,0.2-1.2,0.2l-0.4,0.1h-0.2
	H397.7c-3.5,0-6.4-2.2-6.5-5c0-0.1,0-0.2,0-0.2v-13.5c0-0.1,0-0.2,0-0.2c0.2-2.7,3-5,6.5-5h269.8c0.4,0,0.7,0,1.1,0.1
	s0.8,0.2,1.2,0.2c1.2,0.4,2.3,1,3.1,1.9C673.6,1120.8,674,1121.8,674,1122.9z"/>
<path class="st3" d="M541.5,1141.7H397c-3,0.1-5.6-2.1-5.8-5c0-0.1,0-0.2,0-0.2V1123c0-0.1,0-0.2,0-0.2c0.2-2.9,2.8-5,5.8-5h126.8
	C526.5,1127.4,532.8,1136,541.5,1141.7L541.5,1141.7z"/>
<rect x="638.1" y="1117.7" class="st3" width="3.1" height="23.9"/>
<rect x="627.7" y="1117.7" class="st3" width="3.1" height="23.9"/>
<rect x="615.3" y="1117.7" class="st3" width="3.1" height="23.9"/>
<rect x="596.2" y="1117.7" class="st3" width="3.1" height="23.9"/>
<rect x="576" y="1117.7" class="st3" width="3.1" height="23.9"/>
<rect x="545.1" y="1117.7" class="st3" width="3.1" height="23.9"/>
<rect x="516.2" y="1117.7" class="st3" width="3.1" height="23.9"/>
<rect x="490.3" y="1117.7" class="st3" width="3.1" height="23.9"/>
<rect x="648" y="1117.7" class="st3" width="3.1" height="23.9"/>
<rect x="654.5" y="1117.7" class="st3" width="3.1" height="23.9"/>
<rect x="660.8" y="1117.7" class="st3" width="3.1" height="23.9"/>
<path class="st3" d="M668.7,1117.8v23.7c-0.4,0.1-0.7,0.1-1.1,0.1h-2v-23.9h1.9C667.9,1117.7,668.3,1117.7,668.7,1117.8z"/>
<path class="st3" d="M672.9,1120.1v19.3c-0.8,0.9-1.9,1.6-3.1,1.9V1118C671,1118.4,672.1,1119.1,672.9,1120.1z"/>
<ellipse class="st10" cx="375.6" cy="1257.1" rx="128.2" ry="121.8"/>
<ellipse class="st2" cx="364.4" cy="1257.1" rx="128.2" ry="121.8"/>
<path class="st3" d="M364.4,1369.5c-64.5,0-116.8-49.7-116.8-110.9s52.3-110.9,116.8-110.9s116.8,49.7,116.8,110.9
	c0,29.5-12.3,57.7-34.2,78.4C425.1,1357.9,395.3,1369.6,364.4,1369.5z M364.4,1154.2c-60.6,0-109.9,46.8-109.9,104.3
	c0,57.5,49.3,104.3,109.9,104.3s109.9-46.8,109.9-104.3C474.2,1201.1,424.9,1154.2,364.4,1154.2z"/>
<path class="st3" d="M380.5,1290.7c0.3-2.2,0.2-4.3-0.2-6.4c-0.5-1.9-1.5-3.8-2.9-5.3c-1.6-1.9-3.6-3.5-5.7-4.8
	c-2.9-1.8-5.8-3.3-8.9-4.7c-5.6-2.6-11.1-5.4-16.4-8.5c-4.5-2.6-8.7-5.8-12.2-9.5c-3.3-3.3-5.7-7.3-7.3-11.5
	c-1.6-4.3-2-9.2-1.2-14.8c0.5-4.6,2-9,4.4-12.9c2.3-3.8,5.3-7.1,9-9.6c3.9-2.6,8.3-4.7,13-5.9c5.3-1.4,10.7-1.9,16.2-1.8l2.3-18.3
	l15.5,1.8l-2.3,18.5c5.1,1.2,10.1,3.2,14.6,5.9c8.4,5,14.3,13,16.3,22.2c1.1,5.2,1.4,10.5,0.7,15.7l-28.2-3.2
	c0.8-6.8-0.1-12.1-2.9-15.9c-2.8-3.8-6.9-5.9-12.2-6.5c-2.5-0.3-5.1-0.2-7.7,0.3c-2,0.5-3.9,1.3-5.6,2.6c-1.6,1.2-2.8,2.7-3.6,4.4
	c-0.9,1.9-1.5,3.8-1.7,5.8c-0.2,1.9-0.2,4,0.2,5.8c0.5,1.9,1.4,3.6,2.8,5.1c1.6,1.9,3.6,3.5,5.8,4.8c2.9,1.9,6,3.6,9.2,5
	c6,2.9,11.4,5.8,16.2,8.8c4.5,2.6,8.7,5.9,12.2,9.5c6.9,7.1,10,16.7,8.5,26.3c-0.5,4.7-2,9.1-4.5,13.2c-2.3,3.7-5.4,7-9.1,9.5
	c-3.9,2.6-8.4,4.6-13.1,5.7c-5.3,1.2-10.8,1.8-16.2,1.6l-2.1,17l-15.4-1.7l2.1-16.9c-5.2-1.1-10.4-2.8-15.1-5.1
	c-4.7-2.2-8.9-5.2-12.4-8.9c-3.6-3.8-6.2-8.3-7.8-13.3c-1.7-5.2-2.1-11.2-1.3-18l28,3.2c-0.6,3.4-0.3,7,0.6,10.3
	c0.7,2.6,2.1,5,4,7.1c1.8,1.9,4,3.3,6.4,4.2c2.4,0.9,5.1,1.6,7.7,1.9c2.7,0.4,5.5,0.3,8.2-0.2c2.2-0.4,4.3-1.2,6.1-2.4
	c1.7-1.1,3.1-2.6,4.1-4.3C379.6,1294.7,380.2,1292.7,380.5,1290.7z"/>
<path class="st9" d="M600.1,1089.9c-13.1,21.7-29.6,30.1-29.6,30.1h-68.7C501.7,1120,610.1,1073.4,600.1,1089.9z"/>
<path class="st14" d="M547.4,1257.8c-1.7,1.8-2.1,4.3-1.1,6.4l0,0c1.6,4.3,7,9.1,13.3,13.9c0.8,0.6,1.6,1.2,2.1,1.7l0.5,0.4l0.4,0.3
	c5.9,5.1,3.7,6.3,14.2,16.7c12,11.9,20.2,12.1,22.6,11c2-0.9-2-7.2-6.5-14.3l-0.7-1c-0.6-0.9-1.2-1.9-1.8-2.9
	c-5.2-8.5-3.9-12.5-2.7-25.2c1-10.3,16.9-57.5,16.9-57.5l-23-3.8c0,0-6.9,37.6-14.5,43.4c-4.1,3.1-8.7,3.1-12.6,5.4l-0.8,0.5
	C551.3,1254.3,549.2,1255.9,547.4,1257.8z"/>
<path class="st9" d="M547.4,1257.8c-1.7,1.8-2.1,4.3-1.1,6.4l0,0c2,4.3,7.3,9.1,13.4,13.9c0.8,0.6,1.5,1.2,2.1,1.7l0.5,0.4l0.4,0.3
	c5.9,5.1,3.7,6.3,14.2,16.7c12,11.9,20.2,12.1,22.6,11c2-0.9-2-7.2-6.5-14.3c-8.4-3.1-15.8-8.3-21.4-15c-7.3-8.8-12.1-20-17-26.6
	l-0.8,0.5C551.3,1254.3,549.2,1255.9,547.4,1257.8z"/>
<path class="st14" d="M733,1244.2c1.4,6.7,11.6,5.7,22.9,3s8.7,0.5,24.7-1.2c16.1-1.6,21-7.4,21.5-9.7c0.4-2-7.5-2.7-16.1-3.6
	l-3.3-0.4c-9.6-1.2-16.7-7.1-25.5-11.9c-8.3-4.6-20.7-23.3-20.7-23.3l-22.1,1.6c0,0,11.6,16.7,16.1,23.9c2.6,4.3,2.5,9.9,2.2,14.3
	C732.5,1239.3,732.6,1241.8,733,1244.2z"/>
<path class="st9" d="M755.8,1247.2c11.3-2.6,8.7,0.5,24.7-1.2c16.1-1.6,21-7.4,21.5-9.7c0.4-2-7.5-2.7-16.1-3.6l-0.1,0.2
	c-6.9,4.2-14.9,6.6-23.1,6.8c-10.9,0.2-22.5-2.7-30-2.6c-0.2,2.4-0.2,4.8,0.2,7.2C734.4,1250.9,744.5,1249.8,755.8,1247.2z"/>
<path class="st9" d="M648.3,1110.1l-20.7,52.8l-26.9,68.9c-4.8,0.3-9.6-0.1-14.3-1.2c-6.4-1.8-13.9-6.4-13.9-6.4
	s7.5-73.9,21.5-116.4c3.6-10.9,7.6-19.7,12-24.6C627.7,1058.7,648.3,1110.1,648.3,1110.1z"/>
<path class="st11" d="M627.3,1026.3c-13.5-4.1-52.1,1.2-90.8,8.4l-8.1-12.7l-83.7-6.2c0,0-27.6,58.1-12.5,95.2
	c2.2,5.4,7.8,7.8,15.3,7.8l0,0c0,0,50,1.2,66.1,1.2c41.6,0,88.1-27.2,94.1-28.3c9.8-1.9,13.8,16.8,23.6,36.4s92.5,86.9,92.5,86.9
	s12.7,0.2,18-1.8c5.6-2,7.7-4.7,7.7-4.7S657.8,1035.7,627.3,1026.3z"/>
<path class="st9" d="M519.5,788.6c-4.9-2.7-10.4-4.1-16.1-4c-2.7,0.1-5.3-0.2-8-0.5c-31.8-4-50.9,39.7-51.9,52.9
	c-2,24.4-15.7,28.1-34.9,43.5c-38.4,30.7-27.2,66.3-6.1,79.6c12.7,8,34.9,0,34.9,0c0.3,0.2,60.8-32.1,90.6-47.7
	C572.5,906.4,537.4,798.7,519.5,788.6z"/>
<path class="st14" d="M502.9,899.2c0.2,0.1-14.7,4.9-24.6,0.7c-9.3-3.9-16.3-18.4-16.2-18.4c4.2-0.2,8.9-3.7,12.5-26.7l1.8,0.6
	l30.3,10.4c0,0-2.2,9.2-3.6,18.1C501.9,891.1,501.3,898.2,502.9,899.2z"/>
<path class="st15" d="M506.6,865.7c0,0-2.2,9.2-3.6,18.1c-17.4-2.9-24.2-19.5-26.7-28.4L506.6,865.7z"/>
<path class="st14" d="M511.2,874.9c0,0-41.5-5.3-37.6-29.8c3.8-24.5,1.1-41.6,27.8-39.3s30.3,12.4,31.1,20.8
	C533.3,835.1,522.1,875.6,511.2,874.9z"/>
<path class="st9" d="M531,813.3c0,0-26.5,21.7-44.6,23.5c-18.1,1.8-24.9-3.7-24.9-3.7c7.2-6.1,13-13.6,17.1-21.9
	c1.9-4,5.9-6.7,10.4-7.1C501.8,802.9,526.3,802.4,531,813.3z"/>
<path class="st9" d="M514.3,811.3c0,0,8.9,8.1,11.7,14.2c2.7,5.8,3.5,19.8,1.4,25.3c0,0,13.9-25.6,6-38
	C525.1,799.7,514.3,811.3,514.3,811.3z"/>
<path class="st16" d="M537.8,957.2c-1.2,79.8-0.3,63.1-9.6,70.6c-2.2,1.8-8.4,2.9-16.7,3.4c-25.7,1.6-71-2.4-72.7-6.9
	c-6-15.7-1.7-20.5-6.7-44.4c-0.5-2.6-1.1-5.3-1.9-8.3c-4.2-16.4-8.2-22,6.5-48.4c13.3-23.9,27.1-43.3,28.3-42.6
	c35.1,19.8,37.9,3.2,37.9,3.2S538.4,918.4,537.8,957.2z"/>
<path class="st11" d="M627.7,1162.8l-26.9,68.9c-4.8,0.3-9.6-0.1-14.3-1.2c-6.4-1.8-13.9-6.4-13.9-6.4s7.5-73.9,21.5-116.4
	L627.7,1162.8z"/>
<path class="st16" d="M503.1,883.7c0,0,36.1,5.8,40.3,20.5s29.1,101.5,29.1,101.5s-18.4,3.1-26.8-4.9c-8.4-8-29.5-74.6-29.5-74.6
	L503.1,883.7z"/>
<path class="st17" d="M511.7,1031.3c-25.7,1.6-71-2.4-72.7-6.9c-6-15.7-1.7-20.5-6.7-44.4l12.4-33.2c0,0-2,37,9.4,46.7
	s47,18.8,52.6,26.9C509.3,1024.3,511.1,1028.1,511.7,1031.3z"/>
<path class="st14" d="M482.2,1015.7c0,0,25.4-5.3,29.5-3.3c4.1,2.1,14.1,9.9,15.3,12.6c1.2,2.7-9.1-2.1-12.5-2.9
	c-2.2-0.5-7.9,1.3-10.8,2.2c-12,3.8-19.3,1.9-19.3,1.9L482.2,1015.7z"/>
<path class="st16" d="M465.2,880.6c0,0-34.1,2-45.9,17.7c-16.7,22-49.6,115.8-30.7,128.4c21.3,14.1,96.8,3.7,96.8,3.7
	s2.5-11.2-1-16.6s-60.3-14.1-63-16.6c-2.7-2.5,32.8-48.6,32.8-56C454.2,933.7,465.2,880.6,465.2,880.6z"/>
<path class="st14" d="M512.9,1019.2c0,0,5.3,6.5,7.1,7.3c0.9,0.5,1.9,0.6,2.9,0.6l-3.6-6.1L512.9,1019.2z"/>
<path class="st14" d="M511.7,1012.6l15.5,7.1c-0.7,0.7-1.6,1.1-2.5,0.9c-1.9-0.1-6.7-1.8-6.7-1.8L511.7,1012.6z"/>
<polygon class="st18" points="520,1036.5 642.4,1036.5 679.1,949.5 556.9,949.5 "/>
<polygon class="st19" points="643.8,1033.2 482.2,1033.2 482.2,1036.5 642.4,1036.5 "/>
<path class="st16" d="M611.5,993c0.9-3-1-5.5-4.2-5.5c-3.5,0.2-6.4,2.4-7.5,5.5c-0.9,3,1,5.5,4.2,5.5
	C607.5,998.4,610.4,996.2,611.5,993z"/>
<path class="st1" d="M1222.2,1044.9c0-0.5,2.7-53.2-24.2-65.3l1.9-1.7c12.2,4.1,25.9,16.7,31.3,34.4c4.1,13.2,1,16.1,1,16.6
	L1222.2,1044.9z"/>
<path class="st1" d="M1152.2,940.5c0,0-3.1,27.1,11.9,38.7c15,11.5,42.3,3.1,42.3,3.1s3.1-27.1-11.9-38.7
	C1179.5,932,1152.2,940.5,1152.2,940.5z"/>
<path class="st1" d="M1217.7,1143.7c-0.5-2.6-10.2-64.7,14.5-133.9c23.8-66.5,10.6-122.8,10.5-123.4h17.5c0.5,2.4,1.6,57.7-17,133.5
	c-16.7,68.2,14.5,123.8,7.9,123.8H1217.7z"/>
<path class="st1" d="M1254.4,960.5c0.1-0.4,8.4-45.8,30.9-51l0,0c-10,1.2-22.8,8.1-30,20.8c-5.3,9.5-3.4,12.2-3.5,12.5L1254.4,960.5
	z"/>
<path class="st1" d="M1164.5,839.8c0,0-24.2-32.5-51.8-42c0,0,10.3,76.2-4.7,77.1c-15,0.9-5.1-85.7-5.1-85.7s-71.7-37.8-100.8-36.7
	c0,0,41.2,76.1,26.4,73.6c-14.9-2.6-61.6-79.9-61.6-79.9s-74.8-17.5-89.5,24.4c-14.7,41.9,3.5,64.3,14.5,67.5
	c11,3.3,83,6.4,80.6,15.2C970,862,920.6,873.4,894,864c0,0,25.5,71.7,65,70.4c39.4-1.3,53-23.7,77.4-24.2
	c24.4-0.5,41.7,6.7,29.2,12.3c-12.5,5.6-53.4-0.9-74,13.8c-20.6,14.7-37.1,23.6-1.1,32.7c36,9.1,90.3-1.2,116.1-17.5
	c0.1-0.1,21.1-1.6,37.6,90.8c6.4,35.7,1.5,88.5,1.5,88.5l13.4-1.9c7.4-103.6-32-189.7-32-189.7S1194.1,892.2,1164.5,839.8z"/>
<path class="st13" d="M1383,976.5c0,0-80.5-32.1-51.7-90.5c0,0,24.2-36.6,53.5-48.4c0,0-6.4,83.2,10,83.4
	c16.4,0.2,0.2-93.2,0.2-93.2s75.4-45,107-45.5c0,0-40,84.9-24.1,81.2c15.9-3.6,61.9-90.1,61.9-90.1s80-23.2,98.6,21.5
	c18.6,44.6,0.2,69.8-11.6,74s-89.6,11.5-86.4,20.9s57.5,19.1,85.7,7.3c0,0-23.3,79.2-66.1,79.9c-42.9,0.7-58.9-22.8-85.4-21.9
	c-26.4,0.9-44.8,9.7-30.9,15s57.8-4,81.1,10.9c23.3,14.8,41.6,23.6,3.2,35.4s-109.6,14.7-127.3-12.6L1383,976.5z"/>
<path class="st1" d="M1602.7,813.1c0,0-204.1,88-219.7,163.4c0,0,4.9,32.5-11.8,72.2l1.7,14.4c0,0,16.4-51.2,27.7-59.3
	C1400.5,1003.8,1345.6,945.6,1602.7,813.1z"/>
<path class="st1" d="M1371.1,1048.7c0,0-27.1,50.6-1.6,106l8.2-3c0,0-15.7-62.3-2.4-96S1371.1,1048.7,1371.1,1048.7z"/>
<path class="st1" d="M1076.1,628.7c33,33.3,15.8,99.5,15.8,99.5s-70.7,12.2-103.7-21.2s-15.8-99.5-15.8-99.5
	S1043.1,595.3,1076.1,628.7z"/>
<path class="st13" d="M1076.1,628.7c33,33.3,15.8,99.5,15.8,99.5L972.5,607.5C972.5,607.5,1043.1,595.3,1076.1,628.7z"/>
<path class="st1" d="M1501.6,755.6c-17.2,18.9-56.2,13.9-56.2,13.9s-11-35.8,6.2-54.7c17.2-18.9,56.1-13.9,56.1-13.9
	S1518.8,736.7,1501.6,755.6z"/>
<path class="st1" d="M1298.1,922.3c-11.5,3-24.9-8.2-24.9-8.2s5.4-16.2,16.9-19.2s24.9,8.2,24.9,8.2S1309.7,919.2,1298.1,922.3z"/>
<path class="st1" d="M1094.3,566.9c7.9,17.8-9.1,41.6-9.1,41.6s-29.9-5-37.8-22.9c-7.9-17.8,9.1-41.6,9.1-41.6
	S1086.4,549.1,1094.3,566.9z"/>
<ellipse class="st10" cx="1253.2" cy="717.3" rx="176.1" ry="167.2"/>
<ellipse class="st2" cx="1238" cy="719.2" rx="176.1" ry="167.2"/>
<path class="st3" d="M1258.2,872.3c-87.9,10.5-168.1-48.6-179.2-132.1s51.2-159.6,139.1-170.1c87.9-10.5,168.1,48.6,179.2,132.1
	c5.3,40.1-6.4,80.5-32.4,112.4C1338.9,846.6,1300.4,867.4,1258.2,872.3z M1219.3,579.1c-82.5,9.8-141.2,81.6-130.8,160
	s86,134.1,168.5,124.2c82.5-9.9,141.2-81.6,130.8-160S1301.8,569.3,1219.3,579.1z"/>
<path class="st3" d="M1265.9,762.4c0-2.9-0.5-5.9-1.6-8.8c-1.1-2.6-2.8-5-4.9-6.8c-2.6-2.2-5.6-4.2-8.7-5.6c-4.2-1.9-8.5-3.6-13-5
	c-8.2-2.6-16.1-5.6-23.9-9c-6.6-2.8-12.8-6.5-18.4-10.9c-5-4-9.1-9-12-14.6c-2.9-5.6-4.3-12.2-4.3-19.9c-0.2-6.3,1.1-12.6,3.6-18.4
	c2.4-5.5,6-10.4,10.6-14.5c4.8-4.3,10.4-7.7,16.6-10.1c6.9-2.7,14.3-4.4,21.7-5l-0.2-25.3l21.5-0.2l0.2,25.7
	c7.3,0.8,14.4,2.7,21,5.7c12.3,5.4,21.8,15.4,26.3,27.7c2.5,6.8,3.8,14,3.7,21.3l-38.7,0.2c-0.1-9.5-2.4-16.5-6.8-21.2
	c-4.5-4.7-10.4-7-17.8-6.9c-3.5-0.1-7,0.5-10.4,1.7c-2.7,0.9-5.1,2.5-7.1,4.4c-1.9,1.9-3.3,4.1-4.1,6.6c-0.9,2.6-1.3,5.4-1.3,8.1
	s0.5,5.3,1.4,7.9c1,2.5,2.6,4.7,4.7,6.5c2.6,2.2,5.6,4.2,8.7,5.6c4.4,2.1,8.9,3.9,13.5,5.4c8.7,3,16.6,6.1,23.7,9.3
	c6.6,2.9,12.8,6.6,18.4,11c5,4,9.1,9,12,14.6c2.9,5.6,4.3,12.2,4.3,19.8c0.2,6.4-1.1,12.8-3.7,18.7c-2.4,5.4-6.1,10.3-10.7,14.3
	c-4.9,4.2-10.5,7.5-16.7,9.8c-7,2.6-14.4,4.3-21.9,4.9l0.2,23.5l-21.3,0.2l-0.2-23.4c-7.3-0.6-14.5-2.2-21.5-4.5
	c-6.8-2.2-13.1-5.7-18.5-10.1c-5.6-4.7-10-10.3-13-16.7c-3.3-6.7-4.9-14.9-5-24.3l38.7-0.2c0.1,5.6,0.9,10.2,2.6,14
	c1.5,3.4,3.8,6.5,6.7,8.9c2.8,2.2,6,3.8,9.5,4.7c3.5,0.9,7.2,1.3,10.8,1.3c3.8,0.1,7.5-0.5,11-1.6c2.9-0.9,5.6-2.4,7.9-4.3
	c2.1-1.8,3.8-4,4.7-6.4C1265.4,767.9,1265.9,765.2,1265.9,762.4z"/>
<polygon class="st20" points="1393.6,1127.6 1393.6,1127.7 1390.1,1178.9 1377,1369 1133.4,1369 1119.1,1181.5 1115.1,1129.8 
	1114.9,1127.6 "/>
<path class="st21" d="M1393.6,1127.7l-3.5,51.2c-18.4-6-69.4-20.7-135.8-20.7c-83.9,0-135.2,23.3-135.2,23.3l-3.9-51.7
	L1393.6,1127.7z"/>
<polygon class="st20" points="1402.1,1154.6 1106.1,1154.6 1102.8,1122 1405.8,1122 "/>
<polygon class="st21" points="1380.8,1379.2 1128.1,1379.2 1125.3,1367.8 1384,1367.8 "/>
<path class="st1" d="M943.8,1273.3c-0.2-1.2-4.6-29.1,6.5-60.2c10.7-29.9,4.7-55.3,4.7-55.5h7.8c0.2,1.1,0.7,26-7.6,60.1
	c-7.5,30.7,6.5,55.7,3.5,55.7L943.8,1273.3z"/>
<path class="st1" d="M960.3,1190.8c0.1-0.2,3.8-20.6,13.9-22.9l0,0c-4.5,0.5-10.3,3.6-13.5,9.4c-2.4,4.3-1.6,5.4-1.6,5.7
	L960.3,1190.8z"/>
<path class="st1" d="M941.6,1186.1c0,0-9.9-15.3-22-20.3c0,0,2.3,34.5-4.5,34.5s0.3-38.6,0.3-38.6s-31-18.9-44.2-19.3
	c0,0,16.2,35.3,9.6,33.7s-25.2-37.6-25.2-37.6s-33.1-9.9-41,8.4c-7.9,18.4-0.4,28.9,4.5,30.7c4.9,1.8,37.1,5.2,35.8,9
	c-1.3,3.8-23.9,7.7-35.5,2.6c0,0,9.3,32.9,27,33.3c17.7,0.5,24.5-9.2,35.5-8.8c11,0.5,18.5,4.2,12.7,6.4c-5.8,2.2-23.9-1.9-33.6,4.2
	s-17.4,9.6-1.5,14.6c15.9,5,40.6,1.9,52.6-4.7c0,0,9.6-0.2,14.1,41.8c1.8,16.2-2,39.8-2,39.8l6-0.5c6.4-46.3-8.6-86-8.6-86
	S953.3,1210.4,941.6,1186.1z"/>
<path class="st1" d="M980,1173.6c-5.2,1.4-11.2-3.7-11.2-3.7s2.4-7.3,7.6-8.7c5.2-1.4,11.2,3.7,11.2,3.7S985.1,1172.3,980,1173.6z"
	/>
<path class="st1" d="M1039.7,1062.5c-18.1,11.2-18,41.9-18,41.9s29.5,12.4,47.7,1.1c18.1-11.3,18-41.9,18-41.9
	S1057.8,1051.2,1039.7,1062.5z"/>
<path class="st13" d="M1039.7,1062.5c-18.1,11.2-18,41.9-18,41.9l65.6-40.8C1087.4,1063.6,1057.8,1051.2,1039.7,1062.5z"/>
<path class="st1" d="M1038.6,1033.6c-5.5,7-0.7,19.1-0.7,19.1s13.6,0.8,19-6.2s0.7-19.1,0.7-19.1S1044.1,1026.7,1038.6,1033.6z"/>
<ellipse class="st10" cx="959.9" cy="1081.5" rx="79.2" ry="75.2"/>
<ellipse class="st2" cx="953" cy="1082.3" rx="79.2" ry="75.2"/>
<path class="st3" d="M962,1151.2c-39.5,4.7-75.6-21.9-80.6-59.4c-5-37.5,23-71.8,62.5-76.5c39.5-4.7,75.6,21.9,80.6,59.4
	c2.4,18.1-2.9,36.2-14.6,50.5C998.3,1139.6,981,1149,962,1151.2z M944.6,1019.3c-37.1,4.4-63.5,36.7-58.9,71.9
	c4.7,35.3,38.6,60.3,75.7,55.9c37.1-4.4,63.5-36.7,58.9-71.9C1015.7,1039.9,981.7,1014.9,944.6,1019.3z"/>
<path class="st3" d="M965.5,1101.8c0-1.3-0.2-2.6-0.7-4c-0.5-1.2-1.2-2.2-2.2-3.1c-1.1-1-2.4-1.9-3.9-2.6c-1.9-0.9-3.8-1.6-5.8-2.2
	c-3.7-1.2-7.3-2.6-10.8-4c-3-1.2-5.8-2.9-8.3-4.9c-2.3-1.8-4.1-4-5.4-6.5c-2.5-5.5-2.6-11.6-0.3-17.2c1.1-2.5,2.7-4.7,4.7-6.5
	c2.2-1.9,4.7-3.5,7.5-4.6c3.1-1.2,6.4-2,9.8-2.2l-0.1-11.4l9.6-0.1l0.1,11.5c3.3,0.4,6.4,1.2,9.4,2.6c5.6,2.5,9.8,6.9,11.8,12.4
	c1.1,3.1,1.6,6.4,1.6,9.6l-17.4,0.2c0-4.3-1.1-7.4-3-9.5c-2-2.1-5-3.3-8-3.1c-1.6,0-3.2,0.2-4.7,0.8c-1.2,0.5-2.3,1.1-3.2,2
	c-0.8,0.9-1.5,1.9-1.9,2.9c-0.4,1.2-0.6,2.4-0.6,3.6s0.2,2.4,0.7,3.6c0.5,1.1,1.1,2.1,2.1,2.9c1.1,1,2.5,1.9,3.9,2.6
	c2,0.9,4,1.7,6,2.4c3.9,1.3,7.4,2.7,10.7,4.2c2.9,1.3,5.8,2.9,8.2,5c4.8,3.8,7.5,9.5,7.3,15.5c0.1,2.9-0.5,5.7-1.6,8.4
	c-1.1,2.5-2.8,4.7-4.8,6.4c-2.2,1.9-4.7,3.4-7.5,4.4c-3.1,1.2-6.4,1.9-9.8,2.2l0.1,10.5l-9.6,0.1l-0.1-10.5c-3.3-0.3-6.5-0.9-9.7-2
	c-3-1-5.9-2.6-8.3-4.6c-2.5-2.1-4.5-4.7-5.9-7.5c-1.6-3.5-2.3-7.2-2.3-10.9l17.4-0.2c-0.1,2.2,0.3,4.3,1.1,6.3c0.7,1.6,1.7,2.9,3,4
	c1.2,1,2.7,1.7,4.2,2.1c1.6,0.4,3.2,0.6,4.8,0.6c1.7,0,3.3-0.2,5-0.7c1.3-0.4,2.5-1.1,3.6-1.9c1-0.8,1.7-1.8,2.1-2.9
	C965.3,1104.2,965.5,1103,965.5,1101.8z"/>
<polygon class="st4" points="1022.9,1266 1022.9,1266.1 1021.4,1289.1 1015.5,1374.6 905.9,1374.6 899.4,1290.3 897.6,1267 
	897.5,1266 "/>
<path class="st5" d="M1022.9,1266.1l-1.6,23c-8.2-2.7-31.2-9.3-61.1-9.3c-37.8,0-60.8,10.5-60.8,10.5l-1.8-23.3L1022.9,1266.1z"/>
<polygon class="st4" points="1026.8,1278.2 893.6,1278.2 892.1,1263.5 1028.4,1263.5 "/>
<polygon class="st4" points="1017.1,1379.2 903.5,1379.2 902.2,1374.1 1018.6,1374.1 "/>
<path class="st14" d="M1474.5,939.6c0,0-12.5-2.3-15.3,0s-16.4,15.4-13.5,19.7s16.8-3.6,19.8-4.3c2.9-0.8,11-3.7,11-3.7
	L1474.5,939.6z"/>
<path class="st11" d="M1607.5,1359.8l13.4,4.7c0,0,58.3-76.7,65.5-144.2c1.3-12.1,0.8-23.7-2-34.5c0,0,0.6-3.1,1.6-8.5
	c0.5-2.6,1.1-5.7,1.7-9.1c1.9-10.3,4.5-24.4,7.5-40.5c6.9-37,15.8-84.2,22.6-118.9l-3.6-1.1l-39.1-12l-8.1-24.3l-29.1-7.3
	c0,0-6.5,12.1-12.3,69.2c-1.1,7.5-2,15.7-2.8,24.7c-2.7,33.3-1.7,66.8,2.8,100c1.3,9.9,3,20.2,5.1,30.7c1.6,7.8,1.8,18.2,1.1,30.3
	C1628.8,1274,1607.5,1359.8,1607.5,1359.8z"/>
<path class="st9" d="M1622.8,1057.8l63.3,119.4c0.5-2.6,1.1-5.7,1.7-9.1c1.9-10.3,4.5-24.4,7.5-40.5c6.9-37,15.8-84.2,22.6-118.9
	l-3.6-1.1l-39.1-11.9l-8.1-24.3L1638,964c0,0-6.5,12.1-12.3,69.2C1624.5,1040.5,1623.5,1048.8,1622.8,1057.8z"/>
<path class="st11" d="M1650.6,979.2l1.5-11.9c24.5,6.2,90-17.3,90-17.3s23.8,19.8,20.7,67.4c-1.6,23.2-4.3,121.8-7.2,151
	c-1.1,10.5-2,18.1-2.4,21.1l0,0c-0.1,0.9,0.2,1.8,0.7,2.6c4.2,6.8,7.8,14,10.7,21.4c28.5,72.2-4.4,161-4.4,161l-8.6-3.3
	c0,0-18.7-98.9-34-142.5c-2.6-7.4-5.1-13.3-7.3-16.7c-6.6-10.2-12.7-26.7-18.3-46.4c-10.5-37.3-19-85.7-24.7-123.1
	C1666.7,1042.5,1650.6,979.2,1650.6,979.2z"/>
<path class="st14" d="M1474.5,939.6l1.8,11.7c0,0,0.8,0,2.2-0.1c4.5-0.3,15.3-0.9,27.6-2.1c18.4-1.7,40.4-4.8,49.1-9.9
	c13.3-7.8,35.1-31.3,49.4-55c0.4-0.5,0.7-1.2,1-1.7c7.4-12.6,12.6-25,13-34.9c0.3-5.3-0.2-10.7-1.7-15.8c-1.5-5.2-4-10-7.5-14.3
	c-0.4-0.6-0.9-1.2-1.4-1.6c-2.7-3.2-6-5.8-9.6-7.8c-2.4-1-5.1,0.2-7.8,3v0.1c-2.8,2.9-5.1,6.3-7,9.8c-0.1,0.1-0.2,0.2-0.2,0.3
	c-0.5,0.9-1,1.9-1.6,2.9c-0.2,0.2-0.3,0.5-0.4,0.7c-1.1,2.2-2.2,4.6-3.3,7c-12.5,25.8-25.8,65-36.9,76.7c-4.7,5-26.6,14.9-44,22.2
	C1484.7,935.7,1474.5,939.6,1474.5,939.6z"/>
<path class="st14" d="M1603.8,834.6c7.7,3.4,17,5.7,28.2,6.3c42.2,2.2,51.8-32.9,53.5-56.2c-4.7-1.6-9.6-2.1-14.4-1.7
	c-3,0.2-6.1,0.5-8.7,0.8c-5.1-2.6-14.4-15-19.8-35.8l-1.8,0.8l-30.4,13.6c0,0,3.3,9.4,5.6,18.4c1.9,7.1,3.2,13.9,2.1,15.7
	c-2.4,0.9-3.8,1.6-3.8,1.6l0,0C1609.4,809.9,1606,822.1,1603.8,834.6z"/>
<path class="st18" d="M1593.2,860.9c0.3,0.8,0.7,1.6,1.1,2.4c10.7,21.9,30.4,112.3,30.4,112.3c-2.8,16.3,128.7-3.2,129-18
	c4.7-15.7-16.4-40.9-28.3-53.6c-1.5-1.6-2.9-3.3-4-5.1c-2.9-4.5-4.8-9.6-5.4-15c-2.4-21-1.5-40.7-1.6-52.6l0,0
	c-2.3-1.6-4.6-3.1-6.7-4.6c-2.9-1.9-5.6-4-8.1-6.4c-2.3-2.3-3.8-4.7-3.9-7.3c-0.1-2-0.1-4,0.2-6.1c0.1-1,0.2-1.9,0.4-2.9
	c1.2-6.7,3.3-13.2,6.1-19.4c-11.3-4.3-31.4-1.8-31.4-1.8s0,1.1,0,2.8c0.1,7,0,24.9-2.4,28.3c-2.9,4.3-56.8,22.7-59.7,17
	c-2.9-5.7,4.9-32,5.1-33l0,0c-18,6.7-24.5,12.4-24.5,12.4C1600.5,817.1,1584.7,839.7,1593.2,860.9z"/>
<path class="st22" d="M1629.5,672.1c0.1-1.7,1.5-20.5,31.5-21.4c0,0-14.8,1.7-17.3,7.8c0,0,10-7.6,18.2-5.2s13,16,13.1,20.5
	c0.1,4.5-4.5,18.9-9.7,20.2c-2,0.4-4.2,0.4-6.3,0c1.5,2.2,2.9,4.5,4,6.8c12,23.3-0.4,46.1-10.5,43.6c-6.5-1.6-8.3,8.9-8.3,8.9
	l-63.2-48.5C1581,704.9,1604.2,659.4,1629.5,672.1z"/>
<path class="st23" d="M1610.3,762.4c0,0,3.3,9.4,5.6,18.4c17.8-4.7,23.2-22.5,24.8-32L1610.3,762.4z"/>
<path class="st14" d="M1606.5,772.3c0,0,42.5-9.4,36-34.4c-6.5-25-5.5-43.2-32.9-38.3c-27.4,4.9-30.2,15.7-30.2,24.6
	S1595.3,774.1,1606.5,772.3z"/>
<path class="st22" d="M1577.1,710c4.6-9.1,10-8.6,13.3-7c20-17.6,39.6-3.3,39.6-3.3c7.6,17.3,23.9,24.4,23.9,24.4s-6.5,6.4-25.5,6.2
	c-5.8-0.1-11.6-2.6-16.9-6c6.6,6.2,14,11.5,22.2,15.7c-23.8-4.3-39.6-30.4-41.2-33.2c-2,2.8-5.9,8.8-6.2,13.9
	c-0.4,6.9,2,20.2-2.1,20.8C1584.2,741.5,1570.2,723.6,1577.1,710z"/>
<path class="st18" d="M1589.6,810.3c0,0-10.3,17-11.8,21.3c0,0,13.3-0.5,18.6,9.2C1596.5,840.9,1597.8,812.7,1589.6,810.3z"/>
<path class="st19" d="M1660.1,945.2c26-0.2,47.9-25.8,61.4-46.3c-2.9-4.5-4.8-9.6-5.4-15c-2.4-21-1.5-40.7-1.6-52.6l0,0
	c-2.3-1.6-4.6-3.1-6.7-4.6c-2.9-1.9-5.6-4-8.1-6.4C1678.4,854.5,1624.9,945.6,1660.1,945.2z"/>
<path class="st14" d="M1562,958.6l3.5,12.3c0,0,4.5-0.8,11.6-2c2.1-0.4,3.3-0.7,3.3-0.7c5.7-1.1,12.5-2.5,19.9-4h0.1
	c12.7-2.9,26.9-6.4,38.9-10.2c8.4-2.8,15.8-5.8,20.7-8.8c0.5-0.3,1-0.6,1.4-1c11.9-8.2,26-32.3,37-58.1c1.6-3.6,2.9-7.1,4.4-10.6
	c4.8-11.9,8.7-24.2,11.6-36.7c1.5-5.7,2.4-11.5,2.8-17.4c0.2-1.6,0.2-3.3,0.1-4.9c-0.2-28-14.9-31.8-14.9-31.8
	c-0.3-0.1-0.7-0.2-1-0.3c-2.5-0.4-5.1,1.2-7.9,4.4c-3.4,4-7.1,10.4-10.9,18.2c-5.8,12.4-11.9,28.5-17.5,44.6
	c-3.2,8.8-6.2,17.5-9.2,25.7c-1.7,4.9-3.4,9.5-5.1,13.8c-3.2,8.1-6,14.6-8.5,18.8c-1.6,2.7-6.3,6.4-12.5,10.7
	c-10.8,7.4-26.5,16.4-40.2,23.7c-5.7,3.1-11.1,5.9-15.5,8.2C1566.8,956.2,1562,958.6,1562,958.6z"/>
<path class="st18" d="M1682.7,807.1c19.5-5.1,34.6,9.4,34.6,9.4c-0.2-27.9-14.9-31.7-14.9-31.7
	C1696.6,782.4,1689.7,792.1,1682.7,807.1z"/>
<path class="st9" d="M1710.6,1381.2h67.6c0,0,1.6-9.8-1.9-17.2c-3.3-7.1-8.7-10.4-7.4-19c-4.3,4.2-11.3,8.9-21.1,7.7
	c-1.2,1.9-7.8,11.7-11.8,14.4C1731.7,1370.1,1711.9,1369,1710.6,1381.2z"/>
<path class="st9" d="M1565.5,1381.2h67.6c0,0,2.5-10.2-1.9-17.2c-3.9-6.2-2.4-9.7,0.5-14.8c-3.6,1.5-7.5,2.2-11.3,2
	c-3.3-0.2-6.9-1.6-10-3.3c-2.9,3.2-15.3,16.5-19.3,19.2C1586.5,1370.1,1566.9,1369,1565.5,1381.2z"/>
<path class="st24" d="M1558,1015.8l-16.1-37.2c-2.1-4.8-7.6-7.4-12.9-6c-5-9.1-12.2-16.8-21-22.6c-8.7-5.7-18.6-8.8-28.2-8.8
	c-5.1,0-10.3,1-15.1,2.9c-22.9,8.9-33.1,36.3-24.7,63.2l-1.2,0.5c0,0-3.9-0.2-10.4-0.2c-20.7,0-67.7,2.6-100.6,24.3
	c-1.3,1.5-2.1,3.3-2.1,5.3c0,1.2,0.2,2.4,0.7,3.5c0,0,53-32.6,101.9,0.9c3,2.1,6,4,8.7,5.7l4.4,10.2c7.3,16.9,27.7,25,45.5,18.1
	l44.8-17.4l9.3-3.6C1556.8,1048.1,1564.4,1030.8,1558,1015.8z M1471,985.7l-18.3,7.1c-4.9,1.9-7.6,7-6.3,11.9l-2,0.8
	c-7.4-24.5,1.6-49.2,22-57.1c2.8-1.1,5.8-1.9,8.8-2.2c9.4-1.2,19.2,1.2,28,6.4c8.9,5.4,16.2,12.9,21.1,21.8l-2.7,1
	c-2.7-4.3-8.3-6.1-13.2-4.3l-18.3,7.1c-1.9-4.3-7.2-6.4-11.8-4.7l-2.5,1C1471.4,976.4,1469.2,981.3,1471,985.7z"/>
<path class="st25" d="M1436.9,1047.1c-2.9-1.8-5.8-3.6-8.7-5.7c-49-33.5-101.9-0.9-101.9-0.9c-0.5-1.1-0.7-2.3-0.7-3.5
	c7.4-4.7,35.2-20.1,69.6-14.8C1435.5,1028.4,1442.7,1033.7,1436.9,1047.1z"/>
<path class="st25" d="M1541,1054.3l-9.3,3.6c14-7.3-3.3-38-13.5-58.2c-10.1-20.2-25.5-11-25.5-11c-3.5-6.8-11-6.4-11-6.4
	c-0.4-6.5-5.6-7.8-5.6-7.8l2.5-1c4.6-1.8,9.9,0.3,11.8,4.7l18.3-7.1c4.9-1.9,10.5-0.1,13.2,4.3l2.7-1c-5-8.9-12.2-16.4-21.1-21.8
	c-8.8-5.2-18.6-7.6-28-6.4c1.8-1.4,3.3-3,4.5-4.9c9.7-0.1,19.5,3.1,28.2,8.8c8.8,5.8,16,13.6,21,22.6c5.3-1.4,10.8,1.2,12.9,6
	l16.1,37.2C1564.5,1030.8,1556.9,1048.1,1541,1054.3z"/>
<path class="st14" d="M1520,970.5c6.5,2.6,15.7,11.6,30.3,6.2c8.8-3.1,17.8-5.7,26.9-7.8c2.1-0.4,3.3-0.7,3.3-0.7l-5.8-16
	c-0.2,0.1-0.5,0.2-0.7,0.2c-3.8,0.8-22.9,4.7-31.8,2.7c-10-2.2-26.9,9.2-26.9,9.2S1513.5,968.1,1520,970.5z"/>
<path class="st26" d="M1336.5,1067.4c0-5.8-11-23.6-11-23.6s-11,17.9-11,23.6c0.2,5.8,5.2,10.4,11.3,10.2
	C1331.6,1077.4,1336.4,1072.9,1336.5,1067.4L1336.5,1067.4z"/>
<path class="st27" d="M1636.4,373l-16.2,3.3l-0.4,0.1c-2,0.4-3.3,2.2-3.1,4l1.5,13.1c0,0.2,0,0.4,0,0.6c-0.1,1.5-1.1,2.7-2.6,3.3
	c-8.7,2.9-16.7,7.4-23.4,13.3c-0.2,0.2-0.6,0.5-0.9,0.6c-1.3,0.5-2.8,0.5-3.9-0.2l-9.6-6.1c-1.2-0.8-2.9-0.9-4.2-0.2
	c-0.4,0.2-0.7,0.5-1.1,0.9l-10.9,12.3c-1.3,1.6-1.2,3.8,0.2,5.2l10.9,10.3c1.1,1,1.4,2.6,0.9,3.9c-0.7,1.9-1.4,4-1.9,6
	c-1,3.8-1.6,7.6-1.9,11.5l0,0c-0.1,1.6-1.2,2.9-2.8,3.4l-14.9,4.4l-0.7,0.2c-2,0.5-3.1,2.5-2.7,4.3l3.6,15.7c0.5,1.9,2.4,3.2,4.4,3
	l15.3-1.6c1.7-0.2,3.3,0.7,4,2.2c3,6.2,7,11.9,11.9,16.9c1.2,1.3,1.4,3.2,0.3,4.7l-7.6,10.8c-1.1,1.6-0.8,3.8,0.7,5l13,10.4
	c1.6,1.2,3.8,1.2,5.2-0.2l12.8-12.1c1.1-1,2.7-1.4,4.2-0.9c1.8,0.5,3.6,1.1,5.5,1.6c3.4,0.9,6.9,1.4,10.5,1.7
	c1.6,0.1,2.9,1.2,3.3,2.6l5.6,17.1c0.6,1.9,2.6,2.9,4.7,2.6l16.7-3.4c1.7-0.4,3-1.8,3.1-3.5c0-0.2,0-0.4,0-0.5l-1.8-16.1
	c-0.2-1.5,0.6-2.9,2-3.7c0.1-0.1,0.2-0.2,0.3-0.2c0.4-0.2,0.7-0.3,1.1-0.5c4.5-1.9,8.7-4.3,12.7-7.2c1.3-0.9,3.2-1,4.5-0.1l12,7.7
	c1.7,1.1,4,0.8,5.3-0.7l2.4-2.7l8.5-9.5c1.3-1.5,1.2-3.7-0.2-5.1l-10.7-10.2c-1.1-1.1-1.5-2.7-0.7-4.1c1.8-3.7,3.3-7.6,4.2-11.6
	c0.7-3,1.3-6,1.6-9.1l3.1-0.9l12.8-3.8c1.6-0.5,2.7-1.8,2.8-3.3c0-0.3,0-0.6-0.1-0.9l-3.6-15.8c-0.5-1.9-2.3-3.1-4.3-2.9l-10.4,1.1
	c-1.8,0.2-3.4-0.9-4.1-2.4c-2.5-6.6-6.1-12.7-10.7-18.1c-1.1-1.2-1.1-3-0.2-4.3l9.6-14c1.1-1.6,0.7-3.6-0.7-4.8l-13.1-10.5
	c-1.6-1.2-3.8-1.2-5.2,0.2l-13.3,12.6c-1.1,1.1-2.9,1.4-4.3,0.8c-3.3-1.3-6.6-2.3-10.1-3.2c-1.9-0.5-3.8-0.8-5.6-1.1
	c-1.5-0.2-2.7-1.2-3.2-2.6l-5.3-16.4C1640.4,373.7,1638.4,372.6,1636.4,373z M1603.8,446.8c1.7-4.3,4.2-8.4,7.3-11.9
	c0.8-0.9,1.6-1.7,2.5-2.5c4.2-3.5,10.4-6.7,15.2-7.7c36.6-7.4,60.9,30.1,38.1,57.7c-0.4,0.5-0.7,0.9-1.1,1.3
	c-3.7,4.2-11.3,8.5-17,9.7c-2.8,0.6-5.6,0.9-8.6,1C1612.7,495.2,1594.8,470,1603.8,446.8L1603.8,446.8z"/>
<path class="st28" d="M1883.8,426.4l-25.5,2.2l-0.6,0.1c-3.1,0.3-5.5,2.7-5.6,5.7l-0.4,20.3c-0.1,2.6-2,4.9-4.7,5.4
	c-13.9,2.9-27,8.4-38.6,16.2c-0.5,0.3-1,0.5-1.6,0.8c-2,0.6-4.3,0.2-6-1.1l-13.5-11.2c-1.8-1.4-4.2-1.8-6.4-1
	c-0.7,0.3-1.3,0.6-1.8,1.1l-19.2,16.8c-2.4,2.1-2.7,5.6-0.7,8l14.6,17.8c1.5,1.8,1.7,4.1,0.7,6.1c-1.5,2.9-2.9,5.8-4.1,8.8
	c-2.3,5.6-4,11.3-5.2,17.2l0,0c-0.5,2.4-2.4,4.3-5,4.7l-23.8,4l-1.2,0.2c-3.1,0.5-5.2,3.2-5,6.1l2.4,24.7c0.3,3,2.9,5.3,6.1,5.4
	l23.8,0.4c2.6,0,4.9,1.7,5.7,4c3.3,10,8.4,19.5,14.8,28c1.6,2.2,1.5,5.1-0.4,7.1l-13.9,15.2c-2.1,2.2-2,5.7,0.2,7.9l17.8,18.4
	c2.1,2.2,5.6,2.4,8,0.6l22-16.3c1.9-1.4,4.4-1.6,6.5-0.7c2.6,1.2,5.3,2.3,8.1,3.3c5.1,1.9,10.4,3.4,15.8,4.5
	c2.4,0.5,4.2,2.2,4.7,4.6l5.1,27.1c0.6,2.9,3.4,5,6.6,4.8l26.2-2.2c2.8-0.2,5-2.2,5.5-4.8c0.1-0.3,0.1-0.5,0.1-0.9l0.5-25
	c0-2.3,1.5-4.4,3.8-5.3c0.2-0.1,0.4-0.2,0.6-0.2c0.7-0.2,1.2-0.3,1.8-0.5c7.3-2.2,14.3-5.1,20.9-8.7c2.2-1.2,5.1-0.9,6.9,0.7
	l16.9,13.9c2.4,1.9,6,1.9,8.3-0.2l4.2-3.7l14.9-13.1c2.4-2,2.6-5.5,0.7-7.8l-14.4-17.5c-1.6-1.9-1.6-4.4-0.3-6.4
	c3.5-5.4,6.5-11.1,8.9-17.1c1.8-4.4,3.3-9,4.4-13.6l5-0.9l20.4-3.5c2.5-0.4,4.5-2.2,4.9-4.7c0.1-0.5,0.1-1,0.1-1.5l-2.3-25
	c-0.3-2.9-2.9-5.2-6-5.3l-16.2-0.2c-2.8-0.1-5.1-1.9-5.8-4.4c-2.5-10.5-6.9-20.5-12.7-29.8c-1.4-2.1-1.1-4.9,0.6-6.7l17.5-19.1
	c2-2.2,1.9-5.3-0.2-7.4l-18-18.5c-2.1-2.2-5.6-2.5-8.1-0.6l-22.9,16.9c-2,1.5-4.7,1.6-6.9,0.5c-4.7-2.6-9.7-4.8-14.8-6.7
	c-2.8-1-5.6-1.9-8.5-2.7c-2.2-0.6-3.9-2.4-4.3-4.5l-4.8-26C1889.9,428.1,1887,426.1,1883.8,426.4z M1819,533.4
	c3.5-6.4,8.1-12,13.6-16.9c1.4-1.2,2.9-2.3,4.4-3.3c7.2-4.7,17.2-8.4,24.7-9c57.5-4.6,87.2,57.2,46.8,95.3c-0.7,0.6-1.3,1.2-2,1.9
	c-6.5,5.7-19.1,11-27.9,11.8c-4.4,0.4-8.9,0.4-13.3,0C1823,609.2,1800.5,567.4,1819,533.4L1819,533.4z"/>
</svg>
