<?xml version="1.0" encoding="utf-8"?>
<svg viewBox="0 0 500 500" xmlns="http://www.w3.org/2000/svg">
  <defs>
    <filter id="filter3892" height="1.2256" width="1.2394" color-interpolation-filters="sRGB" y="-.11278" x="-.11969">
      <feGaussianBlur id="feGaussianBlur3894" stdDeviation="7.1581857"/>
    </filter>
    <linearGradient id="linearGradient3102" y2="493.51" gradientUnits="userSpaceOnUse" x2="379.52" gradientTransform="matrix(.47611 0 0 .47611 13.741 -59.157)" y1="482.67" x1="30.028">
      <stop id="stop3823" style="stop-color:#e6e6e6" offset="0"/>
      <stop id="stop3825" style="stop-color:#e6e6e6;stop-opacity:0" offset="1"/>
    </linearGradient>
    <radialGradient id="radialGradient3953" gradientUnits="userSpaceOnUse" cy="340.93" cx="368.57" gradientTransform="matrix(.90441 -.013534 .0069497 .24303 32.862 263.06)" r="117.64">
      <stop id="stop3792" style="stop-color:#000000" offset="0"/>
      <stop id="stop3794" style="stop-color:#333333" offset="1"/>
    </radialGradient>
    <linearGradient id="linearGradient3955" y2="340.87" gradientUnits="userSpaceOnUse" x2="382.91" y1="327.58" x1="110.54">
      <stop id="stop3094" style="stop-color:#ffffff" offset="0"/>
      <stop id="stop3096" style="stop-color:#ffffff;stop-opacity:0" offset="1"/>
    </linearGradient>
    <linearGradient id="linearGradient3957" y2="350.88" gradientUnits="userSpaceOnUse" x2="362" gradientTransform="matrix(.34054 0 0 .30826 66.326 -2.9685)" y1="318.35" x1="362.84">
      <stop id="stop3931" style="stop-color:#552200" offset="0"/>
      <stop id="stop3933" style="stop-color:#552200;stop-opacity:0" offset="1"/>
    </linearGradient>
    <filter id="filter3910" color-interpolation-filters="sRGB">
      <feGaussianBlur id="feGaussianBlur3912" stdDeviation="1.4235939"/>
    </filter>
  </defs>
  <g id="layer101" fill="#002d4a" fill-rule="evenodd" transform="matrix(0.049391, 0, 0, 0.049391, -5.536752, 53.775715)" style="">
    <g id="layer1" transform="matrix(26.360415, 0, 0, 26.360415, 1737.991089, 2097.575684)" style="">
      <path id="path3118" style="filter:url(#filter3892);fill-rule:evenodd;fill:#000000" d="m130.17 98.12c56.531 24.23 83.617 8.587 115.91 0 0 0 31.076 100.77 0 131.84-27.321 27.321-88.593 27.321-115.91 0-31.076-31.076 0-131.84 0-131.84z"/>
      <path id="rect2985" style="fill-rule:evenodd;stroke:#000000;stroke-width:.37941;fill:#552200" d="m130.28 98.12c56.531 24.23 83.617 8.587 115.91 0 0 0 31.076 100.77 0 131.84-27.321 27.321-88.593 27.321-115.91 0-31.076-31.076 0-131.84 0-131.84z"/>
      <path id="path3819" d="m128.97 98.12c56.531 24.23 83.617 8.587 115.91 0 0 0 31.076 100.77 0 131.84-27.321 27.321-88.593 27.321-115.91 0-31.076-31.076 0-131.84 0-131.84z" style="fill-rule:evenodd;fill:url(#linearGradient3102)"/>
      <path id="path2990" style="fill-rule:evenodd;stroke:#000000;fill:#552200" transform="matrix(.49717 0 0 .68727 4.9716 -133.94)" d="m485.71 340.93c0 15.78-52.447 28.571-117.14 28.571-64.696 0-117.14-12.792-117.14-28.571 0-15.78 52.447-28.571 117.14-28.571 64.696 0 117.14 12.792 117.14 28.571z"/>
      <path id="path3780" style="opacity:.63393;fill-rule:evenodd;fill:url(#radialGradient3953)" transform="matrix(.49717 0 0 .68727 4.9716 -134.71)" d="m485.71 340.93c0 15.78-52.447 28.571-117.14 28.571-64.696 0-117.14-12.792-117.14-28.571 0-15.78 52.447-28.571 117.14-28.571 64.696 0 117.14 12.792 117.14 28.571z"/>
      <path id="path3090" style="opacity:.63393;fill-rule:evenodd;fill:url(#linearGradient3955)" transform="matrix(.49717 0 0 .68727 4.9716 -134.71)" d="m485.71 340.93c0 15.78-52.447 28.571-117.14 28.571-64.696 0-117.14-12.792-117.14-28.571 0-15.78 52.447-28.571 117.14-28.571 64.696 0 117.14 12.792 117.14 28.571z"/>
      <path id="rect3760" style="fill-rule:evenodd;stroke:#000000;stroke-width:.36947;fill:#cccccc" d="m176.21 99.638h26.854c1.5697 0 2.8334 1.2637 2.8334 2.8334s-1.2637 2.8334-2.8334 2.8334h-26.854c-1.5697 0-2.8334-1.2637-2.8334-2.8334s1.2637-2.8334 2.8334-2.8334z"/>
      <path id="rect3927" style="fill-rule:evenodd;stroke:#000000;stroke-width:.36947;fill:url(#linearGradient3957)" d="m176.21 99.638h26.854c1.5697 0 2.8334 1.2637 2.8334 2.8334s-1.2637 2.8334-2.8334 2.8334h-26.854c-1.5697 0-2.8334-1.2637-2.8334-2.8334s1.2637-2.8334 2.8334-2.8334z"/>
      <g id="text3904" style="filter:url(#filter3910);fill:#ffffff">
        <path id="path3932" style="fill:#ffffff" d="m158.6 159.16c0-0.15866 0.0737-0.35132 0.22101-0.57801 0.14733-0.22665 0.28333-0.33999 0.408-0.34 0.14734 0.00001 0.31734-0.13599 0.51001-0.40801 0.18133-0.27199 0.73667-0.45899 1.666-0.561 1.19-0.11333 1.972-0.16999 2.346-0.17001 0.476 0.00002 1.0597 0.0624 1.751 0.18701 1.9834 0.34001 3.3774 0.84435 4.182 1.513 0.80467 0.65735 1.207 1.6547 1.207 2.992-0.00002 1.19-0.20402 2.3177-0.61201 3.383-0.39668 1.0654-0.91236 1.955-1.547 2.669-0.63469 0.71401-1.3034 1.309-2.006 1.785-0.70268 0.46467-1.3884 0.77634-2.057 0.93501-0.28334 0.068-0.49301 0.17567-0.629 0.32301-0.13601 0.15867-0.20968 0.306-0.22101 0.442-0.0113 0.136-0.068 0.25501-0.17 0.35701-0.0907 0.11333-0.24367 0.17-0.45901 0.17-0.35134 0-0.52701-0.068-0.527-0.204-0.00001-0.0793-0.0453-0.14734-0.136-0.204-0.0907-0.0567-0.19268-0.10201-0.30601-0.13601-0.102-0.034-0.19834-0.10767-0.289-0.221-0.0907-0.11333-0.13601-0.26067-0.136-0.44201-0.00001-0.306 0.10766-0.49867 0.323-0.578 0.21533-0.0793 0.323-0.56101 0.323-1.445 0-0.46467-0.0283-0.93501-0.085-1.411-0.0567-0.48734-0.153-1.2184-0.289-2.193-0.12467-0.98601-0.24367-2.074-0.357-3.264l-0.27201-2.941-0.61201 0.051c-0.26067 0.0227-0.51001 0.11901-0.74801 0.289-0.238 0.15868-0.43067 0.31168-0.578 0.45901-0.14734 0.14734-0.26068 0.22101-0.34001 0.221-0.0793 0.00001-0.19267-0.0793-0.34-0.238-0.14734-0.16999-0.22101-0.31733-0.22101-0.44201m4.0631 0.051c-0.00001 0.35135 0.15866 1.683 0.476 3.9951 0.32867 2.312 0.493 3.8194 0.49301 4.5221-0.00001 0.22667-0.0113 0.45334-0.034 0.68l-0.136 0.86702h0.91801c1.0087 0 2.1534-0.71401 3.434-2.142 0.72533-0.81601 1.2127-1.6377 1.462-2.465 0.26065-0.82733 0.39099-1.836 0.391-3.026-0.00001-0.49866-0.0397-0.84433-0.119-1.037-0.068-0.19266-0.23235-0.43633-0.49301-0.73101-0.26068-0.28333-0.55535-0.49299-0.88401-0.62901-0.32868-0.13599-0.86702-0.27766-1.615-0.425-1.19-0.22666-2.2157-0.34-3.077-0.34001-0.31734 0.00001-0.53268 0.0397-0.64601 0.119-0.11334 0.0794-0.17001 0.28335-0.17 0.61201"/>
        <path id="path3934" style="fill:#ffffff" d="m174.76 162.94c0.88401-0.82733 1.6264-1.3713 2.227-1.632 0.612-0.27199 1.3827-0.408 2.312-0.40801 1.4053 0.00001 2.2837 0.41935 2.635 1.258 0.21533 0.49868 0.323 1.1107 0.32301 1.836-0.00001 1.2014-0.26635 2.4197-0.79901 3.655-0.53268 1.224-1.19 2.074-1.972 2.55-0.75935 0.46467-1.5584 0.69701-2.397 0.69701-1.1674 0-2.1024-0.40234-2.805-1.207-0.48734-0.56667-0.80468-1.0427-0.95201-1.428-0.14734-0.39667-0.221-0.95767-0.221-1.683 0-1.3714 0.54967-2.584 1.649-3.638m2.737 6.9871c0.95201 0.00001 1.8134-0.65167 2.584-1.955 0.782-1.3147 1.173-2.7994 1.173-4.4541-0.00001-0.24933-0.0283-0.43633-0.085-0.56101-0.0567-0.12466-0.15867-0.24933-0.306-0.374-0.41935-0.35133-0.86702-0.527-1.343-0.52701-0.0793 0.00001-0.17001 0.0113-0.272 0.034-0.0907 0.0113-0.24368 0.034-0.45901 0.068-0.21534 0.0227-0.47034 0.051-0.76501 0.085-0.39668 0.0567-0.71401 0.14735-0.95201 0.27201-0.22668 0.11334-0.51568 0.33434-0.86701 0.663-0.66868 0.63469-1.1447 1.224-1.428 1.768-0.28334 0.53268-0.42501 1.1164-0.42501 1.751 0 0.94068 0.289 1.7114 0.86701 2.312 0.58934 0.60068 1.3487 0.90668 2.278 0.91801"/>
        <path id="path3936" style="fill:#ffffff" d="m185.35 161.37c0-0.38533 0.11333-0.578 0.34001-0.57801 0.12466 0.00001 0.21533 0.0907 0.272 0.27201 0.0793 0.24934 0.221 1.3147 0.42501 3.196 0.22666 1.836 0.34566 2.7654 0.357 2.788 0.0113 0.0113 0.0567-0.0963 0.136-0.32301 0.0907-0.238 0.20967-0.58933 0.35701-1.054 0.22666-0.74801 0.41933-1.2864 0.578-1.615 0.15867-0.34 0.44201-0.80467 0.85002-1.394 0.82733-1.1447 1.4677-1.717 1.921-1.717 0.29466 0 0.57233 0.19834 0.83301 0.595 0.35133 0.52135 0.56667 1.037 0.64601 1.547 0.0793 0.51002 0.13599 1.717 0.17 3.621 0.0227 1.224 0.034 1.9494 0.034 2.176 0 0.56668-0.0227 0.98035-0.068 1.241-0.034 0.24933-0.0907 0.40234-0.17 0.459-0.068 0.068-0.19268 0.10767-0.374 0.11901-0.10201 0-0.17001-0.0453-0.20401-0.13601-0.034-0.0793-0.051-0.272-0.051-0.578-0.00001-0.17001 0.0113-0.53268 0.034-1.088 0.0227-0.56667 0.034-1.0427 0.034-1.428 0-0.96334-0.0397-1.904-0.119-2.822-0.068-0.92933-0.15301-1.5243-0.255-1.785-0.0567-0.14733-0.14734-0.30033-0.27201-0.45901-0.12467-0.15866-0.24367-0.23799-0.357-0.238-0.23801 0.00001-0.61768 0.40801-1.139 1.224-0.52134 0.80468-0.96901 1.6547-1.343 2.55-0.35135 0.81602-0.58935 1.445-0.71401 1.887-0.11334 0.43067-0.20968 1.02-0.28901 1.768-0.12467 1.156-0.21534 1.734-0.272 1.734-0.0907 0-0.22101-0.0963-0.39101-0.289-0.12467-0.12467-0.20967-0.39101-0.255-0.79901-0.0453-0.41934-0.10767-1.241-0.187-2.465-0.0793-1.2354-0.18701-2.482-0.32301-3.74-0.136-1.3034-0.204-2.193-0.204-2.669"/>
        <path id="path3938" style="fill:#ffffff" d="m199.89 162.1c-0.52134 0.00001-1.0767 0.10768-1.666 0.323-0.57801 0.21535-1.0937 0.43635-1.547 0.66301-0.45334 0.21535-0.78201 0.32302-0.98601 0.32301-0.13601 0.00001-0.20401-0.0567-0.20401-0.17 0-0.15867 0.034-0.29467 0.10201-0.40801 0.068-0.11333 0.19266-0.22099 0.374-0.323 0.18133-0.102 0.35134-0.187 0.51001-0.25501 0.17-0.068 0.43633-0.16432 0.79901-0.289 0.36267-0.13599 0.67434-0.26066 0.93501-0.37401 0.612-0.23799 1.1277-0.35699 1.547-0.357 0.748 0.00001 1.3317 0.40801 1.751 1.224 0.204 0.39668 0.323 0.76501 0.35701 1.105 0.034 0.32868 0.0623 1.2637 0.085 2.805 0.0113 0.86135 0.0283 1.5867 0.051 2.176 0.0227 0.57801 0.0453 0.94634 0.068 1.105l0.034 0.221c-0.00001 0.15867-0.0737 0.32868-0.221 0.51001-0.13601 0.18134-0.23801 0.272-0.306 0.272-0.22668 0-0.40235-0.357-0.52701-1.071-0.12468-0.72534-0.19268-1.088-0.204-1.088-0.034 0-0.085 0.0623-0.15301 0.187-0.22667 0.374-0.68568 0.78768-1.377 1.241-0.68002 0.44201-1.2524 0.66301-1.717 0.66301-0.28334 0-0.61768-0.051-1.003-0.153-0.37401-0.11333-0.64601-0.23233-0.81601-0.357-0.12467-0.102-0.23234-0.30601-0.32301-0.61201-0.0793-0.306-0.119-0.61767-0.119-0.93501 0-0.47601 0.12467-0.88401 0.37401-1.224 0.26067-0.35133 0.71967-0.70834 1.377-1.071 0.714-0.41934 1.4053-0.62901 2.074-0.62901 0.272 0 0.49867 0.0453 0.68001 0.136 0.18133 0.0907 0.31733 0.18701 0.40801 0.289 0.0907 0.0907 0.16433 0.13601 0.221 0.136 0.0453 0.00001 0.153 0.0623 0.32301 0.18701 0.16999 0.11334 0.26066 0.17 0.272 0.17 0.0453 0 0.068-0.12466 0.068-0.37401-0.00001-1.5187-0.10768-2.5727-0.323-3.162-0.20401-0.58933-0.51002-0.884-0.91802-0.88401m0.76501 5.2701c0-0.0453-0.017-0.0963-0.051-0.153-0.0227-0.068-0.0793-0.14167-0.17-0.221-0.0793-0.0907-0.18701-0.17-0.323-0.23801-0.12468-0.0793-0.30035-0.14166-0.52701-0.187-0.22668-0.0567-0.48168-0.085-0.76501-0.085-0.48735 0-0.91802 0.085-1.292 0.255-0.36267 0.17001-0.63468 0.38534-0.81601 0.64601-0.18134 0.26067-0.31734 0.50434-0.408 0.73101-0.0793 0.21534-0.11901 0.40801-0.11901 0.57801 0 0.28334 0.0227 0.47601 0.068 0.57801 0.0567 0.102 0.187 0.20967 0.39101 0.323 0.24933 0.12467 0.476 0.187 0.68001 0.187 0.38533 0 0.86134-0.136 1.428-0.408 0.578-0.28334 0.867-0.48734 0.86701-0.61201-0.00001-0.0907 0.17-0.306 0.51001-0.64601 0.35133-0.35133 0.527-0.60067 0.527-0.74801"/>
        <path id="path3940" style="fill:#ffffff" d="m207.18 158.75c0-0.41933-0.0397-0.952-0.119-1.598-0.0793-0.64599-0.119-1.1843-0.119-1.615 0-0.21532 0.006-0.35699 0.017-0.425 0.034-0.18132 0.0963-0.32299 0.187-0.42501 0.102-0.11332 0.204-0.16998 0.30601-0.17 0.136 0.00002 0.23233 0.0623 0.289 0.187 0.034 0.0794 0.085 0.49869 0.153 1.258 0.068 0.75936 0.13033 1.5017 0.18701 2.227 0.0567 0.72535 0.0963 1.0994 0.119 1.122 0.0113 0.0113 0.0283 0.017 0.051 0.017 0.0907 0.00001 0.35133-0.0453 0.78201-0.136 0.442-0.10199 0.80467-0.15299 1.088-0.153 0.56667 0.00001 0.85001 0.12468 0.85002 0.374-0.00001 0.24935-0.62335 0.52702-1.87 0.83302l-0.85001 0.204 0.102 2.873c0.0567 1.6887 0.16433 3.2697 0.323 4.7431 0.15867 1.462 0.238 2.2894 0.23801 2.482-0.00001 0.35134-0.13034 0.52701-0.39101 0.52701-0.20401 0-0.37401-0.18134-0.51-0.54401-0.12468-0.36267-0.18701-0.83301-0.18701-1.411 0-0.41933-0.017-0.84434-0.051-1.275-0.034-0.44201-0.0963-1.122-0.187-2.04-0.0793-0.92934-0.15867-1.8814-0.238-2.856-0.034-0.52133-0.0623-0.92367-0.085-1.207-0.0113-0.28333-0.0283-0.493-0.051-0.62901-0.0227-0.13599-0.0397-0.21533-0.051-0.23801-0.0113-0.034-0.034-0.051-0.068-0.051-0.18134 0.00001-0.61767 0.0624-1.309 0.18701-0.69135 0.12467-1.122 0.18701-1.292 0.187-0.32867 0.00001-0.49301-0.13599-0.49301-0.40801 0-0.19266 0.204-0.35699 0.61201-0.493 0.41934-0.13599 0.88968-0.255 1.411-0.35701 0.52134-0.11332 0.84434-0.20966 0.96901-0.289 0.12467-0.0907 0.187-0.391 0.187-0.90101"/>
        <path id="path3942" style="fill:#ffffff" d="m221.69 166.92c0.0566 0.00001 0.085 0.0453 0.085 0.13601-0.00001 0.204-0.15301 0.53267-0.45901 0.98601-0.29468 0.45334-0.61202 0.82735-0.95201 1.122-1.19 1.054-2.38 1.581-3.57 1.581-0.45334 0-0.90668-0.10201-1.36-0.30601-0.44201-0.21533-0.85568-0.51567-1.241-0.90101-0.38534-0.38534-0.69701-0.90101-0.93502-1.547-0.238-0.64601-0.357-1.3657-0.357-2.159 0-0.48733 0.0567-0.90101 0.17-1.241 0.22667-0.69133 0.70834-1.4223 1.445-2.193 0.74801-0.77066 1.4507-1.156 2.108-1.156 0.18133 0.00001 0.45333 0.017 0.81601 0.051 0.544 0.0453 0.92367 0.10201 1.139 0.17 0.22667 0.068 0.48167 0.20968 0.76501 0.42501 0.36267 0.27201 0.67434 0.62335 0.93502 1.054 0.27199 0.41935 0.40799 0.77069 0.408 1.054-0.00001 0.36267-0.14167 0.64034-0.425 0.83301-0.28335 0.18134-0.83302 0.36267-1.649 0.544-1.054 0.23801-2.0967 0.38535-3.128 0.44201l-1.581 0.085v0.68001c0 0.83868 0.391 1.632 1.173 2.38 0.58934 0.56668 1.2013 0.85001 1.836 0.85001 0.48734 0 1.003-0.14733 1.547-0.442 0.55534-0.30601 1.0257-0.64034 1.411-1.003 0.38533-0.36266 0.75367-0.69134 1.105-0.98601 0.35133-0.306 0.58933-0.459 0.71401-0.45901m-2.737-4.148c-0.35135-0.31733-0.61768-0.51567-0.79901-0.59501-0.17001-0.0907-0.39668-0.13599-0.68001-0.136-0.56668 0.00001-0.99168 0.0567-1.275 0.17-0.272 0.10201-0.54967 0.31735-0.83301 0.64601-0.86135 0.98602-1.292 1.6434-1.292 1.972 0 0.14734 0.136 0.22101 0.40801 0.221 1.0313 0.00001 2.4934-0.21533 4.3861-0.64601 0.56667-0.13599 0.85-0.374 0.85001-0.71401-0.00001-0.15866-0.25501-0.46466-0.76501-0.91801"/>
        <path id="path3944" style="fill:#ffffff" d="m183.2 185.53c-0.0907 0.00001-0.17567-0.034-0.255-0.102-0.0793-0.068-0.119-0.16433-0.119-0.289 0-0.12466 0.0283-0.23233 0.085-0.32301 0.068-0.10199 0.187-0.24366 0.357-0.425 0.17-0.19266 0.32867-0.391 0.47601-0.59501l0.56101-0.74801c0.0793-0.10199 0.221-0.32866 0.425-0.68001 0.204-0.36266 0.39667-0.663 0.57801-0.90101 0.19267-0.24933 0.36267-0.374 0.51001-0.37401 0.238 0.00001 0.39666 0.36269 0.476 1.088 0.068 0.61202 0.136 1.819 0.20401 3.621 0.068 1.7907 0.10199 3.2754 0.102 4.4541-0.00001 0.74801-0.017 1.1617-0.051 1.241-0.0907 0.19267-0.19268 0.28901-0.30601 0.28901-0.15867 0-0.30601-0.19834-0.442-0.59501-0.14734-0.41934-0.22101-1.836-0.22101-4.2501-0.0113-2.448-0.0793-3.672-0.204-3.672-0.0907 0.00001-0.27201 0.19268-0.54401 0.57801-0.272 0.37401-0.56667 0.74802-0.88401 1.122-0.306 0.37401-0.55534 0.56101-0.74801 0.561"/>
        <path id="path3946" style="fill:#ffffff" d="m195.51 183.76c-0.17001 0.00001-0.46468-0.14733-0.88401-0.44201-0.40801-0.30599-0.64035-0.45899-0.69701-0.459-0.0453 0.00001-0.10768 0.39101-0.187 1.173l-0.10201 1.139 0.54401 0.272c0.96334 0.48735 1.445 1.2127 1.445 2.176-0.00001 0.55535-0.18701 1.1504-0.56101 1.785-0.37401 0.62334-0.85001 1.02-1.428 1.19-0.43067 0.11334-0.71401 0.29467-0.85001 0.54401-0.12467 0.238-0.23801 0.78768-0.34 1.649-0.10201 0.90668-0.17568 1.3827-0.221 1.428-0.13601 0.068-0.34568 0.102-0.62901 0.102-0.10201 0-0.17001-0.0283-0.20401-0.085-0.034-0.0453-0.051-0.14167-0.051-0.289 0-0.62335 0.085-1.394 0.25501-2.312l0.204-1.207-0.61201-0.52701c-0.37401-0.31733-0.69134-0.71967-0.95201-1.207-0.26067-0.48734-0.39101-0.88968-0.39101-1.207 0-0.29467 0.11334-0.442 0.34001-0.44201 0.136 0.00001 0.26067 0.085 0.374 0.25501 0.12467 0.15867 0.27767 0.40801 0.45901 0.74801 0.19266 0.32867 0.374 0.60634 0.54401 0.83301l0.323 0.408 0.119-0.66301c0.0453-0.22666 0.12467-0.58367 0.23801-1.071 0.12466-0.49867 0.18699-0.84434 0.187-1.037-0.00001-0.29467-0.13601-0.476-0.40801-0.54401-0.35134-0.102-0.67434-0.29467-0.96901-0.57801-0.29467-0.29466-0.44201-0.58933-0.44201-0.88401 0-0.38533 0.18134-0.85 0.54401-1.394 0.374-0.544 0.75367-0.90667 1.139-1.088 0.29466-0.136 0.48166-0.272 0.561-0.40801 0.0907-0.13599 0.18133-0.45899 0.27201-0.96901 0.11333-0.70267 0.20966-1.1673 0.289-1.394 0.0567-0.19266 0.23233-0.28899 0.52701-0.289 0.15866 0.00001 0.26066 0.0113 0.306 0.034 0.0567 0.0227 0.085 0.085 0.085 0.187 0 0.0794-0.051 0.43068-0.153 1.054-0.10201 0.62336-0.15301 1.088-0.153 1.394-0.00001 0.23801 0.034 0.35702 0.102 0.35701 0.11333 0.00001 0.408 0.22668 0.88401 0.68001 0.476 0.45334 0.714 0.73668 0.71401 0.85001-0.00001 0.15867-0.0737 0.23801-0.221 0.238m-3.026 1.598c0.0567 0.00001 0.119-0.221 0.187-0.66301 0.068-0.442 0.102-0.86133 0.102-1.258 0-0.35133-0.0227-0.64034-0.068-0.86702l-0.56101 0.74801c-0.374 0.49869-0.56101 0.84436-0.561 1.037-0.00001 0.14734 0.11899 0.35134 0.357 0.61201 0.238 0.26067 0.41934 0.39101 0.54401 0.391m2.193 2.278c-0.00001-0.31733-0.085-0.595-0.25501-0.83301-0.17-0.238-0.33434-0.40233-0.493-0.49301l-0.25501-0.119c-0.12467 0.00001-0.272 0.45335-0.442 1.36-0.17001 0.89535-0.25501 1.6207-0.255 2.176-0.00001 0.31734 0.051 0.47601 0.153 0.47601 0.10199 0 0.272-0.119 0.51-0.35701 0.238-0.24933 0.47034-0.58367 0.69701-1.003 0.22667-0.41934 0.34-0.82168 0.34001-1.207"/>
      </g>
      <g id="text3898" style="fill:#000000">
        <path id="path3915" d="m160.99 158.73c0-0.15865 0.0737-0.35132 0.221-0.57801 0.14734-0.22665 0.28334-0.33999 0.40801-0.34 0.14733 0.00001 0.31733-0.13599 0.51-0.40801 0.18134-0.27199 0.73668-0.45899 1.666-0.561 1.19-0.11332 1.972-0.16999 2.346-0.17001 0.476 0.00002 1.0597 0.0624 1.751 0.18701 1.9834 0.34001 3.3774 0.84435 4.1821 1.513 0.80466 0.65735 1.207 1.6547 1.207 2.992-0.00001 1.19-0.20401 2.3177-0.61201 3.383-0.39668 1.0654-0.91235 1.955-1.547 2.669-0.63468 0.71401-1.3034 1.309-2.006 1.785-0.70269 0.46468-1.3884 0.77635-2.057 0.93501-0.28334 0.068-0.49301 0.17567-0.62901 0.32301-0.13601 0.15867-0.20967 0.306-0.221 0.442-0.0113 0.13601-0.068 0.25501-0.17 0.35701-0.0907 0.11333-0.24368 0.17-0.45901 0.17-0.35134 0-0.52701-0.068-0.52701-0.204 0-0.0793-0.0453-0.14734-0.136-0.204-0.0907-0.0567-0.19267-0.10201-0.306-0.13601-0.10201-0.034-0.19834-0.10766-0.28901-0.221-0.0907-0.11333-0.136-0.26067-0.136-0.442 0-0.30601 0.10767-0.49868 0.32301-0.57801 0.21533-0.0793 0.323-0.56101 0.323-1.445 0-0.46467-0.0283-0.93501-0.085-1.411-0.0567-0.48734-0.15301-1.2184-0.289-2.193-0.12468-0.98601-0.24368-2.074-0.35701-3.264l-0.272-2.941-0.61201 0.051c-0.26067 0.0227-0.51001 0.11901-0.74801 0.289-0.23801 0.15868-0.43068 0.31168-0.57801 0.45901-0.14734 0.14734-0.26067 0.22101-0.34 0.221-0.0793 0.00001-0.19267-0.0793-0.34001-0.238-0.14733-0.16999-0.221-0.31733-0.221-0.44201m4.063 0.051c0 0.35135 0.15867 1.683 0.47601 3.9951 0.32866 2.312 0.493 3.8194 0.49301 4.5221-0.00001 0.22667-0.0113 0.45334-0.034 0.68001l-0.13601 0.86701h0.91802c1.0087 0 2.1534-0.71401 3.434-2.142 0.72533-0.81601 1.2127-1.6377 1.462-2.465 0.26066-0.82734 0.39099-1.836 0.39101-3.026-0.00002-0.49867-0.0397-0.84434-0.119-1.037-0.068-0.19266-0.23235-0.43633-0.49301-0.73101-0.26068-0.28332-0.55535-0.49299-0.88401-0.62901-0.32868-0.13599-0.86702-0.27766-1.615-0.425-1.19-0.22666-2.2157-0.33999-3.077-0.34001-0.31734 0.00002-0.53268 0.0397-0.646 0.119-0.11334 0.0794-0.17001 0.28335-0.17001 0.61201"/>
        <path id="path3917" d="m177.15 162.51c0.88401-0.82733 1.6264-1.3713 2.227-1.632 0.61201-0.27199 1.3827-0.40799 2.312-0.408 1.4054 0.00001 2.2837 0.41934 2.635 1.258 0.21533 0.49868 0.32299 1.1107 0.323 1.836-0.00001 1.2014-0.26634 2.4197-0.79901 3.655-0.53268 1.224-1.19 2.074-1.972 2.55-0.75935 0.46467-1.5584 0.69701-2.397 0.69701-1.1674 0-2.1024-0.40234-2.805-1.207-0.48734-0.56667-0.80468-1.0427-0.95202-1.428-0.14733-0.39667-0.221-0.95767-0.221-1.683 0-1.3714 0.54967-2.584 1.649-3.638m2.737 6.9871c0.95201 0 1.8134-0.65168 2.584-1.955 0.78201-1.3147 1.173-2.7994 1.173-4.4541-0.00001-0.24933-0.0283-0.43633-0.085-0.56101-0.0567-0.12466-0.15868-0.24933-0.306-0.374-0.41935-0.35133-0.86702-0.527-1.343-0.52701-0.0793 0.00001-0.17001 0.0113-0.27201 0.034-0.0907 0.0113-0.24367 0.034-0.459 0.068-0.21535 0.0227-0.47035 0.051-0.76501 0.085-0.39668 0.0567-0.71402 0.14735-0.95202 0.27201-0.22667 0.11334-0.51567 0.33434-0.86701 0.66301-0.66868 0.63468-1.1447 1.224-1.428 1.768-0.28334 0.53268-0.425 1.1164-0.425 1.751 0 0.94068 0.289 1.7114 0.86701 2.312 0.58934 0.60068 1.3487 0.90668 2.278 0.91802"/>
        <path id="path3919" d="m187.75 160.94c-0.00001-0.38533 0.11333-0.578 0.34-0.57801 0.12467 0.00001 0.21534 0.0907 0.27201 0.27201 0.0793 0.24934 0.221 1.3147 0.425 3.196 0.22667 1.836 0.34567 2.7654 0.35701 2.788 0.0113 0.0113 0.0567-0.0963 0.136-0.32301 0.0907-0.238 0.20966-0.58933 0.357-1.054 0.22667-0.74801 0.41934-1.2864 0.57801-1.615 0.15866-0.34 0.442-0.80467 0.85001-1.394 0.82734-1.1447 1.4677-1.717 1.921-1.717 0.29466 0.00001 0.57233 0.19834 0.83301 0.595 0.35133 0.52135 0.56666 1.037 0.64601 1.547 0.0793 0.51002 0.13599 1.717 0.17 3.621 0.0227 1.224 0.034 1.9494 0.034 2.176-0.00001 0.56668-0.0227 0.98035-0.068 1.241-0.034 0.24934-0.0907 0.40234-0.17 0.459-0.068 0.068-0.19268 0.10767-0.37401 0.11901-0.10201 0-0.17001-0.0453-0.204-0.13601-0.034-0.0793-0.051-0.272-0.051-0.578-0.00001-0.17 0.0113-0.53268 0.034-1.088 0.0227-0.56667 0.034-1.0427 0.034-1.428-0.00001-0.96334-0.0397-1.904-0.119-2.822-0.068-0.92934-0.15301-1.5244-0.25501-1.785-0.0567-0.14733-0.14734-0.30033-0.272-0.459-0.12468-0.15866-0.24368-0.238-0.357-0.23801-0.23801 0.00001-0.61769 0.40802-1.139 1.224-0.52135 0.80468-0.96902 1.6547-1.343 2.55-0.35134 0.81602-0.58934 1.445-0.71401 1.887-0.11334 0.43067-0.20967 1.02-0.289 1.768-0.12467 1.156-0.21534 1.734-0.272 1.734-0.0907 0-0.22101-0.0963-0.39101-0.289-0.12467-0.12467-0.20967-0.391-0.255-0.79901-0.0453-0.41934-0.10767-1.241-0.18701-2.465-0.0793-1.2354-0.187-2.482-0.323-3.74-0.136-1.3034-0.20401-2.193-0.204-2.669"/>
        <path id="path3921" d="m202.28 161.68c-0.52135 0.00001-1.0767 0.10768-1.666 0.32301-0.57802 0.21534-1.0937 0.43634-1.547 0.663-0.45335 0.21535-0.78202 0.32302-0.98602 0.32301-0.136 0.00001-0.204-0.0567-0.204-0.17 0-0.15866 0.034-0.29467 0.102-0.40801 0.068-0.11333 0.19267-0.22099 0.37401-0.323 0.18133-0.102 0.35133-0.187 0.51-0.25501 0.17-0.068 0.43634-0.16432 0.79901-0.289 0.36267-0.13599 0.67434-0.26066 0.93502-0.37401 0.612-0.23799 1.1277-0.35699 1.547-0.357 0.748 0.00001 1.3317 0.40801 1.751 1.224 0.20399 0.39668 0.323 0.76501 0.357 1.105 0.034 0.32868 0.0623 1.2637 0.085 2.805 0.0113 0.86135 0.0283 1.5867 0.051 2.176 0.0227 0.57801 0.0453 0.94634 0.068 1.105l0.034 0.22101c-0.00001 0.15866-0.0737 0.32867-0.221 0.51-0.13601 0.18134-0.23802 0.27201-0.30601 0.27201-0.22668 0-0.40235-0.35701-0.52701-1.071-0.12467-0.72534-0.19267-1.088-0.204-1.088-0.034 0-0.085 0.0623-0.153 0.187-0.22668 0.37401-0.68568 0.78768-1.377 1.241-0.68001 0.442-1.2524 0.663-1.717 0.663-0.28334 0-0.61768-0.051-1.003-0.153-0.374-0.11333-0.64601-0.23233-0.81601-0.357-0.12467-0.102-0.23233-0.30601-0.323-0.61201-0.0793-0.306-0.119-0.61767-0.119-0.93501 0-0.47601 0.12466-0.88401 0.374-1.224 0.26067-0.35133 0.71968-0.70834 1.377-1.071 0.71401-0.41934 1.4054-0.62901 2.074-0.62901 0.272 0 0.49867 0.0453 0.68001 0.136 0.18133 0.0907 0.31733 0.18701 0.408 0.289 0.0907 0.0907 0.16433 0.13601 0.22101 0.13601 0.0453 0 0.15299 0.0623 0.323 0.187 0.17 0.11334 0.26066 0.17 0.272 0.17 0.0453 0 0.068-0.12466 0.068-0.374-0.00001-1.5187-0.10768-2.5727-0.32301-3.162-0.20401-0.58933-0.51001-0.884-0.91801-0.88401m0.76501 5.2701c-0.00001-0.0453-0.017-0.0963-0.051-0.153-0.0227-0.068-0.0793-0.14167-0.17-0.221-0.0794-0.0907-0.18701-0.17-0.32301-0.23801-0.12467-0.0793-0.30034-0.14166-0.52701-0.187-0.22667-0.0567-0.48167-0.085-0.76501-0.085-0.48734 0-0.91801 0.085-1.292 0.255-0.36268 0.17001-0.63468 0.38535-0.81601 0.64601-0.18134 0.26068-0.31734 0.50434-0.40801 0.73101-0.0793 0.21534-0.119 0.40801-0.119 0.57801 0 0.28334 0.0227 0.47601 0.068 0.57801 0.0567 0.102 0.187 0.20967 0.39101 0.323 0.24933 0.12467 0.476 0.187 0.68 0.187 0.38534 0 0.86134-0.136 1.428-0.408 0.57801-0.28334 0.86701-0.48734 0.86701-0.61201 0-0.0907 0.17-0.306 0.51001-0.64601 0.35133-0.35133 0.527-0.60067 0.52701-0.74801"/>
        <path id="path3923" d="m209.57 158.33c0-0.41933-0.0397-0.952-0.119-1.598s-0.11901-1.1843-0.119-1.615c-0.00001-0.21532 0.006-0.35699 0.017-0.425 0.034-0.18132 0.0963-0.32299 0.187-0.42501 0.102-0.11332 0.204-0.16998 0.306-0.17 0.136 0.00002 0.23234 0.0623 0.28901 0.187 0.034 0.0794 0.085 0.49869 0.153 1.258 0.068 0.75936 0.13033 1.5017 0.187 2.227 0.0567 0.72535 0.0963 1.0994 0.119 1.122 0.0113 0.0113 0.0283 0.017 0.051 0.017 0.0907 0.00002 0.35134-0.0453 0.78201-0.136 0.442-0.10199 0.80468-0.15299 1.088-0.153 0.56667 0.00001 0.85 0.12468 0.85001 0.37401-0.00001 0.24934-0.62335 0.52701-1.87 0.83301l-0.85002 0.204 0.10201 2.873c0.0567 1.6887 0.16433 3.2697 0.323 4.7431 0.15866 1.462 0.238 2.2894 0.238 2.482 0 0.35134-0.13034 0.52701-0.391 0.52701-0.20401 0-0.37401-0.18133-0.51001-0.54401-0.12467-0.36267-0.18701-0.83301-0.187-1.411-0.00001-0.41934-0.017-0.84435-0.051-1.275-0.034-0.442-0.0963-1.122-0.187-2.04-0.0793-0.92934-0.15868-1.8814-0.23801-2.856-0.034-0.52133-0.0623-0.92367-0.085-1.207-0.0113-0.28333-0.0283-0.493-0.051-0.62901-0.0227-0.13599-0.0397-0.21533-0.051-0.238-0.0113-0.034-0.034-0.051-0.068-0.051-0.18134 0.00001-0.61768 0.0624-1.309 0.18701-0.69134 0.12467-1.122 0.18701-1.292 0.187-0.32867 0.00001-0.493-0.13599-0.493-0.40801 0-0.19266 0.204-0.35699 0.61201-0.493 0.41933-0.13599 0.88967-0.255 1.411-0.35701 0.52134-0.11332 0.84435-0.20966 0.96902-0.289 0.12466-0.0907 0.187-0.391 0.187-0.90101"/>
        <path id="path3925" d="m224.08 166.49c0.0567 0 0.085 0.0453 0.085 0.136-0.00001 0.204-0.15301 0.53267-0.459 0.98601-0.29468 0.45334-0.61202 0.82735-0.95202 1.122-1.19 1.054-2.38 1.581-3.57 1.581-0.45335 0-0.90669-0.102-1.36-0.30601-0.44201-0.21533-0.85568-0.51567-1.241-0.90101-0.38534-0.38534-0.69701-0.90101-0.93501-1.547-0.23801-0.64601-0.35701-1.3657-0.35701-2.159 0-0.48733 0.0567-0.90101 0.17001-1.241 0.22666-0.69133 0.70834-1.4223 1.445-2.193 0.748-0.77067 1.4507-1.156 2.108-1.156 0.18133 0.00001 0.45334 0.017 0.81601 0.051 0.54401 0.0453 0.92368 0.10201 1.139 0.17 0.22666 0.068 0.48167 0.20968 0.76501 0.42501 0.36266 0.27201 0.67433 0.62335 0.93501 1.054 0.272 0.41935 0.408 0.77069 0.40801 1.054-0.00001 0.36267-0.14168 0.64034-0.42501 0.83301-0.28334 0.18134-0.83302 0.36267-1.649 0.54401-1.054 0.238-2.0967 0.38534-3.128 0.442l-1.581 0.085v0.68001c0 0.83868 0.391 1.632 1.173 2.38 0.58934 0.56668 1.2014 0.85002 1.836 0.85001 0.48733 0.00001 1.003-0.14733 1.547-0.442 0.55533-0.306 1.0257-0.64034 1.411-1.003 0.38533-0.36267 0.75367-0.69134 1.105-0.98602 0.35133-0.306 0.58933-0.459 0.71401-0.459m-2.737-4.1481c-0.35134-0.31733-0.61768-0.51566-0.79901-0.59501-0.17-0.0907-0.39667-0.13599-0.68-0.136-0.56668 0.00001-0.99169 0.0567-1.275 0.17-0.27201 0.10201-0.54968 0.31735-0.83301 0.64601-0.86135 0.98602-1.292 1.6434-1.292 1.972 0 0.14734 0.136 0.22101 0.40801 0.221 1.0313 0.00001 2.4934-0.21533 4.386-0.64601 0.56667-0.13599 0.85001-0.374 0.85002-0.71401-0.00001-0.15866-0.25502-0.46466-0.76502-0.91801"/>
        <path id="path3927" d="m185.59 185.1c-0.0907 0.00001-0.17567-0.034-0.25501-0.102-0.0793-0.068-0.119-0.16433-0.119-0.289 0-0.12466 0.0283-0.23233 0.085-0.32301 0.068-0.10199 0.187-0.24366 0.35701-0.425 0.17-0.19266 0.32867-0.391 0.476-0.59501l0.56101-0.74801c0.0793-0.10199 0.221-0.32866 0.42501-0.68001 0.204-0.36266 0.39667-0.663 0.57801-0.90101 0.19266-0.24933 0.36266-0.37399 0.51-0.374 0.238 0.00001 0.39667 0.36268 0.47601 1.088 0.068 0.61202 0.136 1.819 0.204 3.621 0.068 1.7907 0.102 3.2754 0.102 4.4541 0 0.74801-0.017 1.1617-0.051 1.241-0.0907 0.19267-0.19267 0.28901-0.306 0.28901-0.15867 0-0.30601-0.19834-0.44201-0.59501-0.14734-0.41934-0.221-1.836-0.221-4.2501-0.0113-2.448-0.0793-3.672-0.204-3.672-0.0907 0.00001-0.27201 0.19268-0.54401 0.57801-0.27201 0.37401-0.56668 0.74802-0.88401 1.122-0.30601 0.37401-0.55534 0.56101-0.74801 0.561"/>
        <path id="path3929" d="m197.91 183.33c-0.17001 0.00001-0.46468-0.14733-0.88401-0.44201-0.40801-0.30599-0.64035-0.45899-0.69701-0.459-0.0453 0.00001-0.10767 0.39101-0.187 1.173l-0.102 1.139 0.54401 0.272c0.96334 0.48735 1.445 1.2127 1.445 2.176-0.00001 0.55535-0.18701 1.1504-0.56101 1.785-0.37401 0.62334-0.85002 1.02-1.428 1.19-0.43068 0.11334-0.71402 0.29467-0.85001 0.54401-0.12468 0.238-0.23801 0.78768-0.34001 1.649-0.102 0.90668-0.17567 1.3827-0.221 1.428-0.13601 0.068-0.34567 0.102-0.62901 0.102-0.102 0-0.17-0.0283-0.204-0.085-0.034-0.0453-0.051-0.14167-0.051-0.289 0-0.62335 0.085-1.394 0.255-2.312l0.204-1.207-0.612-0.52701c-0.37401-0.31733-0.69135-0.71967-0.95202-1.207-0.26067-0.48734-0.391-0.88968-0.391-1.207 0-0.29467 0.11333-0.442 0.34-0.44201 0.136 0.00001 0.26067 0.085 0.37401 0.25501 0.12466 0.15867 0.27767 0.40801 0.459 0.74801 0.19267 0.32867 0.37401 0.60634 0.54401 0.83301l0.32301 0.408 0.119-0.663c0.0453-0.22667 0.12466-0.58368 0.238-1.071 0.12466-0.49867 0.187-0.84434 0.187-1.037 0-0.29467-0.136-0.476-0.408-0.54401-0.35134-0.102-0.67435-0.29466-0.96902-0.57801-0.29467-0.29466-0.442-0.58933-0.442-0.88401 0-0.38533 0.18133-0.85 0.54401-1.394 0.374-0.544 0.75367-0.90667 1.139-1.088 0.29467-0.13599 0.48167-0.272 0.56101-0.40801 0.0907-0.13599 0.18133-0.45899 0.272-0.96901 0.11333-0.70266 0.20967-1.1673 0.28901-1.394 0.0567-0.19266 0.23233-0.28899 0.527-0.289 0.15867 0.00001 0.26067 0.0113 0.30601 0.034 0.0567 0.0227 0.085 0.085 0.085 0.187-0.00001 0.0794-0.051 0.43068-0.153 1.054-0.10201 0.62336-0.15301 1.088-0.15301 1.394 0 0.23802 0.034 0.35702 0.10201 0.35701 0.11332 0.00001 0.40799 0.22668 0.88401 0.68001 0.476 0.45334 0.714 0.73668 0.71401 0.85001-0.00001 0.15867-0.0737 0.23801-0.22101 0.238m-3.026 1.598c0.0567 0.00001 0.119-0.22099 0.18701-0.66301 0.068-0.442 0.10199-0.86133 0.102-1.258-0.00001-0.35133-0.0227-0.64034-0.068-0.86702l-0.56101 0.74801c-0.37401 0.49869-0.56101 0.84436-0.56101 1.037 0 0.14734 0.119 0.35134 0.35701 0.61201 0.238 0.26067 0.41933 0.39101 0.544 0.391m2.193 2.278c0-0.31733-0.085-0.595-0.255-0.83301-0.17001-0.238-0.33434-0.40233-0.49301-0.49301l-0.255-0.119c-0.12467 0.00001-0.27201 0.45335-0.44201 1.36-0.17 0.89535-0.255 1.6207-0.255 2.176 0 0.31734 0.051 0.47601 0.153 0.47601s0.272-0.119 0.51001-0.35701c0.238-0.24933 0.47033-0.58367 0.69701-1.003 0.22666-0.41934 0.34-0.82168 0.34-1.207"/>
      </g>
    </g>
  </g>
  <g id="g-1" fill="#fefefe" stroke="none" transform="matrix(0.036142, 0, 0, 0.036142, 99.884224, 65.391823)" style="">
    <path d="M6264 6248 l-19 -23 23 19 c21 18 27 26 19 26 -2 0 -12 -10 -23 -22z" style="fill: rgb(104, 18, 18);"/>
    <path d="M6145 6186 c-111 -27 -192 -100 -259 -231 -17 -32 -21 -59 -21 -135 0 -83 4 -102 28 -153 78 -166 239 -250 419 -219 124 21 216 93 271 210 29 61 32 76 32 162 0 83 -3 102 -27 150 -32 66 -119 160 -174 188 -80 40 -178 50 -269 28z m125 -125 c0 -22 6 -31 30 -41 47 -19 80 -65 80 -110 0 -67 -12 -82 -99 -125 -62 -30 -83 -45 -88 -64 -11 -44 55 -66 123 -41 32 12 30 14 39 -27 6 -32 6 -33 -39 -45 -38 -10 -46 -16 -46 -35 0 -19 -5 -23 -30 -23 -26 0 -30 3 -30 29 0 22 -6 30 -23 35 -40 10 -79 60 -81 103 -1 53 25 83 109 124 53 26 72 41 80 62 8 24 6 31 -10 40 -37 22 -61 24 -114 10 -30 -7 -55 -12 -56 -11 -2 2 -6 17 -9 35 -7 31 -6 32 36 44 24 6 49 13 56 15 6 2 12 12 12 23 0 18 14 27 48 30 7 1 12 -11 12 -28z" style="fill: rgb(195, 111, 11);"/>
    <path d="M3490 4400 c-96 -9 -242 -23 -325 -30 -84 -7 -162 -18 -177 -26 -57 -30 -58 -47 -23 -405 63 -643 94 -975 105 -1109 14 -176 23 -213 55 -234 35 -23 101 -21 459 15 337 33 369 41 383 97 3 15 -10 207 -31 427 -125 1326 -115 1254 -172 1275 -32 12 -59 11 -274 -10z" style="fill: rgb(195, 111, 11);"/>
    <path d="M5355 5882 c-22 -10 -54 -32 -72 -49 -33 -31 -39 -49 -87 -243 -51 -213 -127 -506 -178 -695 l-33 -120 -98 -32 c-53 -17 -154 -57 -225 -89 -244 -111 -427 -250 -529 -401 -37 -55 -38 -55 -148 -71 -50 -7 -50 -8 -48 -42 2 -19 18 -195 38 -390 19 -195 39 -413 45 -485 20 -255 23 -283 29 -294 5 -7 159 3 501 34 272 24 565 49 650 54 384 27 715 62 774 82 48 17 587 280 881 432 78 40 140 93 159 137 13 30 76 536 115 925 6 55 18 168 27 250 22 204 21 769 -3 848 -40 134 -158 186 -266 117 -66 -42 -83 -75 -96 -188 -6 -54 -18 -160 -26 -237 -9 -77 -18 -162 -21 -190 -24 -232 -78 -437 -162 -620 -149 -324 -301 -421 -567 -366 -123 25 -245 83 -323 154 -91 82 -109 109 -123 189 -17 97 -4 222 71 665 33 194 60 370 60 391 0 56 -27 136 -57 172 -59 71 -203 102 -288 62z" style="fill: rgb(195, 111, 11);"/>
    <path d="M6690 5660 c0 -7 3 -10 7 -7 3 4 3 10 0 14 -4 3 -7 0 -7 -7z" style="fill: rgb(104, 18, 18);"/>
    <path d="M6675 5330 c3 -5 8 -10 11 -10 3 0 2 5 -1 10 -3 6 -8 10 -11 10 -3 0 -2 -4 1 -10z" style="fill: rgb(104, 18, 18);"/>
    <path d="M8144 5161 c-29 -7 -112 -61 -214 -138 -25 -19 -88 -65 -140 -103 -52 -38 -120 -89 -150 -114 -31 -24 -73 -54 -95 -66 -22 -12 -49 -30 -60 -40 -11 -10 -76 -60 -145 -110 -69 -51 -126 -94 -128 -95 -5 -4 -64 -546 -59 -551 2 -3 34 17 69 43 36 26 93 68 127 93 34 25 96 70 136 100 41 30 142 105 226 165 83 61 183 134 223 163 39 29 83 60 97 70 37 25 223 161 279 204 106 82 122 236 33 319 -56 53 -134 76 -199 60z" style="fill: rgb(195, 111, 11);"/>
    <path d="M7471 4114 c0 -11 3 -14 6 -6 3 7 2 16 -1 19 -3 4 -6 -2 -5 -13z" style="fill: rgb(104, 18, 18);"/>
    <path d="M7815 4039 c-88 -22 -207 -53 -265 -69 -58 -16 -150 -41 -205 -55 -70 -18 -115 -36 -152 -62 -53 -37 -57 -43 -67 -117 -3 -21 -12 -49 -21 -62 -8 -13 -15 -27 -15 -31 -1 -5 -22 -30 -48 -56 -30 -31 -88 -70 -162 -110 -63 -34 -117 -62 -120 -62 -10 0 -421 -207 -418 -210 3 -3 37 5 198 51 52 14 127 34 165 44 39 9 156 41 260 70 105 28 287 78 405 111 398 108 625 170 677 185 91 25 153 107 153 201 -1 96 -68 181 -161 202 -56 13 -39 16 -224 -30z" style="fill: rgb(195, 111, 11);"/>
    <path d="M6820 3238 c-397 -111 -504 -141 -670 -183 -91 -24 -158 -45 -150 -48 13 -4 462 -58 605 -72 28 -3 235 -27 462 -55 422 -51 494 -57 536 -41 39 15 96 70 119 115 28 54 21 141 -16 196 -49 74 -88 88 -343 121 -125 16 -250 29 -278 28 -28 0 -144 -27 -265 -61z" style="fill: rgb(195, 111, 11);"/>
  </g>
  <g id="layer102" fill="#1b5575" fill-rule="evenodd" transform="matrix(0.049391, 0, 0, 0.049391, 0.237138, 55.775715)" style="filter: none;">
    <path d="M8350 8310 L8350 8305C8350 8302,8352 8300,8355 8300 L8360 8300L8360 8300 L8360 8295C8360 8292,8362 8290,8365 8290 L8370 8290L8370 8290 L8370 8285C8370 8282,8372 8280,8375 8280 L8380 8280L8380 8280 L8380 8275C8380 8272,8382 8270,8385 8270 L8390 8270L8390 8270 L8390 8265C8390 8262,8392 8260,8395 8260 L8400 8260L8400 8260 L8400 8255C8400 8252,8402 8250,8405 8250 L8410 8250L8410 8250 L8410 8245C8410 8242,8412 8240,8415 8240 L8420 8240L8420 8240 L8420 8235C8420 8232,8422 8230,8425 8230 L8430 8230L8430 8230 L8430 8225C8430 8222,8432 8220,8435 8220 L8440 8220L8440 8220 L8440 8215C8440 8212,8442 8210,8445 8210 L8450 8210L8450 8210 L8450 8205C8450 8202,8452 8200,8455 8200 L8460 8200L8460 8200 L8460 8195C8460 8192,8462 8190,8465 8190 L8470 8190L8470 8190 L8470 8185C8470 8182,8472 8180,8475 8180 L8480 8180L8480 8180 L8480 8175C8480 8172,8482 8170,8485 8170 L8490 8170L8490 8170 L8490 8165C8490 8162,8492 8160,8495 8160 L8500 8160L8500 8160 L8500 8155C8500 8152,8502 8150,8505 8150 L8510 8150L8510 8150 L8510 8145C8510 8142,8512 8140,8515 8140 L8520 8140L8520 8140 L8520 8135C8520 8132,8522 8130,8525 8130 L8530 8130L8530 8130 L8530 8125C8530 8122,8532 8120,8535 8120 L8540 8120L8540 8120 L8540 8115C8540 8112,8542 8110,8545 8110 L8550 8110L8550 8110 8555 8105 L8560 8100 8555 8105 L8560 8110 L8555 8110C8552 8110,8550 8112,8550 8115 L8550 8120L8550 8120 L8545 8120C8542 8120,8540 8122,8540 8125 L8540 8130L8540 8130 L8535 8130C8532 8130,8530 8132,8530 8135 L8530 8140L8530 8140 L8525 8140C8522 8140,8520 8142,8520 8145 L8520 8150L8520 8150 L8515 8150C8512 8150,8510 8152,8510 8155 L8510 8160L8510 8160 L8505 8160C8502 8160,8500 8162,8500 8165 L8500 8170L8500 8170 L8495 8170C8492 8170,8490 8172,8490 8175 L8490 8180L8490 8180 L8485 8180C8482 8180,8480 8182,8480 8185 L8480 8190L8480 8190 L8475 8190C8472 8190,8470 8192,8470 8195 L8470 8200L8470 8200 L8465 8200C8462 8200,8460 8202,8460 8205 L8460 8210L8460 8210 L8455 8210C8452 8210,8450 8212,8450 8215 L8450 8220L8450 8220 L8445 8220C8442 8220,8440 8222,8440 8225 L8440 8230L8440 8230 L8435 8230C8432 8230,8430 8232,8430 8235 L8430 8240L8430 8240 L8425 8240C8422 8240,8420 8242,8420 8245 L8420 8250L8420 8250 L8415 8250C8412 8250,8410 8252,8410 8255 L8410 8260L8410 8260 L8405 8260C8402 8260,8400 8262,8400 8265 L8400 8270L8400 8270 L8395 8270C8392 8270,8390 8272,8390 8275 L8390 8280L8390 8280 L8385 8280C8382 8280,8380 8282,8380 8285 L8380 8290L8380 8290 L8375 8290C8372 8290,8370 8292,8370 8295 L8370 8300L8370 8300 L8365 8300C8362 8300,8360 8302,8360 8305 L8360 8310L8360 8310 L8355 8310C8352 8310,8350 8312,8350 8315 L8350 8320L8350 8320 L8345 8320C8342 8320,8340 8317,8340 8315 C8340 8312,8342 8310,8345 8310 L8350 8310"/>
    <path d="M8880 7770 L8880 7765C8880 7762,8882 7760,8885 7760 L8890 7760L8890 7760 L8890 7755C8890 7752,8891 7750,8893 7750 C8895 7750,8899 7747,8903 7745 L8910 7740L8910 7740 L8910 7735C8910 7732,8912 7730,8915 7730 L8920 7730L8920 7730 L8920 7725C8920 7722,8921 7720,8923 7720 C8925 7720,8929 7717,8933 7715 L8940 7710L8940 7710 L8940 7705C8940 7702,8942 7700,8945 7700 L8950 7700L8950 7700 L8950 7695C8950 7692,8951 7690,8953 7690 C8955 7690,8959 7687,8963 7685 L8970 7680L8970 7680 L8970 7675C8970 7672,8972 7670,8975 7670 L8980 7670L8980 7670 L8980 7665C8980 7662,8981 7660,8983 7660 C8985 7660,8989 7657,8993 7655 L9000 7650L9000 7650 L9000 7645C9000 7642,9002 7640,9005 7640 L9010 7640L9010 7640 L9010 7635C9010 7632,9011 7630,9013 7630 C9015 7630,9019 7627,9023 7625 L9030 7620L9030 7620 L9030 7615C9030 7612,9032 7610,9035 7610 L9040 7610L9040 7610 L9040 7605C9040 7602,9041 7600,9043 7600 C9045 7600,9049 7597,9053 7595 L9060 7590L9060 7590 L9060 7585C9060 7582,9062 7580,9065 7580 L9070 7580L9070 7580 L9070 7575C9070 7572,9072 7570,9075 7570 L9080 7570L9080 7570 L9080 7575C9080 7577,9077 7580,9075 7580 L9070 7580L9070 7580 L9070 7585C9070 7587,9067 7590,9065 7590 L9060 7590L9060 7590 L9060 7595C9060 7597,9057 7600,9055 7600 L9050 7600L9050 7600 L9050 7605C9050 7607,9047 7610,9045 7610 L9040 7610L9040 7610 L9040 7615C9040 7617,9037 7620,9035 7620 L9030 7620L9030 7620 L9030 7625C9030 7627,9027 7630,9025 7630 L9020 7630L9020 7630 L9020 7635C9020 7637,9017 7640,9015 7640 L9010 7640L9010 7640 L9010 7645C9010 7647,9007 7650,9005 7650 L9000 7650L9000 7650 L9000 7655C9000 7657,8997 7660,8995 7660 L8990 7660L8990 7660 L8990 7665C8990 7667,8987 7670,8985 7670 L8980 7670L8980 7670 L8980 7675C8980 7677,8977 7680,8975 7680 L8970 7680L8970 7680 L8970 7685C8970 7687,8967 7690,8965 7690 L8960 7690L8960 7690 L8960 7695C8960 7697,8957 7700,8955 7700 L8950 7700L8950 7700 L8950 7705C8950 7707,8947 7710,8945 7710 L8940 7710L8940 7710 L8940 7715C8940 7717,8937 7720,8935 7720 L8930 7720L8930 7720 L8930 7725C8930 7727,8927 7730,8925 7730 L8920 7730L8920 7730 L8920 7735C8920 7737,8917 7740,8915 7740 L8910 7740L8910 7740 L8910 7745C8910 7747,8907 7750,8905 7750 L8900 7750L8900 7750 L8900 7755C8900 7757,8897 7760,8895 7760 L8890 7760L8890 7760 L8890 7765C8890 7767,8887 7770,8885 7770 L8880 7770L8880 7770 L8880 7775C8880 7777,8877 7780,8875 7780 L8870 7780L8868 7778 8870 7790 L8860 7790 L8860 7785C8860 7782,8861 7780,8863 7780 C8865 7780,8869 7777,8873 7775 L8880 7770"/>
    <path d="M9050 7100 L9055 7140L9060 7180L9060 7180 L9054 7147C9051 7129,9049 7111,9049 7107 L9050 7100"/>
    <path d="M1870 3400 L1847 3395C1835 3392,1732 3378,1620 3365 C1507 3351,1338 3331,1245 3320 C1151 3308,1003 3290,915 3279 C827 3269,606 3242,425 3220 C243 3198,73 3177,47 3175 L0 3170L0 3170 L0 2675C0 2402,0 2177,0 2175 C0 2172,0 2059,0 1925 L0 1680L0 1680 L5 1680C7 1680,12 1680,15 1680 C17 1680,647 1680,1415 1680 L2810 1680L2810 1680 L2810 1685C2810 1688,2814 1688,2819 1685 C2824 1682,2839 1680,2854 1680 L2880 1680L2880 1680 L2880 1685C2880 1687,2882 1690,2885 1690 C2887 1690,2896 1690,2905 1690 L2920 1690L2920 1690 L3610 1690L4300 1690 4300 1715 C4300 1728,4300 1742,4300 1745 L4300 1750L4300 1750 L4300 1835C4300 1881,4300 1922,4300 1925 C4300 1927,4300 2107,4300 2325 L4300 2720L4300 2720 L4300 3205C4300 3664,4299 3690,4282 3690 C4272 3690,4214 3683,4154 3675 C4094 3667,3950 3649,3835 3635 C3719 3621,3513 3596,3377 3580 C3241 3563,3018 3536,2882 3519 C2746 3503,2560 3480,2470 3469 C2379 3458,2214 3438,2104 3424 C1994 3411,1896 3400,1887 3400 L1870 3400" style="fill: rgb(63, 77, 121);"/>
  </g>
</svg>