<?xml version="1.0" encoding="utf-8"?>
<svg viewBox="0 0 179 43" xmlns="http://www.w3.org/2000/svg">
  <path fill-rule="evenodd" d="M 33.495 31.552 C 34.553 31.552 35.542 31.359 36.475 30.984 C 36.475 31.018 38.375 33.964 38.409 33.975 C 36.727 34.876 34.845 35.333 32.937 35.305 C 27.101 35.318 22.87 31.461 22.87 25.329 C 22.87 19.153 27.306 15.319 32.937 15.319 C 34.929 15.319 36.509 15.753 38.09 16.594 L 36.27 19.664 C 35.315 19.29 34.336 19.119 33.313 19.119 C 29.866 19.119 27.194 21.315 27.194 25.329 C 27.194 29.129 29.775 31.552 33.495 31.552 Z M 48.203 15.319 C 53.936 15.319 58.089 19.38 58.089 25.329 C 58.089 31.245 53.936 35.305 48.192 35.305 C 42.504 35.305 38.351 31.245 38.351 25.329 C 38.351 19.38 42.504 15.319 48.203 15.319 Z M 48.203 18.983 C 45.007 18.983 42.675 21.45 42.675 25.329 C 42.675 29.174 45.007 31.644 48.203 31.644 C 51.48 31.644 53.776 29.174 53.776 25.329 C 53.776 21.45 51.48 18.983 48.203 18.983 Z M 60.806 34.874 L 60.806 15.753 L 65.084 15.753 L 65.084 34.863 L 60.806 34.863 Z M 60.239 9.871 C 60.374 7.808 62.69 6.665 64.408 7.814 C 65.103 8.276 65.543 9.037 65.596 9.871 C 65.597 11.356 64.408 12.571 62.924 12.601 C 61.438 12.571 60.249 11.356 60.249 9.871 Z M 68.815 16.958 C 71.617 15.904 74.581 15.35 77.574 15.319 C 82.465 15.319 85.56 17.174 85.56 22.565 L 85.56 34.874 L 81.34 34.874 L 81.34 22.964 C 81.34 20.2 79.622 19.209 77.245 19.209 C 75.731 19.209 74.218 19.414 73.092 19.767 L 73.092 34.863 L 68.826 34.863 L 68.826 16.958 Z M 89.143 5.514 L 93.42 5.514 L 93.42 16.264 C 94.33 15.786 96.094 15.319 97.777 15.319 C 103.306 15.319 107.446 18.846 107.446 24.989 C 107.446 31.165 103.351 35.305 96.276 35.305 C 93.511 35.305 91.089 34.738 89.143 34.055 L 89.143 5.514 Z M 93.42 31.245 C 94.24 31.507 95.32 31.644 96.4 31.644 C 100.326 31.644 103.135 29.482 103.135 25.079 C 103.135 21.36 100.495 19.164 97.265 19.164 C 95.581 19.164 94.285 19.597 93.42 20.074 L 93.42 31.245 Z M 119.81 22.054 C 119.81 19.984 118.242 19.028 116.125 19.028 C 113.93 19.028 112.201 19.676 110.608 20.586 L 110.608 16.867 C 112.514 15.831 114.651 15.3 116.82 15.319 C 121.006 15.319 123.986 17.049 123.986 21.838 L 123.986 34.488 C 122.166 34.965 119.584 35.26 117.422 35.26 C 112.463 35.26 108.834 33.759 108.834 29.436 C 108.834 25.545 112.156 23.646 117.685 23.646 L 119.8 23.646 L 119.8 22.054 Z M 119.81 26.49 L 117.99 26.49 C 115.01 26.49 113.066 27.365 113.066 29.311 C 113.066 31.291 114.886 32.064 117.469 32.064 C 118.116 32.064 119.026 31.984 119.8 31.859 L 119.8 26.502 Z M 127.092 29.698 C 128.759 31.019 130.803 31.776 132.926 31.859 C 134.827 31.859 136.078 31.21 136.078 29.698 C 136.078 28.14 134.951 27.583 132.495 26.934 C 128.514 26.024 126.841 24.431 126.841 21.098 C 126.841 17.22 129.776 15.319 133.666 15.319 C 135.828 15.319 137.545 15.786 139.149 16.787 L 139.149 20.712 C 137.625 19.495 135.742 18.815 133.791 18.778 C 131.937 18.778 130.948 19.688 130.948 20.939 C 130.948 22.19 131.755 22.828 133.962 23.442 C 138.331 24.385 140.219 26.024 140.219 29.471 C 140.219 33.498 137.159 35.305 133.019 35.305 C 130.942 35.347 128.895 34.811 127.103 33.759 L 127.103 29.698 Z M 146.076 26.286 L 146.076 26.365 C 146.339 29.778 149.262 31.644 152.254 31.644 C 154.882 31.644 156.781 31.029 158.68 29.778 L 158.68 33.532 C 156.952 34.748 154.404 35.305 151.947 35.305 C 145.985 35.305 141.936 31.507 141.936 25.466 C 141.936 19.38 145.906 15.319 151.174 15.319 C 156.747 15.319 159.375 18.903 159.375 24.124 L 159.375 26.286 L 146.066 26.286 Z M 155.359 23.521 C 155.269 20.54 153.801 18.903 151.036 18.903 C 148.58 18.903 146.771 20.632 146.202 23.521 L 155.359 23.521 Z" style="fill: rgb(43, 42, 53);"/>
</svg>