<?xml version="1.0" encoding="utf-8"?>
<svg viewBox="0 0 179 43" xmlns="http://www.w3.org/2000/svg">
  <path d="M 79.798 22.547 C 79.798 27.976 75.554 31.977 70.344 31.977 C 65.136 31.977 60.891 27.976 60.891 22.547 C 60.891 17.081 65.136 13.118 70.344 13.118 C 75.554 13.118 79.798 17.081 79.798 22.547 Z M 75.659 22.547 C 75.659 19.155 73.2 16.833 70.344 16.833 C 67.489 16.833 65.029 19.155 65.029 22.547 C 65.029 25.906 67.489 28.261 70.344 28.261 C 73.2 28.261 75.659 25.901 75.659 22.547 Z" style="fill: rgb(43, 42, 53);"/>
  <path d="M 100.191 22.547 C 100.191 27.976 95.946 31.977 90.738 31.977 C 85.529 31.977 81.285 27.976 81.285 22.547 C 81.285 17.084 85.529 13.118 90.738 13.118 C 95.946 13.118 100.191 17.081 100.191 22.547 Z M 96.053 22.547 C 96.053 19.155 93.593 16.833 90.738 16.833 C 87.883 16.833 85.423 19.155 85.423 22.547 C 85.423 25.906 87.883 28.261 90.738 28.261 C 93.593 28.261 96.053 25.901 96.053 22.547 Z" style="fill: rgb(43, 42, 53);"/>
  <path d="M 119.735 13.688 L 119.735 30.615 C 119.735 37.58 115.631 40.423 110.778 40.423 C 106.211 40.423 103.462 37.367 102.425 34.867 L 106.028 33.367 C 106.67 34.901 108.242 36.712 110.775 36.712 C 113.88 36.712 115.805 34.795 115.805 31.186 L 115.805 29.83 L 115.66 29.83 C 114.734 30.973 112.949 31.972 110.698 31.972 C 105.986 31.972 101.67 27.865 101.67 22.582 C 101.67 17.259 105.986 13.118 110.698 13.118 C 112.946 13.118 114.73 14.117 115.66 15.227 L 115.805 15.227 L 115.805 13.692 L 119.735 13.692 Z M 116.098 22.582 C 116.098 19.261 113.884 16.833 111.068 16.833 C 108.212 16.833 105.821 19.261 105.821 22.582 C 105.821 25.867 108.212 28.261 111.068 28.261 C 113.884 28.261 116.098 25.867 116.098 22.582 Z" style="fill: rgb(43, 42, 53);"/>
  <path d="M 126.214 3.765 L 126.214 31.398 L 122.177 31.398 L 122.177 3.765 L 126.214 3.765 Z" style="fill: rgb(43, 42, 53);"/>
  <path d="M 141.942 25.651 L 145.154 27.793 C 144.118 29.328 141.619 31.972 137.303 31.972 C 131.949 31.972 127.952 27.832 127.952 22.543 C 127.952 16.936 131.984 13.114 136.839 13.114 C 141.729 13.114 144.122 17.007 144.903 19.112 L 145.333 20.184 L 132.736 25.404 C 133.7 27.296 135.2 28.261 137.303 28.261 C 139.41 28.261 140.871 27.224 141.942 25.651 Z M 132.055 22.258 L 140.476 18.759 C 140.013 17.581 138.62 16.761 136.979 16.761 C 134.876 16.761 131.949 18.619 132.055 22.258 Z" style="fill: rgb(43, 42, 53);"/>
  <path d="M 45.614 20.095 L 45.614 16.094 L 59.085 16.094 C 59.217 16.791 59.285 17.615 59.285 18.509 C 59.285 21.511 58.465 25.221 55.823 27.865 C 53.252 30.544 49.968 31.972 45.617 31.972 C 37.553 31.972 30.773 25.4 30.773 17.331 C 30.773 9.262 37.553 2.69 45.617 2.69 C 50.078 2.69 53.256 4.441 55.644 6.724 L 52.823 9.547 C 51.111 7.94 48.791 6.69 45.614 6.69 C 39.725 6.69 35.119 11.439 35.119 17.331 C 35.119 23.223 39.725 27.971 45.614 27.971 C 49.433 27.971 51.608 26.438 53.001 25.042 C 54.131 23.912 54.876 22.296 55.168 20.09 L 45.614 20.095 Z" style="fill: rgb(43, 42, 53);"/>
</svg>