<?xml version="1.0" encoding="utf-8"?>
<svg viewBox="0 0 179 43" xmlns="http://www.w3.org/2000/svg">
  <path d="M 59.664 10.089 L 67.424 10.089 C 70.305 10.089 72.182 10.215 73.81 11.968 C 74.935 13.22 75.561 14.722 75.561 16.475 C 75.561 18.228 74.935 19.728 73.683 20.98 C 72.432 22.231 70.805 22.982 66.674 22.982 L 62.919 22.982 L 62.919 33.374 L 59.664 33.374 L 59.664 10.089 Z M 62.919 20.355 L 66.674 20.355 C 68.802 20.355 72.057 20.23 72.057 16.349 C 72.057 12.719 69.053 12.719 67.301 12.719 L 62.919 12.719 L 62.919 20.355 Z M 85.952 33.374 C 85.702 32.622 85.702 31.746 85.702 30.994 C 84.199 33.623 82.071 33.874 80.694 33.874 C 76.938 33.874 74.935 31.746 74.935 29.117 C 74.935 27.865 75.436 25.737 77.815 24.36 C 79.567 23.359 82.071 23.359 83.448 23.359 C 84.199 23.359 84.7 23.359 85.575 23.483 C 85.575 21.482 85.575 20.605 84.951 19.854 C 84.324 19.103 83.072 18.853 82.196 18.853 C 79.191 18.853 78.941 20.98 78.941 21.607 L 75.937 21.607 C 76.063 20.73 76.187 19.604 77.063 18.602 C 78.315 17.226 80.568 16.85 82.32 16.85 C 84.7 16.85 87.204 17.601 88.079 19.227 C 88.58 20.23 88.58 20.98 88.58 21.73 L 88.455 29.493 C 88.455 29.742 88.455 31.87 88.705 33.498 L 85.952 33.498 Z M 83.823 25.362 C 82.571 25.362 77.939 25.362 77.939 28.617 C 77.939 29.619 78.565 31.37 81.319 31.37 C 82.822 31.37 84.074 30.745 84.824 29.619 C 85.451 28.49 85.575 27.615 85.575 25.362 C 85.075 25.486 84.575 25.362 83.823 25.362 Z M 91.209 10.089 L 94.214 10.089 L 94.214 33.374 L 91.209 33.374 L 91.209 10.089 Z M 107.233 33.374 C 106.982 32.622 106.982 31.746 106.982 30.994 C 105.48 33.623 103.352 33.874 101.975 33.874 C 98.22 33.874 96.217 31.746 96.217 29.117 C 96.217 27.865 96.717 25.737 99.096 24.36 C 100.849 23.359 103.352 23.359 104.729 23.359 C 105.48 23.359 105.981 23.359 106.857 23.483 C 106.857 21.482 106.857 20.605 106.231 19.854 C 105.605 19.103 104.353 18.853 103.478 18.853 C 100.473 18.853 100.223 20.98 100.223 21.607 L 97.219 21.607 C 97.343 20.73 97.469 19.604 98.346 18.602 C 99.598 17.226 101.85 16.85 103.601 16.85 C 105.981 16.85 108.484 17.601 109.361 19.227 C 109.861 20.23 109.861 20.98 109.861 21.73 L 109.736 29.493 C 109.736 29.742 109.736 31.87 109.987 33.498 L 107.233 33.498 Z M 105.23 25.362 C 103.978 25.362 99.347 25.362 99.347 28.617 C 99.347 29.619 99.972 31.37 102.727 31.37 C 104.228 31.37 105.48 30.745 106.231 29.619 C 106.857 28.49 106.982 27.615 106.982 25.362 C 106.356 25.486 105.981 25.362 105.23 25.362 Z M 112.616 19.103 L 112.616 17.226 L 115.62 17.226 L 115.62 19.854 C 115.995 19.227 117.123 16.976 120.753 16.976 C 122.254 16.976 126.636 17.476 126.636 22.482 L 126.636 33.498 L 123.506 33.498 L 123.506 23.233 C 123.506 22.231 123.381 21.231 122.631 20.478 C 121.88 19.728 120.753 19.353 119.751 19.353 C 117.497 19.353 115.494 20.98 115.494 24.234 L 115.494 33.498 L 112.489 33.498 L 112.489 19.103 Z M 127.638 17.226 L 130.517 17.226 L 130.517 13.72 L 133.522 12.719 L 133.522 17.1 L 137.151 17.1 L 137.151 19.353 L 133.522 19.353 L 133.522 28.992 C 133.522 29.742 133.522 31.119 135.649 31.119 C 136.275 31.119 136.901 30.994 137.151 30.994 L 137.151 33.374 C 136.65 33.498 135.774 33.623 134.647 33.623 C 131.769 33.623 130.517 32.748 130.517 30.119 L 130.517 19.353 L 127.638 19.353 L 127.638 17.226 Z M 139.279 10.089 L 142.91 10.089 L 142.91 13.47 L 139.279 13.47 L 139.279 10.089 Z M 139.529 17.226 L 142.534 17.226 L 142.534 33.374 L 139.529 33.374 L 139.529 17.226 Z M 145.414 20.478 C 145.414 19.353 145.287 18.228 145.287 17.226 L 148.292 17.226 L 148.417 20.355 C 149.043 18.101 150.921 17.35 152.299 17.226 C 153.175 17.1 153.926 17.1 154.427 17.1 L 154.427 20.105 C 154.302 20.105 154.051 19.979 153.801 19.979 C 153.551 19.979 153.3 19.979 152.924 19.979 C 149.295 19.979 148.543 22.107 148.543 24.861 L 148.543 33.498 L 145.539 33.498 L 145.539 20.478 Z M 41.012 6.96 C 34.752 6.96 29.619 12.092 29.619 18.352 C 29.619 24.611 34.752 29.742 41.012 29.742 C 47.27 29.742 52.403 24.611 52.403 18.352 C 52.403 12.092 47.27 6.96 41.012 6.96 Z M 41.012 26.238 C 36.631 26.238 33.126 22.732 33.126 18.352 C 33.126 13.971 36.631 10.465 41.012 10.465 C 45.392 10.465 48.897 13.971 48.897 18.352 C 48.772 22.732 45.267 26.238 41.012 26.238 Z M 51.151 28.742 L 41.012 33.122 L 30.871 28.742 L 29.119 31.87 L 41.012 36.878 L 52.904 31.87 L 51.151 28.742 Z" style="fill: rgb(43, 42, 53);"/>
</svg>